<svg width="53" height="53" viewBox="0 0 53 53" fill="none" xmlns="http://www.w3.org/2000/svg">
<path d="M49.9377 26.2926C48.8197 26.1684 47.8674 26.9965 47.7845 28.1145C46.9564 37.8035 38.6752 45.3809 28.9447 45.3809C18.8416 45.3809 10.5603 37.3895 10.0635 27.4106H13.997C14.6595 27.4106 15.0736 26.6653 14.6595 26.127L8.69705 17.5145C8.3658 17.059 7.66189 17.059 7.33064 17.5145L1.40955 26.0856C1.03689 26.6238 1.40955 27.3692 2.07205 27.3692H6.04705C6.54392 39.5426 16.6056 49.3145 28.9033 49.3145C40.6627 49.3145 50.683 40.1223 51.7181 28.4457C51.8424 27.3692 51.0142 26.3754 49.9377 26.2926ZM20.7877 9.15041C21.0361 9.15041 21.326 9.109 21.5744 8.98478C23.2306 8.28088 24.9697 7.82541 26.7502 7.61838C27.8267 7.49416 28.6135 6.50041 28.4892 5.42385C28.365 4.34728 27.3713 3.56056 26.2947 3.68478C24.1416 3.93322 22.0299 4.4715 20.001 5.34103C19.0072 5.7551 18.5103 6.91447 18.9658 7.94963C19.297 8.69494 20.0424 9.15041 20.7877 9.15041ZM33.8306 8.15666C36.1494 8.77775 38.2611 9.81291 40.2072 11.2207C40.5799 11.4692 40.9939 11.5934 41.3666 11.5934C41.9877 11.5934 42.5674 11.3035 42.9814 10.8067C43.6439 9.93713 43.4369 8.69494 42.5674 8.03244C40.2486 6.29338 37.64 5.05119 34.8658 4.30588C33.7892 4.01603 32.7127 4.63713 32.4228 5.71369C32.133 6.79025 32.7541 7.86682 33.8306 8.15666ZM47.1635 21.2824C47.4119 22.152 48.1986 22.7317 49.0681 22.7317C49.2338 22.7317 49.4408 22.6903 49.6064 22.6488C50.6416 22.359 51.2627 21.241 50.9728 20.2059C50.3931 18.0942 49.4822 16.1067 48.3228 14.2434C47.7431 13.3324 46.5009 13.0426 45.59 13.6223C44.6791 14.202 44.3892 15.4442 44.9689 16.3551C45.9213 17.9285 46.6666 19.5434 47.1635 21.2824Z" fill="#343433"/>
</svg>
