<svg width="51" height="55" viewBox="0 0 51 55" fill="none" xmlns="http://www.w3.org/2000/svg">
<path d="M20.4555 5.53337C21.3677 5.53337 22.1072 4.78066 22.1072 3.85214C22.1072 2.92361 21.3677 2.1709 20.4555 2.1709C19.5432 2.1709 18.8037 2.92361 18.8037 3.85214C18.8037 4.78066 19.5432 5.53337 20.4555 5.53337Z" fill="#FFE888"/>
<path d="M37.182 7.21599C38.0943 7.21599 38.8338 6.46327 38.8338 5.53475C38.8338 4.60623 38.0943 3.85352 37.182 3.85352C36.2698 3.85352 35.5303 4.60623 35.5303 5.53475C35.5303 6.46327 36.2698 7.21599 37.182 7.21599Z" fill="#FFE888"/>
<path d="M40.4857 36.6408C41.398 36.6408 42.1375 35.8881 42.1375 34.9596C42.1375 34.031 41.398 33.2783 40.4857 33.2783C39.5735 33.2783 38.834 34.031 38.834 34.9596C38.834 35.8881 39.5735 36.6408 40.4857 36.6408Z" fill="#FFE888"/>
<path d="M8.3666 36.132C9.27885 36.132 10.0184 35.3793 10.0184 34.4508C10.0184 33.5222 9.27885 32.7695 8.3666 32.7695C7.45436 32.7695 6.71484 33.5222 6.71484 34.4508C6.71484 35.3793 7.45436 36.132 8.3666 36.132Z" fill="#FFE888"/>
<path d="M44.8228 23.8626C46.3058 23.8626 47.508 22.639 47.508 21.1295C47.508 19.6201 46.3058 18.3965 44.8228 18.3965C43.3399 18.3965 42.1377 19.6201 42.1377 21.1295C42.1377 22.639 43.3399 23.8626 44.8228 23.8626Z" fill="#FFE888"/>
<path d="M5.79843 19.346C7.28139 19.346 8.48357 18.1224 8.48357 16.6129C8.48357 15.1035 7.28139 13.8799 5.79843 13.8799C4.31546 13.8799 3.11328 15.1035 3.11328 16.6129C3.11328 18.1224 4.31546 19.346 5.79843 19.346Z" fill="#FFE888"/>
<path d="M25.3412 10.6959C23.311 10.6745 21.3191 11.2593 19.612 12.3779C17.9048 13.4966 16.5572 15.0999 15.7357 16.9898C14.9143 18.8796 14.655 20.9731 14.99 23.0113C15.325 25.0496 16.2396 26.9432 17.6207 28.458C19.4273 30.3902 20.4467 32.9479 20.4733 35.6152L20.5285 36.5073C23.5166 37.8151 26.8924 37.8623 29.9146 36.6384L29.9951 35.6152C29.9916 32.9865 30.9813 30.4571 32.7594 28.5507C34.1534 27.059 35.0892 25.1854 35.4517 23.16C35.8142 21.1345 35.5877 19.0454 34.8 17.1492C34.0123 15.2529 32.6977 13.6321 31.0176 12.4857C29.3375 11.3393 27.3651 10.7172 25.3426 10.6959H25.3412Z" fill="#FFC639"/>
<path d="M29.9932 35.7002V35.7051L29.9948 35.7043L29.9932 35.7002Z" fill="#584360"/>
<path d="M35.5941 46.632C34.315 45.7572 31.7725 46.9495 30.2215 47.1359C30.4688 47.0995 30.6975 46.9815 30.8726 46.8C31.0477 46.6186 31.1595 46.3837 31.1908 46.1313C31.2222 45.879 31.1713 45.6232 31.0461 45.4031C30.9209 45.183 30.7282 45.0108 30.4976 44.9128C29.0547 44.3503 27.5661 43.9178 26.0489 43.6203C23.6595 43.1314 21.1779 43.4779 19.0061 44.6038C17.8099 45.1803 14.3872 47.5541 13.5401 48.8996C13.421 49.0714 13.3693 49.2824 13.3952 49.4911C13.4808 50.2759 15.7978 52.5407 16.5087 52.7753C16.6384 52.8246 16.7781 52.8406 16.9153 52.8218C17.0526 52.803 17.1831 52.75 17.2955 52.6676C17.7238 52.3866 18.6656 51.4463 19.6144 51.1067C21.3715 50.4778 24.2858 51.0215 25.7043 50.9868C27.7913 50.9358 34.7618 49.1173 35.8384 48.1278C35.9325 48.0188 36.0016 47.8898 36.0408 47.7503C36.0799 47.6108 36.088 47.4641 36.0647 47.321C36.0413 47.1778 35.9869 47.0417 35.9056 46.9226C35.8242 46.8034 35.7178 46.7042 35.5941 46.632Z" fill="#FF977B"/>
<path d="M25.2326 36.975C25.1105 36.975 24.9935 36.9256 24.9072 36.8378C24.8209 36.75 24.7725 36.6308 24.7725 36.5066V31.5542C24.7725 31.43 24.8209 31.3109 24.9072 31.2231C24.9935 31.1353 25.1105 31.0859 25.2326 31.0859C25.3546 31.0859 25.4716 31.1353 25.5579 31.2231C25.6442 31.3109 25.6927 31.43 25.6927 31.5542V36.5066C25.6927 36.6308 25.6442 36.75 25.5579 36.8378C25.4716 36.9256 25.3546 36.975 25.2326 36.975Z" fill="white"/>
<path d="M25.2307 29.2304C25.5544 29.2304 25.8169 28.9632 25.8169 28.6337C25.8169 28.3042 25.5544 28.0371 25.2307 28.0371C24.907 28.0371 24.6445 28.3042 24.6445 28.6337C24.6445 28.9632 24.907 29.2304 25.2307 29.2304Z" fill="white"/>
<path d="M25.2493 26.5912H25.1959C24.9677 26.5908 24.745 26.5203 24.5569 26.3887C24.3689 26.2571 24.2243 26.0708 24.1423 25.8541C23.5497 24.3114 22.9953 23.9298 22.1178 23.7335C22.0588 23.7204 22.0028 23.6954 21.9532 23.6602C21.9035 23.625 21.8612 23.5802 21.8286 23.5284C21.7959 23.4765 21.7737 23.4186 21.763 23.358C21.7524 23.2974 21.7536 23.2352 21.7666 23.1751C21.7795 23.1149 21.804 23.058 21.8386 23.0075C21.8732 22.9569 21.9172 22.9138 21.9681 22.8806C22.0191 22.8474 22.076 22.8248 22.1355 22.8139C22.1951 22.8031 22.2561 22.8043 22.3152 22.8175C23.6316 23.1112 24.3595 23.8413 25.0013 25.5117C25.0176 25.557 25.0482 25.5954 25.0884 25.6208C25.1286 25.6463 25.176 25.6573 25.2231 25.6522C25.2728 25.6587 25.3233 25.6486 25.3668 25.6232C25.4103 25.5978 25.4445 25.5587 25.4642 25.5117C26.1083 23.8408 26.8348 23.1112 28.1507 22.8175C28.2685 22.7944 28.3905 22.8191 28.4907 22.8863C28.591 22.9535 28.6614 23.0578 28.6871 23.1771C28.7128 23.2964 28.6917 23.4212 28.6282 23.5249C28.5648 23.6286 28.4641 23.703 28.3476 23.7321C27.4688 23.9284 26.9144 24.31 26.3232 25.8527C26.2394 26.0724 26.0916 26.2609 25.8997 26.3929C25.7078 26.5249 25.4809 26.5941 25.2493 26.5912Z" fill="white"/>
<path d="M25.2292 36.5062C23.6107 36.5009 22.0037 36.2294 20.4704 35.7021H20.4667C20.4447 36.3525 20.5516 37.0008 20.781 37.6083C21.0103 38.2157 21.3574 38.77 21.8016 39.2381C22.2458 39.7062 22.7781 40.0784 23.3666 40.3328C23.9551 40.5871 24.5879 40.7183 25.2273 40.7184C25.8667 40.7186 26.4995 40.5878 27.0882 40.3339C27.6769 40.0799 28.2093 39.7079 28.6538 39.2401C29.0983 38.7723 29.4457 38.2182 29.6754 37.6109C29.9051 37.0036 30.0123 36.3554 29.9908 35.705C28.4562 36.2309 26.8484 36.5015 25.2292 36.5062Z" fill="#4E3B56"/>
<path d="M25.3357 47.6936C25.2338 47.6937 25.1347 47.6594 25.0541 47.5961C24.9734 47.5328 24.9157 47.4439 24.8899 47.3436C24.8642 47.2433 24.8719 47.137 24.9119 47.0416C24.9518 46.9462 25.0218 46.867 25.1107 46.8165C26.145 46.2297 27.3716 46.4095 28.4529 46.5678C29.0115 46.6823 29.5829 46.7179 30.1511 46.6736C30.2717 46.6546 30.3948 46.6852 30.4933 46.7585C30.5918 46.8319 30.6576 46.9421 30.6763 47.0649C30.695 47.1877 30.665 47.313 30.5929 47.4132C30.5208 47.5135 30.4125 47.5805 30.2919 47.5995C29.6336 47.6613 28.9701 47.626 28.3217 47.4946C27.339 47.3508 26.3217 47.2019 25.5611 47.6351C25.4922 47.674 25.4145 47.6942 25.3357 47.6936Z" fill="#ED4850"/>
</svg>
