<svg width="18" height="18" viewBox="0 0 18 18" fill="none" xmlns="http://www.w3.org/2000/svg">
<circle cx="9" cy="9" r="9" fill="#603BE5"/>
<path d="M8.57617 5.51986C8.31099 5.20165 7.83807 5.15866 7.51986 5.42383C7.20165 5.68901 7.15866 6.16193 7.42383 6.48014L8.57617 5.51986ZM10.5 9L11.0762 9.48014C11.3079 9.202 11.3079 8.798 11.0762 8.51986L10.5 9ZM7.42383 11.5199C7.15866 11.8381 7.20165 12.311 7.51986 12.5762C7.83807 12.8413 8.31099 12.7983 8.57617 12.4801L7.42383 11.5199ZM7.42383 6.48014L9.92383 9.48014L11.0762 8.51986L8.57617 5.51986L7.42383 6.48014ZM9.92383 8.51986L7.42383 11.5199L8.57617 12.4801L11.0762 9.48014L9.92383 8.51986Z" fill="#FCFCFC"/>
</svg>
