<svg width="54" height="54" viewBox="0 0 54 54" fill="none" xmlns="http://www.w3.org/2000/svg">
<path d="M35.4393 29.5692L26.7672 11.8125L18.377 28.9921" fill="#008F95"/>
<path d="M20.25 2.53125H21.9375V18.5625H20.25V2.53125Z" fill="#00B3BA"/>
<path d="M25.3125 5.0625L27 2.53125H20.25V7.59375H27L25.3125 5.0625Z" fill="#FF5023"/>
<path d="M24.2291 34.6832L26.9983 29.0123L20.25 15.1875L2.53125 51.4688H8.4375L20.25 26.1562L24.2291 34.6832Z" fill="#00D7DF"/>
<path d="M31.4052 19.9884L31.5537 20.293L31.4052 19.9884L26.9983 29.0123L27 29.0166L26.9983 29.0123L24.2291 34.6832L20.25 26.1562L8.4375 51.4688H51.4688L33.75 15.1875L31.4052 19.9884V19.9884Z" fill="#FF5023"/>
</svg>
