<svg width="45" height="45" viewBox="0 0 45 45" fill="none" xmlns="http://www.w3.org/2000/svg">
<path d="M20.1643 6.48524C21.5102 5.33825 23.4898 5.33825 24.8357 6.48524L27.125 8.43617C27.7018 8.92768 28.4189 9.22472 29.1743 9.285L32.1726 9.52426C33.9353 9.66493 35.3351 11.0647 35.4757 12.8274L35.715 15.8257C35.7753 16.5811 36.0723 17.2982 36.5638 17.875L38.5148 20.1643C39.6617 21.5102 39.6617 23.4898 38.5148 24.8357L36.5638 27.125C36.0723 27.7018 35.7753 28.4189 35.715 29.1743L35.4757 32.1726C35.3351 33.9353 33.9353 35.3351 32.1726 35.4757L29.1743 35.715C28.4189 35.7753 27.7018 36.0723 27.125 36.5638L24.8357 38.5148C23.4898 39.6617 21.5102 39.6617 20.1643 38.5148L17.875 36.5638C17.2982 36.0723 16.5811 35.7753 15.8257 35.715L12.8274 35.4757C11.0647 35.3351 9.66493 33.9353 9.52426 32.1726L9.285 29.1743C9.22472 28.4189 8.92768 27.7018 8.43617 27.125L6.48524 24.8357C5.33825 23.4898 5.33825 21.5102 6.48524 20.1643L8.43617 17.875C8.92768 17.2982 9.22472 16.5811 9.285 15.8257L9.52426 12.8274C9.66493 11.0647 11.0647 9.66493 12.8274 9.52426L15.8257 9.285C16.5811 9.22472 17.2982 8.92768 17.875 8.43617L20.1643 6.48524Z" stroke="#14181F" stroke-width="3" stroke-linecap="round" stroke-linejoin="round"/>
<path d="M29.1857 19.8107C29.7714 19.2249 29.7714 18.2751 29.1857 17.6893C28.5999 17.1036 27.6501 17.1036 27.0643 17.6893L29.1857 19.8107ZM20.625 26.25L19.5643 27.3107C20.1501 27.8964 21.0999 27.8964 21.6857 27.3107L20.625 26.25ZM17.9357 21.4393C17.3499 20.8536 16.4001 20.8536 15.8143 21.4393C15.2286 22.0251 15.2286 22.9749 15.8143 23.5607L17.9357 21.4393ZM27.0643 17.6893L19.5643 25.1893L21.6857 27.3107L29.1857 19.8107L27.0643 17.6893ZM21.6857 25.1893L17.9357 21.4393L15.8143 23.5607L19.5643 27.3107L21.6857 25.1893Z" fill="#14181F"/>
</svg>
