<svg width="45" height="45" viewBox="0 0 45 45" fill="none" xmlns="http://www.w3.org/2000/svg">
<path d="M13.125 37.5C13.125 34.3934 17.3223 31.875 22.5 31.875C27.6777 31.875 31.875 34.3934 31.875 37.5" stroke="#14181F" stroke-width="3" stroke-linecap="round" stroke-linejoin="round"/>
<path d="M33.75 26.7178C37.0611 27.5858 39.375 29.5682 39.375 31.8748" stroke="#14181F" stroke-width="3" stroke-linecap="round" stroke-linejoin="round"/>
<path d="M11.25 26.7178C7.93893 27.5858 5.625 29.5682 5.625 31.8748" stroke="#14181F" stroke-width="3" stroke-linecap="round" stroke-linejoin="round"/>
<path d="M22.5 26.25C25.6066 26.25 28.125 23.7316 28.125 20.625C28.125 17.5184 25.6066 15 22.5 15C19.3934 15 16.875 17.5184 16.875 20.625C16.875 23.7316 19.3934 26.25 22.5 26.25Z" stroke="#14181F" stroke-width="3" stroke-linecap="round" stroke-linejoin="round"/>
<path d="M33.75 19.1927C34.9008 18.1627 35.625 16.6659 35.625 15C35.625 11.8934 33.1066 9.375 30 9.375C28.5593 9.375 27.2452 9.9166 26.25 10.8073" stroke="#14181F" stroke-width="3" stroke-linecap="round" stroke-linejoin="round"/>
<path d="M11.25 19.1927C10.0992 18.1627 9.375 16.6659 9.375 15C9.375 11.8934 11.8934 9.375 15 9.375C16.4407 9.375 17.7548 9.9166 18.75 10.8073" stroke="#14181F" stroke-width="3" stroke-linecap="round" stroke-linejoin="round"/>
</svg>
