<svg width="54" height="54" viewBox="0 0 54 54" fill="none" xmlns="http://www.w3.org/2000/svg">
<path d="M41.3443 2.53125C38.4352 2.53125 35.6452 3.68688 33.5882 5.74392C31.5311 7.80096 30.3755 10.5909 30.3755 13.5V14.1919L26.6377 24.4688H32.063V30.375H41.3443V34.5938H52.313V13.5C52.313 10.5909 51.1574 7.80096 49.1003 5.74392C47.0433 3.68688 44.2534 2.53125 41.3443 2.53125Z" fill="#63C8CD"/>
<path d="M37.4441 16.0323C36.1505 16.0317 34.9098 15.5191 33.9932 14.6063L35.1913 13.4082C35.7892 14.0049 36.5994 14.3399 37.4441 14.3399C38.2888 14.3399 39.099 14.0049 39.6969 13.4082L40.895 14.6063C39.9784 15.5191 38.7377 16.0317 37.4441 16.0323Z" fill="#1895AA"/>
<path d="M23.625 31.9106V31.2188C23.625 28.3097 22.4694 25.5197 20.4123 23.4627C18.3553 21.4056 15.5653 20.25 12.6563 20.25C9.74716 20.25 6.95721 21.4056 4.90017 23.4627C2.84313 25.5197 1.6875 28.3097 1.6875 31.2188V52.3125H12.6563V48.0938H21.9375V42.1875H27.3628L23.625 31.9106Z" fill="#EF9F35"/>
<path d="M16.5529 33.75C15.2593 33.7495 14.0186 33.2368 13.1019 32.3241L14.3422 31.1259C14.9402 31.7226 15.7503 32.0577 16.595 32.0577C17.4397 32.0577 18.2499 31.7226 18.8479 31.1259L20.046 32.3241C19.5871 32.7811 19.042 33.1424 18.4424 33.3872C17.8427 33.632 17.2005 33.7553 16.5529 33.75ZM26.9985 9.28125H28.686V10.9688H26.9985V9.28125ZM10.9672 13.5V15.6853L9.87879 14.5884L8.68066 15.7866L11.811 18.9084L14.9413 15.7866L13.7432 14.5884L12.6547 15.6853V13.5C12.6547 12.8287 12.9214 12.1848 13.3961 11.7101C13.8708 11.2354 14.5146 10.9688 15.186 10.9688H25.311V9.28125H15.186C14.0671 9.28125 12.994 9.72572 12.2029 10.5169C11.4117 11.3081 10.9672 12.3811 10.9672 13.5ZM50.3788 39.0572L47.2485 35.9353L44.1182 39.0572L45.3163 40.2553L46.4047 39.1584V43.0312C46.4047 43.7026 46.138 44.3464 45.6633 44.8211C45.1886 45.2958 44.5448 45.5625 43.8735 45.5625H26.9985V47.25H43.8735C44.9924 47.25 46.0654 46.8055 46.8566 46.0144C47.6478 45.2232 48.0922 44.1501 48.0922 43.0312V39.1584L49.1807 40.2553L50.3788 39.0572ZM23.6235 45.5625H25.311V47.25H23.6235V45.5625Z" fill="#5A5A60"/>
</svg>
