<svg width="54" height="54" viewBox="0 0 54 54" fill="none" xmlns="http://www.w3.org/2000/svg">
<path d="M22.3984 44.8985L12.6826 46.7531L2.9668 44.8985V24.4443L12.6826 22.4126L22.3984 24.4443V44.8985ZM31.6037 20.353V9.10327L41.3195 7.56934L51.0352 9.10327V29.5575L41.3195 31.1049L31.6037 29.5575V24.9556V20.353Z" fill="#ECECF1"/>
<path d="M51.0352 6.74511V9.10339H31.6037V6.74511C31.6037 5.74304 32.0017 4.78201 32.7103 4.07344C33.4189 3.36487 34.3799 2.9668 35.382 2.9668H47.2578C48.2597 2.96702 49.2205 3.36519 49.9289 4.07374C50.6373 4.78228 51.0352 5.74318 51.0352 6.74511ZM51.0352 29.5576V31.9159C51.0352 32.9179 50.6372 33.879 49.9286 34.5875C49.22 35.2961 48.259 35.6942 47.2569 35.6942H35.3811C34.3791 35.6942 33.418 35.2961 32.7095 34.5875C32.0009 33.879 31.6028 32.9179 31.6028 31.9159V29.5576H51.0352ZM22.3984 44.8986V47.2569C22.3984 47.7531 22.3006 48.2444 22.1108 48.7028C21.9209 49.1612 21.6426 49.5777 21.2917 49.9286C20.9409 50.2794 20.5244 50.5577 20.0659 50.7476C19.6075 50.9375 19.1162 51.0352 18.62 51.0352H6.74511C5.74304 51.0352 4.78201 50.6372 4.07344 49.9286C3.36487 49.22 2.9668 48.259 2.9668 47.2569V44.8986H22.3984ZM22.3984 22.0862V24.4445H2.9668V22.0862C2.9668 21.0841 3.36487 20.1231 4.07344 19.4145C4.78201 18.7059 5.74304 18.3079 6.74511 18.3079H18.6209C19.117 18.3079 19.6083 18.4056 20.0667 18.5955C20.525 18.7854 20.9415 19.0637 21.2923 19.4146C21.643 19.7654 21.9213 20.1819 22.1111 20.6403C22.3008 21.0987 22.3985 21.59 22.3984 22.0862Z" fill="#4F737C"/>
<path d="M48.4783 43.8765C49.3254 43.8765 50.0122 43.1897 50.0122 42.3425C50.0122 41.4954 49.3254 40.8086 48.4783 40.8086C47.6311 40.8086 46.9443 41.4954 46.9443 42.3425C46.9443 43.1897 47.6311 43.8765 48.4783 43.8765Z" fill="#25D9F8"/>
<path d="M39.7834 51.0345C40.3481 51.0345 40.806 50.5767 40.806 50.0119C40.806 49.4471 40.3481 48.9893 39.7834 48.9893C39.2186 48.9893 38.7607 49.4471 38.7607 50.0119C38.7607 50.5767 39.2186 51.0345 39.7834 51.0345Z" fill="#ECECF1"/>
<path d="M28.5334 42.8538C29.0981 42.8538 29.556 42.396 29.556 41.8312C29.556 41.2664 29.0981 40.8086 28.5334 40.8086C27.9686 40.8086 27.5107 41.2664 27.5107 41.8312C27.5107 42.396 27.9686 42.8538 28.5334 42.8538Z" fill="#FF641A"/>
<path d="M26.4894 13.1927C27.0542 13.1927 27.512 12.7349 27.512 12.1701C27.512 11.6053 27.0542 11.1475 26.4894 11.1475C25.9246 11.1475 25.4668 11.6053 25.4668 12.1701C25.4668 12.7349 25.9246 13.1927 26.4894 13.1927Z" fill="#ECECF1"/>
<path d="M18.8171 9.10108C19.6643 9.10108 20.3511 8.41431 20.3511 7.56714C20.3511 6.71997 19.6643 6.0332 18.8171 6.0332C17.97 6.0332 17.2832 6.71997 17.2832 7.56714C17.2832 8.41431 17.97 9.10108 18.8171 9.10108Z" fill="#25D9F8"/>
<path d="M6.03337 9.10384C6.59815 9.10384 7.05599 8.646 7.05599 8.08122C7.05599 7.51644 6.59815 7.05859 6.03337 7.05859C5.46859 7.05859 5.01074 7.51644 5.01074 8.08122C5.01074 8.646 5.46859 9.10384 6.03337 9.10384Z" fill="#4F737C"/>
<path d="M43.5753 19.6294L41.5301 17.5842C41.3358 17.4052 41.0798 17.3083 40.8156 17.3137C40.5515 17.3191 40.2997 17.4264 40.1129 17.6132C39.9261 17.8 39.8188 18.0518 39.8134 18.316C39.8079 18.5801 39.9049 18.8361 40.0839 19.0304L40.3834 19.3299H29.8871C28.715 19.3313 27.5912 19.7975 26.7623 20.6263C25.9335 21.4552 25.4672 22.579 25.4659 23.7512V32.295C25.4652 32.9249 25.2147 33.5289 24.7692 33.9743C24.3238 34.4198 23.7198 34.6703 23.0899 34.671H12.1701C11.8989 34.671 11.6388 34.7787 11.447 34.9705C11.2552 35.1623 11.1475 35.4224 11.1475 35.6936C11.1475 35.9648 11.2552 36.2249 11.447 36.4167C11.6388 36.6085 11.8989 36.7162 12.1701 36.7162H23.0899C24.2621 36.7149 25.3859 36.2486 26.2147 35.4198C27.0436 34.5909 27.5098 33.4672 27.5111 32.295V23.7512C27.5118 23.1212 27.7624 22.5173 28.2078 22.0718C28.6532 21.6264 29.2572 21.3758 29.8871 21.3752H40.3834L40.0839 21.6747C39.9049 21.869 39.8079 22.125 39.8134 22.3891C39.8188 22.6532 39.9261 22.905 40.1129 23.0918C40.2997 23.2786 40.5515 23.386 40.8156 23.3914C41.0798 23.3968 41.3358 23.2999 41.5301 23.1209L43.5753 21.0756C43.7667 20.8836 43.8741 20.6236 43.8741 20.3525C43.8741 20.0815 43.7667 19.8214 43.5753 19.6294Z" fill="#FF641A"/>
<path d="M12.1704 38.7607C13.8648 38.7607 15.2383 37.3872 15.2383 35.6929C15.2383 33.9985 13.8648 32.625 12.1704 32.625C10.4761 32.625 9.10254 33.9985 9.10254 35.6929C9.10254 37.3872 10.4761 38.7607 12.1704 38.7607Z" fill="#25D9F8"/>
</svg>
