<svg width="32" height="32" viewBox="0 0 32 32" fill="none" xmlns="http://www.w3.org/2000/svg">
<path d="M27 16C27 22.0751 22.0751 27 16 27V29C23.1797 29 29 23.1797 29 16H27ZM16 27C9.92487 27 5 22.0751 5 16H3C3 23.1797 8.8203 29 16 29V27ZM5 16C5 9.92487 9.92487 5 16 5V3C8.8203 3 3 8.8203 3 16H5ZM16 5C22.0751 5 27 9.92487 27 16H29C29 8.8203 23.1797 3 16 3V5Z" fill="#14181F"/>
<path d="M16.6259 20.7071C17.0164 21.0976 17.6496 21.0976 18.0401 20.7071C18.4306 20.3166 18.4306 19.6834 18.0401 19.2929L16.6259 20.7071ZM13.333 16L12.6259 15.2929C12.4384 15.4804 12.333 15.7348 12.333 16C12.333 16.2652 12.4384 16.5196 12.6259 16.7071L13.333 16ZM18.0401 12.7071C18.4306 12.3166 18.4306 11.6834 18.0401 11.2929C17.6496 10.9024 17.0164 10.9024 16.6259 11.2929L18.0401 12.7071ZM18.0401 19.2929L14.0401 15.2929L12.6259 16.7071L16.6259 20.7071L18.0401 19.2929ZM14.0401 16.7071L18.0401 12.7071L16.6259 11.2929L12.6259 15.2929L14.0401 16.7071Z" fill="#14181F"/>
</svg>
