<svg width="283" height="170" viewBox="0 0 283 170" fill="none" xmlns="http://www.w3.org/2000/svg">
<g clip-path="url(#clip0_4_111)">
<circle cx="150" cy="150" r="150" fill="#F0F1F8"/>
<path d="M136.909 98.9871C136.909 98.9871 131.469 75.0902 159.526 71.6849C173.004 70.0451 180.154 68.9473 183.944 68.2481C184.461 68.1529 184.992 68.174 185.499 68.3098C186.006 68.4456 186.477 68.6928 186.877 69.0333C187.277 69.3739 187.596 69.7992 187.81 70.2784C188.025 70.7577 188.131 71.2787 188.119 71.8038L188.091 73.1009C187.991 78.063 185.924 82.7823 182.346 86.2216C178.768 89.6609 173.97 91.5387 169.008 91.4422C157.617 91.1975 144.741 91.9142 142.024 96.1097" fill="#292F36"/>
<path d="M140.798 97.7455C142.682 97.2736 143.966 95.9177 143.665 94.717C143.364 93.5164 141.593 92.9256 139.709 93.3975C137.824 93.8695 136.541 95.2253 136.841 96.426C137.142 97.6266 138.913 98.2174 140.798 97.7455Z" fill="#FE5E41"/>
<path d="M118.532 129.785C104.897 121.866 92.1948 112.304 81.2446 100.92C75.8317 95.325 70.8876 89.2947 66.4624 82.8899C62.0956 76.5337 58.1588 69.737 55.2744 62.5801C53.7151 58.7343 52.9214 54.5073 54.9597 50.6684C55.5821 49.5007 58.1064 44.8926 59.7147 46.9449C59.9524 47.2421 60.3615 46.9134 60.2985 46.5953C59.8685 44.4975 61.9523 42.4942 64.0255 42.9802C64.0851 42.9966 64.148 42.997 64.2078 42.9812C64.2675 42.9654 64.3221 42.9341 64.3658 42.8904C64.4095 42.8466 64.4408 42.7921 64.4566 42.7324C64.4724 42.6726 64.472 42.6097 64.4556 42.5501C64.043 39.5329 67.9763 39.4769 69.7943 40.6062C71.483 41.6551 72.7592 43.599 73.8255 45.2283C74.8534 46.7981 75.752 48.4448 76.6225 50.102C77.179 51.2711 77.8402 52.3875 78.5979 53.4375C78.9056 53.8255 79.3636 54.3919 79.9265 54.308C80.4229 54.2346 80.9579 53.6472 81.276 53.3046C82.1886 52.3256 82.8773 51.1579 83.6884 50.095C84.3597 49.2175 85.4366 47.8015 86.7162 48.2071C88.1147 48.6511 88.73 51.0041 88.321 52.2627C87.0868 56.0387 85.3387 59.881 85.4016 63.9332C85.4366 65.9121 86.1498 67.7791 86.8316 69.6076C87.5678 71.5821 88.4165 73.5129 89.3733 75.3904C93.0899 82.6696 98.4811 88.8615 104.379 94.452C106.166 96.1442 107.998 97.7909 109.851 99.4166C111.928 101.235 114.274 102.756 116.578 104.273C118.609 105.609 120.651 107.07 122.798 108.206C124.619 109.155 126.512 109.962 128.458 110.619C128.884 110.765 129.066 110.091 128.643 109.944C126.76 109.306 124.928 108.524 123.165 107.605C121.21 106.556 119.35 105.241 117.497 104.032C115.221 102.549 112.854 101.07 110.791 99.3013C109.019 97.7839 107.295 96.2106 105.582 94.6163C99.3272 88.7636 93.5968 82.285 89.7509 74.5688C88.7517 72.5608 87.8805 70.4915 87.1427 68.3734C86.7554 67.3831 86.4513 66.3621 86.2337 65.3212C86.0594 64.1226 86.0724 62.9042 86.2722 61.7096C86.6417 59.5772 87.2106 57.4843 87.9713 55.4583C88.4888 53.9514 89.4608 52.2697 89.0971 50.6439C88.8139 49.3853 88.2126 47.8889 86.8491 47.5148C85.7582 47.2141 84.7793 47.8644 84.0521 48.6126C83.0626 49.623 82.3354 50.8572 81.4893 51.976C81.1115 52.5318 80.6477 53.0239 80.1153 53.434C79.7307 53.6962 79.6398 53.5563 79.3181 53.2032C79.0091 52.8403 78.733 52.4507 78.493 52.039C76.4477 48.7245 74.9688 45.1548 72.4235 42.1481C71.025 40.4768 69.2769 39.0014 66.9379 39.1902C65.9376 39.2495 64.9942 39.6752 64.2877 40.3859C63.7109 41.0258 63.6794 41.9278 63.7913 42.7389L64.2213 42.3089C61.6096 41.697 59.0958 44.1654 59.6342 46.7841L60.2216 46.4345C58.7182 44.536 56.7254 46.7386 55.7674 48.0392C54.1591 50.2454 53.0508 52.7557 53.0019 55.5247C52.9319 59.6293 54.8549 63.5346 56.5715 67.1602C58.3153 70.8246 60.2551 74.3924 62.3823 77.8483C71.004 91.8927 82.3704 104.217 95.1561 114.559C102.421 120.412 110.127 125.696 118.203 130.365C118.283 130.407 118.376 130.417 118.463 130.391C118.55 130.366 118.623 130.309 118.668 130.231C118.713 130.153 118.727 130.06 118.705 129.972C118.684 129.885 118.629 129.809 118.553 129.761L118.532 129.785Z" fill="#292F36"/>
<path d="M55.0084 49.376C56.2321 54.505 58.662 59.2529 61.2003 63.8365C61.4206 64.2316 62.0219 63.8784 61.8052 63.4869C59.2948 58.9417 56.8929 54.2672 55.6832 49.1907C55.5783 48.7537 54.907 48.939 55.0084 49.3795V49.376Z" fill="#292F36"/>
<path d="M59.4241 46.5296C61.1935 51.2425 63.3268 55.8108 65.8048 60.1929C65.8531 60.269 65.929 60.3235 66.0166 60.3449C66.1042 60.3664 66.1967 60.3532 66.2748 60.308C66.3528 60.2629 66.4105 60.1894 66.4356 60.1028C66.4607 60.0161 66.4514 59.9232 66.4096 59.8433C63.9638 55.5154 61.8597 51.0032 60.1163 46.3478C59.959 45.9317 59.2842 46.11 59.4416 46.5331L59.4241 46.5296Z" fill="#292F36"/>
<path d="M63.7282 42.2523C66.0067 47.2481 68.6598 52.0645 71.6647 56.6603C71.9095 57.0379 72.5143 56.6848 72.2696 56.3107C69.2647 51.7149 66.6116 46.8985 64.3331 41.9026C64.1478 41.4936 63.5429 41.8467 63.7282 42.2523V42.2523Z" fill="#292F36"/>
<path d="M72.5595 61.478C71.8777 64.0373 71.8602 66.9916 73.458 69.2362C74.0847 70.1696 74.959 70.91 75.9829 71.3744C77.0067 71.8388 78.1397 72.0088 79.2548 71.8654C79.6953 71.7989 79.51 71.1242 79.066 71.1941C76.9403 71.5157 74.8705 70.2676 73.7867 68.4635C72.5735 66.4182 72.6399 63.8904 73.2343 61.6633C73.2588 61.5738 73.2469 61.4782 73.201 61.3976C73.1551 61.3169 73.079 61.2578 72.9895 61.2333C72.9001 61.2087 72.8045 61.2207 72.7238 61.2666C72.6432 61.3125 72.5841 61.3885 72.5595 61.478V61.478Z" fill="#292F36"/>
<path d="M69.6719 66.4815C69.9155 66.271 70.1987 66.1112 70.5049 66.0115C70.8111 65.9119 71.1341 65.8743 71.455 65.9011C71.9025 65.9326 71.9025 65.2333 71.455 65.2019C71.0424 65.1752 70.6286 65.231 70.2378 65.3661C69.847 65.5011 69.487 65.7127 69.1789 65.9885C68.8293 66.2822 69.3328 66.7752 69.6719 66.4815V66.4815Z" fill="#292F36"/>
<path d="M158.728 115.535C172.664 115.776 186.52 113.521 199.862 109.574C213.203 105.626 226.048 100.053 238.443 93.739L240.687 92.5852C241.429 92.2007 242.327 91.5119 243.152 91.372C244.575 91.1378 246.281 91.5468 247.624 91.9874C250.386 92.8929 252.749 94.7249 254.707 96.8332C255.74 97.9552 256.685 99.1557 257.532 100.424C258.403 101.71 260.14 103.798 258.798 105.291C257.836 106.357 256.179 106.451 254.851 106.5C254.376 106.515 253.909 106.624 253.477 106.82C253.044 107.017 252.656 107.298 252.333 107.647C251.473 108.514 250.868 109.594 250.092 110.528C249.11 111.71 247.715 112.531 246.414 113.325C244.851 114.269 243.17 115.265 241.355 115.577C239.541 115.888 237.799 116.153 236.023 116.472C234.247 116.79 232.447 117.171 230.695 117.66C228.942 118.193 227.219 118.823 225.535 119.545C222.098 120.943 218.591 122.157 215.098 123.391C211.606 124.625 208.2 125.838 204.791 127.156C201.382 128.474 197.799 129.537 194.282 130.551C187.245 132.599 180.082 134.185 172.839 135.299C170.963 135.581 169.079 135.828 167.189 136.04C166.749 136.089 166.742 136.788 167.189 136.739C174.627 135.893 181.997 134.526 189.243 132.649C192.96 131.694 196.645 130.621 200.299 129.46C203.879 128.32 207.351 126.908 210.882 125.635C214.542 124.317 218.224 123.048 221.863 121.692C225.433 120.366 228.887 118.769 232.604 117.884C234.419 117.451 236.254 117.125 238.093 116.835C239.75 116.559 241.61 116.486 243.159 115.814C244.843 115.075 246.457 114.184 247.98 113.154C249.123 112.457 250.136 111.569 250.977 110.528C251.742 109.525 252.41 108.276 253.498 107.584C254.546 106.927 255.973 107.235 257.141 106.941C258.238 106.665 259.399 106.056 259.833 104.941C260.375 103.542 259.483 102.179 258.784 101.036C255.819 96.3367 251.505 91.6937 245.743 90.8161C245.069 90.7107 244.387 90.6592 243.705 90.6623C242.827 90.6623 242.383 90.9175 241.607 91.3231C240.024 92.1552 238.435 92.971 236.838 93.7705C233.551 95.4277 230.235 97.0243 226.888 98.5603C220.249 101.616 213.461 104.337 206.55 106.714C192.869 111.371 178.58 114.423 164.116 114.811C162.326 114.855 160.535 114.862 158.742 114.832C158.649 114.832 158.561 114.869 158.495 114.934C158.429 115 158.393 115.089 158.393 115.182C158.393 115.274 158.429 115.363 158.495 115.429C158.561 115.494 158.649 115.531 158.742 115.531L158.728 115.535Z" fill="#292F36"/>
<path d="M243.148 98.0608C244.155 98.0398 245.061 98.3824 245.596 99.281C245.945 99.8509 246.127 100.501 246.494 101.057C247.029 101.858 247.893 102.952 248.809 103.281C249.812 103.63 250.802 102.966 251.2 102.057C251.683 100.956 251.448 99.6096 251.155 98.4803C250.759 97.126 250.206 95.8224 249.508 94.596C248.956 93.5681 248.428 92.3234 247.498 91.5717C246.253 90.5683 244.001 90.5473 242.519 90.9179C242.429 90.9425 242.353 91.0016 242.308 91.0823C242.262 91.1629 242.25 91.2585 242.274 91.348C242.299 91.4375 242.358 91.5135 242.439 91.5594C242.519 91.6053 242.615 91.6173 242.704 91.5927C244.029 91.2606 246.134 91.2676 247.193 92.236C247.963 92.9353 248.421 94.0471 248.903 94.9491C249.517 96.0362 250.018 97.1831 250.399 98.3719C250.721 99.4733 251.116 101.116 250.354 102.116C249.26 103.546 247.739 101.672 247.099 100.718C246.564 99.9068 246.361 98.8964 245.634 98.2146C244.947 97.6209 244.055 97.3197 243.148 97.3755C243.056 97.3755 242.967 97.4123 242.901 97.4779C242.835 97.5435 242.799 97.6324 242.799 97.7251C242.799 97.8179 242.835 97.9068 242.901 97.9724C242.967 98.0379 243.056 98.0748 243.148 98.0748V98.0608Z" fill="#292F36"/>
<path d="M250.159 103.02C251.456 104.894 254.764 105.143 255.166 102.447C255.362 101.125 254.995 99.6709 254.613 98.4157C254.164 96.9482 253.541 95.5397 252.757 94.2202C252.706 94.1502 252.631 94.1016 252.546 94.0837C252.462 94.0659 252.373 94.0801 252.298 94.1236C252.224 94.1671 252.168 94.2368 252.141 94.3192C252.115 94.4017 252.12 94.491 252.156 94.5698C253.219 96.34 253.963 98.2831 254.355 100.311C254.512 101.174 254.76 102.541 254.113 103.276C253.166 104.345 251.456 103.681 250.764 102.678C250.509 102.311 249.904 102.657 250.159 103.027V103.02Z" fill="#292F36"/>
<path d="M253.955 104.019C255.102 105.536 257.452 105.529 258.326 103.697C259.2 101.865 257.721 100.071 257.011 98.5015C256.826 98.0925 256.225 98.4491 256.406 98.8512C256.836 99.8021 257.501 100.697 257.759 101.715C257.966 102.536 257.903 103.424 257.235 104.008C257.041 104.171 256.815 104.293 256.571 104.364C256.328 104.435 256.072 104.455 255.821 104.422C255.569 104.389 255.327 104.304 255.11 104.173C254.893 104.041 254.706 103.866 254.56 103.659C254.291 103.309 253.683 103.659 253.955 104.008V104.019Z" fill="#292F36"/>
<path d="M237.446 98.4183C238.285 98.4777 239.159 98.5721 239.799 99.1735C240.238 99.6453 240.593 100.189 240.848 100.782C241.568 102.18 242.271 103.579 242.984 104.977C243.467 105.928 245.411 108.984 243.131 109.12C241.732 109.201 240.163 108.12 239.184 107.243C238.579 106.697 237.866 105.474 236.883 105.918C236.401 106.138 236.055 106.694 235.715 107.085C235.278 107.611 234.811 108.112 234.317 108.585C233.283 109.535 231.988 110.153 230.6 110.36C229.211 110.566 227.792 110.351 226.527 109.743C226.125 109.547 225.772 110.152 226.178 110.347C227.169 110.831 228.252 111.099 229.354 111.132C230.456 111.166 231.553 110.965 232.572 110.543C233.667 110.06 234.643 109.344 235.432 108.446C235.862 107.981 236.264 107.488 236.687 107.016C236.761 106.932 236.939 106.666 237.037 106.634C237.343 106.645 237.639 106.743 237.89 106.918C238.18 107.131 238.422 107.484 238.691 107.725C239.907 108.823 242.69 110.739 244.327 109.393C245.082 108.771 245.026 107.757 244.708 106.918C244.25 105.656 243.509 104.47 242.9 103.264C242.201 101.897 241.614 100.331 240.677 99.1105C239.865 98.0617 238.715 97.7994 237.443 97.712C236.992 97.6806 236.995 98.3798 237.443 98.4113L237.446 98.4183Z" fill="#292F36"/>
<path d="M234.125 248.833C205.676 229.579 177.706 208.86 151.883 186.194C153.91 214.206 161.745 270.342 161.745 270.342L169.808 276.338C170.219 276.645 170.524 277.074 170.678 277.564C170.833 278.054 170.829 278.58 170.668 279.067C170.506 279.555 170.196 279.98 169.78 280.281C169.364 280.582 168.864 280.745 168.35 280.746H168.266L138.716 280.809C138.716 280.809 121.315 211.986 121.724 167.926C121.757 162.902 123.63 158.064 126.988 154.327C130.347 150.591 134.958 148.214 139.95 147.648C141.807 147.445 143.679 147.401 145.544 147.515C153.828 148.047 161.657 151.497 167.64 157.252C191.904 180.327 216.262 203.591 240.519 226.645C243.516 226.111 246.463 225.726 249.442 225.345C249.911 225.285 250.387 225.37 250.806 225.588C251.225 225.806 251.568 226.147 251.789 226.565C252.009 226.983 252.097 227.459 252.04 227.928C251.983 228.397 251.784 228.838 251.47 229.191C245.666 235.739 240.027 242.298 234.125 248.833V248.833Z" fill="#170C2C"/>
<path d="M153.58 136.858L151.531 137.061C145.382 137.694 139.102 138.166 132.833 138.211C132.746 138.211 132.666 138.211 132.582 138.211C132.531 138.215 132.479 138.215 132.428 138.211H132.407C131.457 138.154 130.53 137.891 129.692 137.439C128.854 136.987 128.124 136.358 127.554 135.596C126.984 134.833 126.587 133.956 126.391 133.024C126.194 132.092 126.204 131.129 126.418 130.201C126.498 129.852 126.586 129.502 126.673 129.153C126.76 128.803 126.844 128.453 126.935 128.104C127.051 127.649 127.166 127.198 127.285 126.744C128.005 124.072 128.799 121.377 130.008 118.898C130.499 117.877 131.073 116.898 131.725 115.972C131.73 115.962 131.736 115.952 131.743 115.944C134.015 112.748 137.592 110.248 141.508 110.213C145.423 110.178 148.955 112.545 151.297 115.626C153.297 118.262 154.535 121.373 155.57 124.527C155.748 125.058 155.919 125.597 156.084 126.132C156.185 126.45 156.279 126.768 156.377 127.083C156.395 127.132 156.409 127.181 156.423 127.23C156.423 127.261 156.444 127.286 156.451 127.313C156.489 127.436 156.528 127.558 156.563 127.663C156.584 127.723 156.601 127.785 156.618 127.845C156.937 128.894 157.251 129.908 157.559 130.939C157.753 131.592 157.8 132.28 157.697 132.954C157.594 133.628 157.344 134.27 156.964 134.836C156.583 135.401 156.083 135.876 155.498 136.225C154.913 136.575 154.258 136.791 153.58 136.858V136.858Z" fill="#4ECDC4"/>
<path d="M135.953 111.579C135.981 111.687 136.016 111.796 136.055 111.904C136.526 113.353 137.491 114.59 138.782 115.4C140.9 116.645 143.802 116.24 145.62 114.582C146.51 113.754 147.151 112.693 147.47 111.52" stroke="#292F36" stroke-width="0.646378" stroke-linecap="round" stroke-linejoin="round"/>
<path d="M166.842 115.059C168.109 122.122 170.477 128.942 173.859 135.27" stroke="#292F36" stroke-width="0.646378" stroke-linecap="round" stroke-linejoin="round"/>
<path d="M111.863 126.136C115.325 121.776 118.548 117.234 121.107 112.297C121.862 110.901 122.511 109.449 123.048 107.955" stroke="#292F36" stroke-width="0.646378" stroke-linecap="round" stroke-linejoin="round"/>
<path d="M148.445 100.584C148.444 100.859 148.425 101.134 148.385 101.406C148.193 102.851 147.502 104.184 146.43 105.172C145.359 106.161 143.975 106.744 142.519 106.819C141.063 106.895 139.627 106.458 138.459 105.586C137.291 104.713 136.465 103.46 136.124 102.042C136.007 101.565 135.948 101.076 135.949 100.584C135.95 99.1012 136.478 97.6667 137.438 96.5369C138.399 95.4072 139.73 94.6557 141.194 94.4169C141.521 94.3646 141.852 94.3389 142.183 94.3399C143.004 94.3386 143.816 94.4991 144.575 94.8124C145.333 95.1257 146.022 95.5855 146.603 96.1656C147.183 96.7456 147.643 97.4345 147.957 98.1927C148.271 98.951 148.432 99.7637 148.431 100.584H148.445Z" stroke="#292F36" stroke-width="0.646378" stroke-linecap="round" stroke-linejoin="round"/>
<path d="M143.713 94.8303C143.712 96.7458 142.95 98.5825 141.596 99.9369C140.241 101.291 138.405 102.053 136.489 102.054C136.367 102.054 136.245 102.054 136.14 102.054C136.023 101.576 135.964 101.087 135.965 100.596C135.967 99.6477 136.185 98.7126 136.601 97.8609C137.017 97.0093 137.622 96.2634 138.369 95.6795C139.115 95.0956 139.985 94.6891 140.912 94.4905C141.839 94.2919 142.799 94.3065 143.72 94.5332C143.709 94.6241 143.713 94.7289 143.713 94.8303V94.8303Z" fill="#292F36"/>
<path d="M148.444 100.584C148.444 100.859 148.424 101.133 148.385 101.406C148.082 101.449 147.776 101.471 147.469 101.472C145.8 101.472 144.199 100.809 143.019 99.6287C141.839 98.4485 141.176 96.8478 141.176 95.1787C141.175 94.9286 141.19 94.6787 141.221 94.4305C141.548 94.3783 141.879 94.3526 142.211 94.3536C143.031 94.3522 143.844 94.5128 144.602 94.826C145.361 95.1393 146.05 95.5992 146.63 96.1792C147.211 96.7593 147.671 97.4482 147.985 98.2064C148.298 98.9647 148.459 99.7773 148.458 100.598L148.444 100.584Z" fill="#292F36"/>
<path d="M134.926 119.67C135.019 119.572 135.084 119.452 135.115 119.32L134.846 119.628L134.926 119.67Z" fill="#FFE66D"/>
<path d="M134.843 119.463L134.511 119.75L134.689 119.624C134.619 119.792 134.496 119.933 134.34 120.026C134.508 120.015 134.682 119.645 134.843 119.463V119.463Z" fill="#FFE66D"/>
<path d="M134.493 119.622C134.461 119.559 134.311 119.793 134.279 119.877C134.353 119.786 134.461 119.706 134.493 119.622Z" fill="#FFE66D"/>
<path d="M132.111 116.391C132.099 116.448 132.075 116.503 132.041 116.551C132.1 116.499 132.142 116.446 132.111 116.391Z" fill="#FFE66D"/>
<path d="M132.044 116.551L132.004 116.588H132.026L132.044 116.551Z" fill="#FFE66D"/>
<path d="M132.254 118.422C132.307 118.373 132.363 118.327 132.363 118.39C132.344 118.387 132.324 118.389 132.305 118.394C132.286 118.4 132.269 118.409 132.254 118.422V118.422Z" fill="#FFE66D"/>
<path d="M132.982 118.624C133.332 118.347 133.371 118.722 133.71 118.512C133.521 118.753 133.493 118.596 133.36 118.697V118.868L133.122 118.896C133.087 118.949 133.056 118.998 133.021 119.043C133.072 118.955 133.109 118.859 133.133 118.76C133.105 118.694 132.989 118.722 132.982 118.624V118.624Z" fill="#FFE66D"/>
<path d="M134.196 119.674C133.528 120.191 133.255 120.023 132.951 119.946C132.916 120.006 132.871 120.062 132.874 120.086C132.476 120.177 132.301 119.894 131.825 120.149L131.878 120.072C131.797 120.016 131.609 120.289 131.476 120.334C131.542 120.261 131.616 120.24 131.685 120.1C131.685 120.069 131.448 120.156 131.521 119.939C131.378 120.055 131.304 120.222 131.172 120.289L131.343 119.992C131.238 120.023 131.283 119.894 131.105 120.023L131.046 120.194C131.046 120.023 130.801 120.194 130.902 119.901L130.832 119.999C130.832 119.632 130.658 119.404 130.644 119.107C130.472 119.072 130.423 118.789 130.147 119.002C130.228 118.911 130.242 119.002 130.332 118.831C130.332 118.586 130.032 119.034 130.018 118.89C130.508 117.869 131.082 116.89 131.734 115.964C131.769 115.964 131.811 115.964 131.895 115.873L131.731 116.104C131.937 115.985 131.979 116.191 132.259 115.929C132.063 116.174 132.185 116.121 132.234 116.139L131.986 116.412C132.109 116.342 131.885 116.656 131.986 116.604C131.921 116.647 131.864 116.702 131.818 116.765C131.769 116.964 132.056 116.562 131.962 116.817L132.143 116.544C131.99 116.925 132.102 116.796 132.032 117.083C132.173 116.895 132.328 116.719 132.497 116.555C132.43 116.677 132.29 116.866 132.413 116.814C132.459 116.753 132.492 116.682 132.507 116.607C132.706 116.558 132.972 116.488 132.99 116.712C132.818 116.817 132.829 116.992 132.713 117.139L132.906 117.118C132.761 117.184 132.621 117.26 132.486 117.345C132.315 117.646 131.986 117.96 132 118.114C132.136 117.992 132.136 117.873 132.266 117.8C132.21 117.922 132.266 117.915 132.29 117.929C132.196 118.027 132.107 118.131 132.025 118.24C132.07 118.261 132.22 118.093 132.29 118.002C132.255 118.062 132.171 118.149 132.164 118.219C132.157 118.289 132.395 117.964 132.465 117.869C132.402 118.016 132.115 118.492 132.434 118.146L132.112 118.513C132.129 118.513 132.178 118.488 132.231 118.446C132.16 118.506 132.103 118.58 132.063 118.663C132.329 118.422 131.993 119.048 132.378 118.586L132.028 119.041C132.081 119.16 132.283 118.751 132.427 118.691C132.357 118.737 132.301 118.862 132.238 118.89C132.154 119.027 132.196 119.09 132.262 119.09C132.525 119.09 132.528 119.383 132.962 119.114C132.929 119.158 132.903 119.206 132.885 119.257C133.066 119.373 133.5 118.932 133.584 119.188C133.399 119.485 133.678 119.25 133.584 119.481C134.122 119.062 134.003 119.653 134.196 119.674V119.674Z" fill="#FFE66D"/>
<path d="M133.963 118.244L134.113 118.01L133.921 118.104C133.819 118.31 133.952 118.167 133.963 118.244V118.244Z" fill="#FFE66D"/>
<path d="M133.445 118.922L133.567 118.846L133.484 118.815L133.445 118.922Z" fill="#FFE66D"/>
<path d="M132.674 117.831L132.66 117.873L132.954 117.789L132.674 117.831Z" fill="#FFE66D"/>
<path d="M132.279 116.159C132.38 116.051 132.373 116.12 132.446 116.051L132.293 116.117L132.279 116.159Z" fill="#FFE66D"/>
<path d="M150.663 116.345C150.611 116.222 150.526 116.116 150.418 116.037L150.6 116.408L150.663 116.345Z" fill="#FFE66D"/>
<path d="M150.435 116.346L150.579 116.758L150.526 116.545C150.669 116.675 150.761 116.853 150.785 117.045C150.824 116.877 150.547 116.576 150.435 116.346V116.346Z" fill="#FFE66D"/>
<path d="M150.453 116.74C150.387 116.74 150.548 116.971 150.614 117.034C150.555 116.932 150.523 116.8 150.453 116.74Z" fill="#FFE66D"/>
<path d="M146.59 117.944C146.641 117.974 146.687 118.012 146.725 118.058C146.698 117.985 146.659 117.93 146.59 117.944Z" fill="#FFE66D"/>
<path d="M146.734 118.059L146.756 118.105C146.756 118.105 146.756 118.105 146.756 118.08L146.734 118.059Z" fill="#FFE66D"/>
<path d="M149.736 120C149.666 119.798 149.771 119.882 149.768 119.773L149.998 120.032C149.998 119.903 149.851 119.78 149.785 119.609C149.96 119.749 149.946 119.514 149.977 119.511C150.045 119.593 150.099 119.687 150.135 119.787C150.135 119.647 149.935 119.385 150.009 119.326L150.065 119.399C149.974 118.868 150.288 118.808 150.334 118.41C150.309 118.41 150.271 118.34 150.229 118.287C150.39 118.029 150.645 117.843 150.404 117.039C150.32 117.193 149.806 116.882 150.005 117.476C149.823 117.305 149.942 117.647 149.733 117.371C149.463 117.371 149.733 117.927 149.561 118.071C149.469 117.978 149.388 117.875 149.32 117.763L149.365 117.532L149.205 117.476C149.156 117.326 149.31 117.354 149.149 117.092C149.229 117.48 148.869 117.382 149.009 117.812C149.103 117.84 149.114 117.724 149.187 117.703C149.291 117.768 149.381 117.853 149.453 117.952C149.558 118.462 149.285 118.364 149.205 118.609C149.184 118.672 149.11 118.689 149.009 118.563C149.009 118.497 148.904 118.403 148.879 118.322C148.9 118.48 149.229 118.805 149.096 118.815L148.775 118.35C149.093 118.861 148.603 118.35 148.75 118.672C148.593 118.504 148.554 118.368 148.596 118.322C148.481 118.284 148.673 118.553 148.624 118.577L148.38 118.158C148.607 118.563 148.243 118.158 148.121 118.043C148.191 118.137 148.432 118.417 148.359 118.438C148.296 118.406 148.236 118.298 148.191 118.249C148.257 118.347 148.366 118.536 148.338 118.574C148.259 118.461 148.187 118.345 148.121 118.224C148.096 118.252 148.093 118.294 147.991 118.203C148.019 118.35 148.135 118.389 148.208 118.553C148.061 118.518 147.859 118.109 147.628 117.854C147.589 117.697 147.56 117.538 147.54 117.378L147.502 117.574C147.394 117.417 147.226 117.375 147.177 117.179C146.953 117.13 146.939 117.406 146.922 117.613C146.989 117.651 147.047 117.703 147.093 117.766C147.093 117.899 146.964 117.707 146.869 117.609C146.977 117.818 147.1 118.019 147.236 118.21C146.981 118.06 147.072 118.21 146.75 117.948L146.96 118.203C146.743 118.036 147.044 118.431 146.869 118.326C146.821 118.263 146.784 118.192 146.761 118.116C146.761 118.238 146.541 117.938 146.572 118.074L146.383 117.759C146.352 117.801 146.362 117.934 146.187 117.675C146.355 118.025 146.142 118.004 146.187 118.238L146.013 118.015C146.187 118.319 145.841 118.133 146.069 118.483L145.988 118.399L146.149 118.749C146.089 118.749 145.827 118.42 145.901 118.511C145.862 118.64 145.813 118.714 145.663 118.651C145.897 118.952 145.876 119.102 145.838 119.2C145.348 119.312 145.229 119.899 145.24 120.497C145.205 120.549 145.436 120.913 145.509 121.098C145.642 121.098 145.509 120.958 145.579 120.895C145.795 121.023 145.999 121.168 146.191 121.329L145.95 121.116C145.838 120.864 146.11 121.196 145.95 120.909L146.299 121.291C146.138 121.081 146.331 121.2 146.439 121.291L146.215 121.011C146.397 121.108 146.562 121.233 146.705 121.381L146.478 121.144C146.631 121.284 146.61 120.972 146.939 121.43C146.901 121.364 146.796 121.231 146.848 121.235L147.072 121.472C147.051 121.378 147.051 121.294 147.184 121.42C147.244 121.527 147.316 121.628 147.397 121.721C147.589 121.626 146.698 120.895 146.838 120.745L146.978 120.906L146.862 120.707L147.079 120.874C146.652 120.284 147.324 120.749 147.159 120.382C147.159 120.308 147.481 120.595 147.509 120.504L147.296 120.259C147.565 120.465 147.894 120.462 148.425 121.007C148.313 120.773 148.376 120.958 148.212 120.759C148.093 120.409 148.425 120.808 148.596 120.916C148.551 120.742 148.474 120.857 148.348 120.64C148.596 120.759 148.17 120.266 148.418 120.343C148.544 120.479 148.47 120.465 148.533 120.57C148.404 120.249 148.68 120.287 148.761 120.14C149.053 120.161 149.343 120.198 149.631 120.252L149.565 120.154C149.813 120.35 149.715 120.067 149.876 120.119L149.736 120Z" fill="#FFE66D"/>
<path d="M148.978 116.748L148.807 116.527L148.831 116.741C148.988 116.905 148.898 116.73 148.978 116.748Z" fill="#FFE66D"/>
<path d="M149.435 117.464L149.403 117.328L149.348 117.391L149.435 117.464Z" fill="#FFE66D"/>
<path d="M148.152 117.832L148.187 117.86L148.201 117.553L148.152 117.832Z" fill="#FFE66D"/>
<path d="M146.425 117.718C146.352 117.59 146.425 117.617 146.373 117.523V117.69L146.425 117.718Z" fill="#FFE66D"/>
<path d="M145.006 117.416C145.303 117.825 144.946 117.458 145.279 117.766C145.268 117.678 145.1 117.556 145.006 117.416Z" fill="#FFE66D"/>
<path d="M145.318 118.115C145.353 118.115 145.318 118.035 145.283 117.969C145.106 117.826 145.273 118.021 145.318 118.115Z" fill="#FFE66D"/>
<path d="M134.266 129.565C134.354 129.661 134.463 129.736 134.584 129.785L134.29 129.498L134.266 129.565Z" fill="#FFE66D"/>
<path d="M134.451 129.522L134.175 129.19L134.297 129.365C134.139 129.28 134.007 129.153 133.916 128.998C133.93 129.145 134.276 129.355 134.451 129.522Z" fill="#FFE66D"/>
<path d="M134.294 129.194C134.349 129.177 134.129 129.005 134.049 128.967C134.125 129.048 134.207 129.124 134.294 129.194V129.194Z" fill="#FFE66D"/>
<path d="M137.216 127.665C137.161 127.643 137.111 127.612 137.066 127.574C137.119 127.637 137.167 127.682 137.216 127.665Z" fill="#FFE66D"/>
<path d="M137.068 127.578L137.039 127.537V127.559L137.068 127.578Z" fill="#FFE66D"/>
<path d="M133.86 126.152C133.982 126.33 133.86 126.268 133.898 126.365L133.615 126.166C133.664 126.282 133.822 126.372 133.93 126.516C133.731 126.414 133.815 126.628 133.787 126.635C133.702 126.572 133.627 126.497 133.566 126.411C133.608 126.537 133.864 126.743 133.811 126.809L133.741 126.75C133.986 127.215 133.724 127.323 133.818 127.691C133.843 127.691 133.891 127.739 133.951 127.781C133.895 128.037 133.734 128.253 134.234 128.918C134.234 128.767 134.797 128.953 134.419 128.463C134.636 128.586 134.419 128.302 134.689 128.512C134.923 128.47 134.503 128.016 134.608 127.876C134.719 127.945 134.823 128.025 134.919 128.114L134.954 128.327L135.115 128.351C135.206 128.477 135.066 128.474 135.293 128.68C135.091 128.351 135.437 128.39 135.171 128.026C135.08 128.026 135.112 128.121 135.052 128.149C134.94 128.105 134.835 128.043 134.741 127.967C134.482 127.526 134.741 127.575 134.741 127.344C134.741 127.285 134.797 127.26 134.926 127.344C134.951 127.404 135.066 127.474 135.112 127.544C135.045 127.404 134.668 127.156 134.762 127.131L135.189 127.505C134.755 127.093 135.339 127.505 135.112 127.215C135.3 127.348 135.374 127.463 135.353 127.512C135.465 127.533 135.217 127.316 135.252 127.288L135.601 127.638C135.28 127.306 135.724 127.638 135.86 127.715C135.772 127.635 135.475 127.414 135.535 127.39C135.607 127.431 135.675 127.48 135.738 127.537C135.65 127.46 135.496 127.302 135.51 127.264C135.613 127.354 135.711 127.45 135.804 127.551C135.804 127.523 135.804 127.481 135.923 127.551C135.853 127.421 135.745 127.4 135.629 127.264C135.769 127.264 136.063 127.614 136.328 127.82C136.468 128.016 136.472 128.121 136.549 128.229L136.524 128.054C136.664 128.183 136.821 128.208 136.923 128.372C137.129 128.397 137.059 128.156 137.014 127.974C136.943 127.945 136.878 127.903 136.821 127.851C136.772 127.736 136.947 127.893 137.059 127.974C136.904 127.798 136.74 127.631 136.566 127.474C136.832 127.586 136.713 127.474 137.063 127.67L136.811 127.46C137.045 127.593 136.675 127.264 136.856 127.348C136.915 127.4 136.966 127.458 137.01 127.523C136.961 127.414 137.251 127.666 137.185 127.547L137.437 127.813C137.454 127.774 137.405 127.659 137.629 127.876C137.388 127.582 137.577 127.586 137.468 127.383L137.681 127.572C137.447 127.316 137.797 127.46 137.507 127.163L137.601 127.233L137.367 126.921C137.416 126.921 137.734 127.198 137.646 127.121C137.646 127.005 137.671 126.939 137.818 126.991C137.538 126.733 137.521 126.6 137.531 126.512C137.937 126.4 137.905 125.883 137.783 125.352C137.68 125.164 137.563 124.984 137.433 124.813C137.314 124.813 137.454 124.939 137.405 124.995C137.185 124.883 136.972 124.755 136.769 124.614L137.028 124.803C137.178 125.026 136.863 124.733 137.073 124.988L136.682 124.638C136.87 124.827 136.682 124.726 136.556 124.638L136.814 124.883C136.629 124.799 136.455 124.69 136.297 124.561L136.549 124.771C136.381 124.652 136.461 124.932 136.07 124.526C136.119 124.586 136.237 124.705 136.192 124.705L135.94 124.495C135.975 124.582 135.993 124.659 135.846 124.551C135.77 124.454 135.684 124.365 135.591 124.285C135.43 124.383 136.381 125.005 136.29 125.149L136.129 125.009L136.276 125.184L136.042 125.044C136.559 125.558 135.846 125.173 136.077 125.495C136.098 125.561 135.727 125.324 135.727 125.407L135.979 125.617C135.689 125.446 135.388 125.477 134.776 125.026C134.933 125.233 134.832 125.068 135.028 125.236C135.22 125.537 134.822 125.212 134.64 125.128C134.72 125.285 134.766 125.17 134.93 125.359C134.678 125.275 135.185 125.68 134.93 125.635C134.78 125.526 134.853 125.526 134.769 125.439C134.965 125.722 134.706 125.715 134.671 125.858C134.398 125.82 134.185 125.932 133.846 125.858L133.937 125.939C133.657 125.796 133.822 126.04 133.664 126.016L133.86 126.152Z" fill="#FFE66D"/>
<path d="M135.545 128.949L135.765 129.12L135.674 128.935C135.482 128.813 135.618 128.953 135.545 128.949V128.949Z" fill="#FFE66D"/>
<path d="M134.908 128.387L134.981 128.502L135.009 128.439L134.908 128.387Z" fill="#FFE66D"/>
<path d="M135.898 127.896L135.859 127.875L135.943 128.148L135.898 127.896Z" fill="#FFE66D"/>
<path d="M137.43 127.856C137.531 127.963 137.468 127.942 137.531 128.019L137.471 127.876L137.43 127.856Z" fill="#FFE66D"/>
<path d="M138.742 128.066C138.375 127.716 138.781 128.027 138.41 127.758C138.445 127.845 138.62 127.947 138.742 128.066Z" fill="#FFE66D"/>
<path d="M138.282 127.467C138.258 127.467 138.303 127.536 138.352 127.592C138.547 127.714 138.348 127.533 138.282 127.467Z" fill="#FFE66D"/>
<path d="M152.73 134.715C152.835 134.666 152.884 134.509 152.926 134.365L152.629 134.648L152.73 134.715Z" fill="#FFE66D"/>
<path d="M152.604 134.459L152.229 134.7L152.436 134.602C152.405 134.689 152.354 134.768 152.288 134.832C152.222 134.896 152.142 134.944 152.055 134.973C152.254 135.004 152.429 134.627 152.604 134.459Z" fill="#FFE66D"/>
<path d="M152.184 134.547C152.138 134.47 151.977 134.697 151.949 134.788C152.037 134.701 152.163 134.638 152.184 134.547Z" fill="#FFE66D"/>
<path d="M149.099 130.156C149.083 130.215 149.055 130.27 149.016 130.316C149.089 130.275 149.137 130.229 149.099 130.156Z" fill="#FFE66D"/>
<path d="M149.017 130.33L148.971 130.352H148.996L149.017 130.33Z" fill="#FFE66D"/>
<path d="M148.009 133.956C148.219 133.865 148.173 134.002 148.299 133.995L148.11 134.285C148.261 134.267 148.334 134.1 148.509 134.016C148.432 134.236 148.708 134.215 148.729 134.257C148.649 134.393 148.558 134.393 148.481 134.456C148.645 134.456 148.859 134.197 148.967 134.292L148.908 134.362C149.491 134.225 149.736 134.61 150.226 134.628C150.226 134.596 150.271 134.547 150.31 134.488C150.694 134.659 151.061 134.946 151.827 134.53C151.607 134.46 151.677 133.809 151.128 134.128C151.226 133.89 150.897 134.075 151.1 133.778C150.96 133.46 150.46 133.837 150.226 133.645C150.226 133.568 150.362 133.456 150.46 133.327L150.747 133.362L150.726 133.163C150.872 133.089 150.918 133.274 151.131 133.051C150.733 133.194 150.673 132.757 150.25 132.963C150.25 133.079 150.404 133.079 150.46 133.166C150.442 133.294 150.39 133.415 150.31 133.516C149.775 133.687 149.747 133.348 149.421 133.26C149.341 133.24 149.282 133.152 149.383 133.023C149.456 133.023 149.519 132.886 149.6 132.855C149.428 132.89 149.198 133.288 149.128 133.138L149.523 132.729C149.075 133.135 149.453 132.526 149.135 132.712C149.261 132.516 149.4 132.467 149.484 132.512C149.484 132.376 149.254 132.614 149.201 132.558L149.579 132.247C149.212 132.537 149.533 132.082 149.603 131.935C149.519 132.019 149.303 132.323 149.254 132.233C149.254 132.159 149.362 132.082 149.4 132.026C149.317 132.11 149.142 132.247 149.086 132.212C149.184 132.082 149.282 132.061 149.397 131.942C149.352 131.914 149.299 131.911 149.362 131.789C149.208 131.827 149.212 131.963 149.051 132.058C149.03 131.879 149.421 131.635 149.614 131.359C149.845 131.257 149.991 131.292 150.117 131.233L149.883 131.201C150.019 131.068 150.005 130.869 150.205 130.803C150.18 130.544 149.855 130.54 149.624 130.526C149.607 130.603 149.568 130.674 149.512 130.729C149.366 130.747 149.533 130.579 149.614 130.467C149.415 130.596 149.229 130.743 149.058 130.908C149.135 130.607 149.005 130.715 149.184 130.338L148.967 130.582C149.082 130.327 148.736 130.684 148.796 130.474C148.855 130.42 148.924 130.377 148.998 130.348C148.862 130.369 149.128 130.093 148.981 130.131L149.278 129.908C149.222 129.873 149.075 129.89 149.313 129.684C148.963 129.88 148.928 129.631 148.677 129.684L148.876 129.485C148.586 129.684 148.691 129.285 148.359 129.54L148.432 129.446L148.061 129.621C148.037 129.551 148.348 129.271 148.261 129.338C148.103 129.292 148.005 129.229 148.037 129.058C147.757 129.317 147.575 129.278 147.453 129.229C147.191 128.645 146.485 128.453 145.782 128.366C145.712 128.32 145.331 128.534 145.125 128.589C145.149 128.747 145.296 128.621 145.383 128.708C145.383 128.848 145.128 129.149 145.013 129.38L145.212 129.121C145.485 129.03 145.153 129.306 145.453 129.149L145.086 129.499C145.299 129.334 145.208 129.551 145.142 129.673L145.418 129.443C145.354 129.644 145.246 129.829 145.104 129.985L145.331 129.743C145.205 129.915 145.576 129.939 145.118 130.268C145.184 130.233 145.32 130.128 145.331 130.191L145.107 130.429C145.219 130.429 145.324 130.429 145.208 130.582C145.096 130.636 144.993 130.708 144.904 130.796C145.093 131.058 145.701 130.079 145.922 130.25L145.771 130.401L145.978 130.289L145.845 130.533C146.422 130.082 146.083 130.852 146.471 130.694C146.558 130.694 146.324 131.068 146.45 131.121L146.666 130.876C146.513 131.187 146.638 131.603 146.191 132.219C146.436 132.1 146.229 132.159 146.408 131.974C146.778 131.855 146.436 132.236 146.376 132.446C146.572 132.407 146.397 132.296 146.61 132.159C146.569 132.46 146.992 131.963 147.002 132.271C146.894 132.418 146.873 132.323 146.775 132.397C147.124 132.261 147.184 132.603 147.397 132.712C147.432 133.061 147.656 133.386 147.687 133.813L147.771 133.729C147.659 134.04 147.957 133.921 147.974 134.124L148.009 133.956Z" fill="#FFE66D"/>
<path d="M151.411 132.833L151.575 132.609L151.348 132.662C151.243 132.868 151.39 132.742 151.411 132.833V132.833Z" fill="#FFE66D"/>
<path d="M150.832 133.455L150.971 133.403L150.87 133.344L150.832 133.455Z" fill="#FFE66D"/>
<path d="M149.817 131.973L149.803 132.018L150.156 132.015L149.817 131.973Z" fill="#FFE66D"/>
<path d="M149.299 129.953C149.421 129.866 149.41 129.953 149.501 129.891L149.316 129.912L149.299 129.953Z" fill="#FFE66D"/>
<path d="M149.236 128.334C148.855 128.666 149.173 128.268 148.887 128.638C149.013 128.628 149.104 128.442 149.236 128.334Z" fill="#FFE66D"/>
<path d="M148.535 128.676C148.553 128.717 148.622 128.676 148.688 128.641C148.806 128.443 148.626 128.627 148.535 128.676Z" fill="#FFE66D"/>
<path d="M156.582 127.657C156.764 127.895 156.956 128.139 156.865 128.171C156.79 128.075 156.723 127.974 156.666 127.867L156.638 127.839C156.543 127.741 156.547 127.814 156.568 127.895L156.358 127.643C156.316 127.643 156.414 127.769 156.449 127.835C156.138 127.37 156.173 127.65 156.033 127.503L156.239 127.755C156.11 127.596 155.961 127.455 155.795 127.335L156.008 127.629C155.907 127.534 155.736 127.395 155.89 127.629L155.564 127.223C155.725 127.51 155.47 127.16 155.585 127.405L155.802 127.643C155.63 127.464 155.447 127.297 155.253 127.143C155.201 127.185 155.316 127.335 155.204 127.307C155.102 127.119 155.014 126.922 154.942 126.72C154.897 126.192 154.942 125.695 155.334 125.671C155.358 125.598 155.362 125.465 155.131 125.157C155.264 125.241 155.295 125.185 155.313 125.077C155.358 125.133 155.512 125.321 155.547 125.325L155.369 124.975L155.449 125.063C155.215 124.713 155.526 124.933 155.341 124.64L155.515 124.863C155.442 124.647 155.617 124.695 155.432 124.363C155.557 124.538 155.582 124.535 155.589 124.507C155.767 125.038 155.938 125.577 156.103 126.111C156.204 126.43 156.299 126.748 156.396 127.062C156.396 127.08 156.396 127.122 156.442 127.209C156.47 127.259 156.502 127.307 156.536 127.353L156.47 127.293L156.337 127.171L156.449 127.367L156.316 127.199C156.274 127.255 156.421 127.451 156.582 127.657V127.657Z" fill="#FFE66D"/>
<path d="M154.436 123.953C154.733 124.362 154.394 123.981 154.708 124.303C154.684 124.226 154.534 124.093 154.436 123.953Z" fill="#FFE66D"/>
<path d="M154.781 124.616C154.809 124.616 154.781 124.55 154.736 124.484C154.572 124.327 154.732 124.529 154.781 124.616Z" fill="#FFE66D"/>
<path d="M134.702 135.512C134.398 136.212 133.975 136.883 133.303 137.03C133.233 137.119 133.195 137.229 133.195 137.343C133.195 137.456 133.233 137.566 133.303 137.656C133.139 137.586 133.041 137.677 132.954 137.827C132.915 137.768 132.786 137.558 132.726 137.565L132.786 137.974L132.716 137.886C132.81 138.124 132.716 138.145 132.632 138.205C132.581 138.208 132.529 138.208 132.478 138.205V138.177C132.48 138.185 132.48 138.193 132.478 138.201C130.92 138.117 129.446 137.471 128.328 136.383C128.391 136.32 128.451 136.264 128.608 136.383L128.548 136.278C128.992 136.348 129.401 136.198 129.765 136.24C129.947 136.051 130.321 136.058 130.283 135.684C130.331 135.799 130.227 135.799 130.342 135.942C130.66 135.998 130.286 135.464 130.583 135.572C130.51 135.327 130.338 135.477 130.363 135.271C130.555 135.38 130.842 135.81 130.835 135.411C130.702 135.187 130.699 135.411 130.653 135.135C131.143 135.722 131.608 135.684 131.877 135.908L131.699 135.631C131.793 135.519 132.101 135.834 132.129 135.747C132.087 135.32 132.772 135.827 132.478 135.152L132.684 135.338L132.636 135.107L132.744 135.289C132.992 135.103 132.171 134.285 132.496 134.152C132.557 134.261 132.6 134.379 132.622 134.502C132.74 134.649 132.786 134.544 132.81 134.432L132.989 134.708C133.059 134.708 132.989 134.551 132.989 134.478C133.191 135.005 133.338 134.638 133.464 134.799L133.286 134.523C133.406 134.698 133.565 134.843 133.751 134.946L133.593 134.621C133.702 134.715 133.901 134.852 133.793 134.621L134.058 135.068C133.985 134.719 134.17 135.121 134.16 134.824L133.954 134.572C134.156 134.736 134.394 135.051 134.534 135.079C134.653 135.009 134.565 134.838 134.737 134.845C134.667 135.026 134.775 135.453 134.702 135.512V135.512Z" fill="#FFE66D"/>
<path d="M129.027 127.837C129.092 127.724 129.133 127.597 129.146 127.467L128.957 127.816L129.027 127.837Z" fill="#FFE66D"/>
<path d="M128.932 127.67L128.695 128.02L128.828 127.852C128.793 128.029 128.711 128.193 128.59 128.327C128.723 128.278 128.821 127.883 128.932 127.67Z" fill="#FFE66D"/>
<path d="M128.661 127.918C128.629 127.869 128.535 128.131 128.518 128.219C128.575 128.124 128.623 128.023 128.661 127.918Z" fill="#FFE66D"/>
<path d="M127.448 127.662L127.36 127.883C127.4 127.77 127.422 127.652 127.427 127.533C127.381 127.488 127.291 127.55 127.27 127.46C127.521 127.089 127.619 127.428 127.85 127.131C127.731 127.411 127.686 127.274 127.598 127.404L127.63 127.564L127.448 127.662Z" fill="#FFE66D"/>
<path d="M128.41 128.054C127.931 128.732 127.686 128.655 127.431 128.687C127.408 128.737 127.394 128.79 127.389 128.844C127.116 129.03 126.941 128.89 126.672 129.124C126.756 128.774 126.843 128.425 126.934 128.075C127.039 128.1 127.13 128.145 127.354 127.879C127.331 127.927 127.317 127.977 127.312 128.03C127.476 128.079 127.77 127.54 127.882 127.746C127.77 128.075 127.969 127.771 127.924 128.016C128.284 127.509 128.277 128.089 128.41 128.054V128.054Z" fill="#FFE66D"/>
<path d="M128.028 126.799L128.115 126.537L127.968 126.684C127.919 126.904 128.003 126.729 128.028 126.799Z" fill="#FFE66D"/>
<path d="M127.703 127.586L127.79 127.482L127.717 127.475L127.703 127.586Z" fill="#FFE66D"/>
<path d="M119.471 33.055C119.471 31.3242 119.815 29.6107 120.483 28.0142C121.151 26.4177 122.13 24.9699 123.363 23.7552C124.596 22.5406 126.058 21.5831 127.665 20.9387C129.271 20.2943 130.989 19.9757 132.72 20.0014C139.766 20.1033 145.504 25.8651 145.579 32.9126C145.616 35.8075 144.684 38.6318 142.932 40.9368C140.544 44.0542 139.102 47.793 138.78 51.7071C138.741 52.2055 138.722 52.707 138.722 53.2115V56.299H126.327V53.3932C126.327 52.8292 126.305 52.2672 126.259 51.7071C125.965 47.8274 124.551 44.1164 122.189 41.0248C120.424 38.7435 119.467 35.9396 119.471 33.055V33.055Z" fill="#FFE66D"/>
<path d="M135.57 40.0645C135.785 40.0645 135.991 40.1499 136.143 40.3018C136.295 40.4537 136.381 40.6597 136.381 40.8746V56.2992C136.381 56.5155 136.295 56.7228 136.142 56.8757C135.989 57.0286 135.782 57.1145 135.565 57.1145C135.349 57.1145 135.142 57.0286 134.989 56.8757C134.836 56.7228 134.75 56.5155 134.75 56.2992V40.8792C134.749 40.7716 134.77 40.6649 134.811 40.5654C134.852 40.4659 134.913 40.3755 134.989 40.2997C135.066 40.2238 135.156 40.164 135.256 40.1236C135.356 40.0832 135.463 40.0631 135.57 40.0645Z" fill="#FE5E41"/>
<path d="M129.522 40.0645C129.736 40.0645 129.943 40.1499 130.094 40.3018C130.246 40.4537 130.332 40.6597 130.332 40.8746V56.2992C130.332 56.5155 130.246 56.7228 130.093 56.8757C129.94 57.0286 129.733 57.1145 129.516 57.1145C129.3 57.1145 129.093 57.0286 128.94 56.8757C128.787 56.7228 128.701 56.5155 128.701 56.2992V40.8792C128.701 40.7716 128.721 40.6649 128.762 40.5654C128.804 40.4659 128.864 40.3755 128.94 40.2997C129.017 40.2238 129.108 40.164 129.207 40.1236C129.307 40.0832 129.414 40.0631 129.522 40.0645V40.0645Z" fill="#FE5E41"/>
<path d="M126.028 53.2969H139.064C139.21 53.2963 139.354 53.3291 139.485 53.393C139.616 53.4568 139.731 53.5499 139.82 53.6651C139.909 53.7802 139.971 53.9144 140.001 54.0572C140.03 54.2 140.026 54.3477 139.99 54.4888L139.663 55.7386L137.741 63.1622L137.294 64.89C137.242 65.095 137.122 65.2766 136.954 65.406C136.787 65.5353 136.58 65.605 136.369 65.604H128.719C128.508 65.6046 128.302 65.5348 128.134 65.4055C127.967 65.2762 127.847 65.0948 127.794 64.89L127.346 63.1622L125.429 55.7386L125.105 54.4923C125.068 54.3512 125.064 54.2036 125.093 54.0607C125.122 53.9178 125.184 53.7834 125.273 53.6679C125.362 53.5525 125.476 53.459 125.607 53.3947C125.738 53.3303 125.882 53.2969 126.028 53.2969V53.2969Z" fill="#292F36"/>
<path d="M125.43 55.7402H139.664L137.741 63.1638H127.351L125.43 55.7402Z" fill="#FE5E41"/>
<path d="M125.315 57.332H139.78C140.056 57.332 140.321 57.4418 140.517 57.6371C140.712 57.8324 140.822 58.0973 140.822 58.3735V60.5375C140.822 60.6743 140.795 60.8097 140.742 60.9361C140.69 61.0625 140.613 61.1773 140.517 61.274C140.42 61.3707 140.305 61.4474 140.179 61.4998C140.052 61.5521 139.917 61.579 139.78 61.579H125.315C125.039 61.579 124.774 61.4693 124.578 61.274C124.383 61.0787 124.273 60.8138 124.273 60.5375V58.3701C124.274 58.0944 124.384 57.8304 124.58 57.6359C124.775 57.4413 125.039 57.332 125.315 57.332V57.332Z" fill="#292F36"/>
<path d="M135.57 24.0306C135.648 24.0301 135.726 24.041 135.801 24.0631C141.052 25.5674 142.028 30.8513 142.068 31.0747C142.105 31.2877 142.056 31.5068 141.932 31.6839C141.808 31.861 141.619 31.9815 141.406 32.019C141.193 32.0564 140.974 32.0077 140.796 31.8836C140.619 31.7594 140.499 31.57 140.461 31.357C140.428 31.1673 139.603 26.8439 135.352 25.6299C135.154 25.5856 134.979 25.4681 134.863 25.3009C134.747 25.1336 134.698 24.9289 134.727 24.7273C134.755 24.5258 134.858 24.3422 135.015 24.2131C135.172 24.084 135.372 24.0189 135.576 24.0306H135.57Z" fill="#FCFCFC"/>
</g>
<defs>
<clipPath id="clip0_4_111">
<rect width="283" height="170" fill="white"/>
</clipPath>
</defs>
</svg>
