<svg width="134" height="48" viewBox="0 0 134 48" fill="none" xmlns="http://www.w3.org/2000/svg">
<path d="M0 24C0 10.7452 10.7452 0 24 0H110C123.255 0 134 10.7452 134 24C134 37.2548 123.255 48 110 48H24C10.7452 48 0 37.2548 0 24Z" fill="#492FA6"/>
<path d="M22.396 29.14C21.864 29.14 21.3693 29.07 20.912 28.93C20.464 28.79 20.0533 28.58 19.68 28.3C19.316 28.0107 18.9893 27.656 18.7 27.236L19.736 26.046C20.1933 26.6993 20.632 27.152 21.052 27.404C21.472 27.656 21.9713 27.782 22.55 27.782C22.9047 27.782 23.2267 27.726 23.516 27.614C23.8053 27.502 24.034 27.348 24.202 27.152C24.37 26.956 24.454 26.732 24.454 26.48C24.454 26.312 24.426 26.1533 24.37 26.004C24.314 25.8547 24.2253 25.7193 24.104 25.598C23.992 25.4767 23.8427 25.3647 23.656 25.262C23.4787 25.1593 23.2687 25.0707 23.026 24.996C22.7833 24.912 22.5033 24.842 22.186 24.786C21.682 24.6833 21.2433 24.548 20.87 24.38C20.4967 24.212 20.184 24.002 19.932 23.75C19.68 23.498 19.4933 23.2133 19.372 22.896C19.2507 22.5693 19.19 22.2053 19.19 21.804C19.19 21.412 19.274 21.048 19.442 20.712C19.6193 20.376 19.8573 20.0867 20.156 19.844C20.464 19.592 20.8233 19.4007 21.234 19.27C21.6447 19.13 22.088 19.06 22.564 19.06C23.068 19.06 23.53 19.1253 23.95 19.256C24.37 19.3867 24.7433 19.5827 25.07 19.844C25.3967 20.096 25.6673 20.4087 25.882 20.782L24.818 21.832C24.6313 21.524 24.4213 21.2673 24.188 21.062C23.9547 20.8473 23.698 20.6887 23.418 20.586C23.138 20.474 22.8393 20.418 22.522 20.418C22.158 20.418 21.8407 20.474 21.57 20.586C21.2993 20.698 21.0847 20.8567 20.926 21.062C20.7767 21.258 20.702 21.4913 20.702 21.762C20.702 21.958 20.7393 22.14 20.814 22.308C20.8887 22.4667 21.0007 22.6113 21.15 22.742C21.3087 22.8633 21.5187 22.9753 21.78 23.078C22.0413 23.1713 22.354 23.2553 22.718 23.33C23.2313 23.442 23.6887 23.5867 24.09 23.764C24.4913 23.932 24.832 24.1327 25.112 24.366C25.392 24.5993 25.602 24.8607 25.742 25.15C25.8913 25.4393 25.966 25.752 25.966 26.088C25.966 26.7133 25.8213 27.2547 25.532 27.712C25.2427 28.1693 24.832 28.524 24.3 28.776C23.768 29.0187 23.1333 29.14 22.396 29.14ZM28.6543 29V19.774H30.0963V29H28.6543ZM27.1283 23.05V21.65H31.8043V23.05H27.1283ZM35.877 29.14C35.2703 29.14 34.715 28.972 34.211 28.636C33.7163 28.3 33.3197 27.8427 33.021 27.264C32.7223 26.6853 32.573 26.032 32.573 25.304C32.573 24.5667 32.7223 23.9133 33.021 23.344C33.329 22.7653 33.7397 22.3127 34.253 21.986C34.7757 21.6593 35.359 21.496 36.003 21.496C36.3857 21.496 36.7357 21.552 37.053 21.664C37.3703 21.776 37.6457 21.9347 37.879 22.14C38.1217 22.336 38.3177 22.5647 38.467 22.826C38.6257 23.0873 38.7237 23.3673 38.761 23.666L38.439 23.554V21.65H39.895V29H38.439V27.25L38.775 27.152C38.719 27.404 38.6023 27.6513 38.425 27.894C38.257 28.1273 38.0377 28.3373 37.767 28.524C37.5057 28.7107 37.2117 28.86 36.885 28.972C36.5677 29.084 36.2317 29.14 35.877 29.14ZM36.255 27.81C36.6937 27.81 37.081 27.7027 37.417 27.488C37.753 27.2733 38.0143 26.9793 38.201 26.606C38.397 26.2233 38.495 25.7893 38.495 25.304C38.495 24.828 38.397 24.4033 38.201 24.03C38.0143 23.6567 37.753 23.3627 37.417 23.148C37.081 22.9333 36.6937 22.826 36.255 22.826C35.8257 22.826 35.443 22.9333 35.107 23.148C34.7803 23.3627 34.519 23.6567 34.323 24.03C34.1363 24.4033 34.043 24.828 34.043 25.304C34.043 25.7893 34.1363 26.2233 34.323 26.606C34.519 26.9793 34.7803 27.2733 35.107 27.488C35.443 27.7027 35.8257 27.81 36.255 27.81ZM41.9084 29V21.65H43.3644V23.96L43.2244 23.4C43.3271 23.0453 43.4997 22.7233 43.7424 22.434C43.9944 22.1447 44.2791 21.916 44.5964 21.748C44.9231 21.58 45.2591 21.496 45.6044 21.496C45.7631 21.496 45.9124 21.51 46.0524 21.538C46.2017 21.566 46.3184 21.5987 46.4024 21.636L46.0244 23.204C45.9124 23.1573 45.7864 23.12 45.6464 23.092C45.5157 23.0547 45.3851 23.036 45.2544 23.036C45.0024 23.036 44.7597 23.0873 44.5264 23.19C44.3024 23.2833 44.1017 23.4187 43.9244 23.596C43.7564 23.764 43.6211 23.9647 43.5184 24.198C43.4157 24.422 43.3644 24.6693 43.3644 24.94V29H41.9084ZM48.7383 29V19.774H50.1803V29H48.7383ZM47.2123 23.05V21.65H51.8883V23.05H47.2123ZM57.4892 29V19.2H59.0012V27.544H63.5932V29H57.4892ZM68.6626 29.14C67.9066 29.14 67.2346 28.9813 66.6466 28.664C66.0679 28.3373 65.6106 27.894 65.2746 27.334C64.9479 26.774 64.7846 26.13 64.7846 25.402C64.7846 24.8233 64.8779 24.296 65.0646 23.82C65.2513 23.344 65.5079 22.9333 65.8346 22.588C66.1706 22.2333 66.5673 21.9627 67.0246 21.776C67.4913 21.58 67.9953 21.482 68.5366 21.482C69.0126 21.482 69.4559 21.5753 69.8666 21.762C70.2773 21.9393 70.6319 22.1867 70.9306 22.504C71.2386 22.8213 71.4719 23.1993 71.6306 23.638C71.7986 24.0673 71.8779 24.5387 71.8686 25.052L71.8546 25.668H65.8486L65.5266 24.52H70.6086L70.3986 24.758V24.422C70.3706 24.114 70.2679 23.8387 70.0906 23.596C69.9133 23.3533 69.6893 23.162 69.4186 23.022C69.1479 22.882 68.8539 22.812 68.5366 22.812C68.0326 22.812 67.6079 22.91 67.2626 23.106C66.9173 23.2927 66.6559 23.5727 66.4786 23.946C66.3013 24.31 66.2126 24.7627 66.2126 25.304C66.2126 25.8173 66.3199 26.2653 66.5346 26.648C66.7493 27.0213 67.0526 27.3107 67.4446 27.516C67.8366 27.7213 68.2893 27.824 68.8026 27.824C69.1666 27.824 69.5026 27.7633 69.8106 27.642C70.1279 27.5207 70.4686 27.3013 70.8326 26.984L71.5606 28.006C71.3366 28.23 71.0613 28.426 70.7346 28.594C70.4173 28.762 70.0766 28.8973 69.7126 29C69.3579 29.0933 69.0079 29.14 68.6626 29.14ZM76.2637 29.14C75.6571 29.14 75.1017 28.972 74.5977 28.636C74.1031 28.3 73.7064 27.8427 73.4077 27.264C73.1091 26.6853 72.9597 26.032 72.9597 25.304C72.9597 24.5667 73.1091 23.9133 73.4077 23.344C73.7157 22.7653 74.1264 22.3127 74.6397 21.986C75.1624 21.6593 75.7457 21.496 76.3897 21.496C76.7724 21.496 77.1224 21.552 77.4397 21.664C77.7571 21.776 78.0324 21.9347 78.2657 22.14C78.5084 22.336 78.7044 22.5647 78.8537 22.826C79.0124 23.0873 79.1104 23.3673 79.1477 23.666L78.8257 23.554V21.65H80.2817V29H78.8257V27.25L79.1617 27.152C79.1057 27.404 78.9891 27.6513 78.8117 27.894C78.6437 28.1273 78.4244 28.3373 78.1537 28.524C77.8924 28.7107 77.5984 28.86 77.2717 28.972C76.9544 29.084 76.6184 29.14 76.2637 29.14ZM76.6417 27.81C77.0804 27.81 77.4677 27.7027 77.8037 27.488C78.1397 27.2733 78.4011 26.9793 78.5877 26.606C78.7837 26.2233 78.8817 25.7893 78.8817 25.304C78.8817 24.828 78.7837 24.4033 78.5877 24.03C78.4011 23.6567 78.1397 23.3627 77.8037 23.148C77.4677 22.9333 77.0804 22.826 76.6417 22.826C76.2124 22.826 75.8297 22.9333 75.4937 23.148C75.1671 23.3627 74.9057 23.6567 74.7097 24.03C74.5231 24.4033 74.4297 24.828 74.4297 25.304C74.4297 25.7893 74.5231 26.2233 74.7097 26.606C74.9057 26.9793 75.1671 27.2733 75.4937 27.488C75.8297 27.7027 76.2124 27.81 76.6417 27.81ZM82.2951 29V21.65H83.7511V23.96L83.6111 23.4C83.7138 23.0453 83.8864 22.7233 84.1291 22.434C84.3811 22.1447 84.6658 21.916 84.9831 21.748C85.3098 21.58 85.6458 21.496 85.9911 21.496C86.1498 21.496 86.2991 21.51 86.4391 21.538C86.5884 21.566 86.7051 21.5987 86.7891 21.636L86.4111 23.204C86.2991 23.1573 86.1731 23.12 86.0331 23.092C85.9024 23.0547 85.7718 23.036 85.6411 23.036C85.3891 23.036 85.1464 23.0873 84.9131 23.19C84.6891 23.2833 84.4884 23.4187 84.3111 23.596C84.1431 23.764 84.0078 23.9647 83.9051 24.198C83.8024 24.422 83.7511 24.6693 83.7511 24.94V29H82.2951ZM87.9416 29V21.65H89.3836V23.162L89.1316 23.33C89.2249 23.0033 89.4069 22.7047 89.6776 22.434C89.9483 22.154 90.2703 21.93 90.6436 21.762C91.0169 21.5847 91.3996 21.496 91.7916 21.496C92.3516 21.496 92.8183 21.608 93.1916 21.832C93.5649 22.0467 93.8449 22.378 94.0316 22.826C94.2183 23.274 94.3116 23.8387 94.3116 24.52V29H92.8696V24.618C92.8696 24.198 92.8136 23.8527 92.7016 23.582C92.5896 23.302 92.4169 23.1013 92.1836 22.98C91.9503 22.8493 91.6609 22.7933 91.3156 22.812C91.0356 22.812 90.7789 22.8587 90.5456 22.952C90.3123 23.036 90.1069 23.1573 89.9296 23.316C89.7616 23.4747 89.6263 23.6613 89.5236 23.876C89.4303 24.0813 89.3836 24.3053 89.3836 24.548V29H88.6696C88.5483 29 88.4269 29 88.3056 29C88.1843 29 88.0629 29 87.9416 29ZM96.5058 29V21.65H97.9478V29H96.5058ZM97.2058 20.026C96.8978 20.026 96.6598 19.9467 96.4918 19.788C96.3238 19.6293 96.2398 19.4053 96.2398 19.116C96.2398 18.8453 96.3238 18.626 96.4918 18.458C96.6691 18.29 96.9071 18.206 97.2058 18.206C97.5138 18.206 97.7518 18.2853 97.9198 18.444C98.0878 18.6027 98.1718 18.8267 98.1718 19.116C98.1718 19.3867 98.0831 19.606 97.9058 19.774C97.7378 19.942 97.5044 20.026 97.2058 20.026ZM100.164 29V21.65H101.606V23.162L101.354 23.33C101.448 23.0033 101.63 22.7047 101.9 22.434C102.171 22.154 102.493 21.93 102.866 21.762C103.24 21.5847 103.622 21.496 104.014 21.496C104.574 21.496 105.041 21.608 105.414 21.832C105.788 22.0467 106.068 22.378 106.254 22.826C106.441 23.274 106.534 23.8387 106.534 24.52V29H105.092V24.618C105.092 24.198 105.036 23.8527 104.924 23.582C104.812 23.302 104.64 23.1013 104.406 22.98C104.173 22.8493 103.884 22.7933 103.538 22.812C103.258 22.812 103.002 22.8587 102.768 22.952C102.535 23.036 102.33 23.1573 102.152 23.316C101.984 23.4747 101.849 23.6613 101.746 23.876C101.653 24.0813 101.606 24.3053 101.606 24.548V29H100.892C100.771 29 100.65 29 100.528 29C100.407 29 100.286 29 100.164 29ZM111.78 32.22C111.258 32.22 110.735 32.136 110.212 31.968C109.699 31.8093 109.284 31.5993 108.966 31.338L109.498 30.218C109.685 30.358 109.904 30.4793 110.156 30.582C110.408 30.694 110.674 30.778 110.954 30.834C111.234 30.8993 111.51 30.932 111.78 30.932C112.294 30.932 112.723 30.848 113.068 30.68C113.414 30.512 113.675 30.2647 113.852 29.938C114.03 29.6113 114.118 29.2053 114.118 28.72V27.306L114.272 27.404C114.226 27.6933 114.072 27.9733 113.81 28.244C113.558 28.5053 113.241 28.72 112.858 28.888C112.476 29.056 112.084 29.14 111.682 29.14C110.982 29.14 110.357 28.9767 109.806 28.65C109.265 28.314 108.836 27.8613 108.518 27.292C108.201 26.7133 108.042 26.0553 108.042 25.318C108.042 24.5807 108.196 23.9273 108.504 23.358C108.822 22.7793 109.251 22.3267 109.792 22C110.343 21.664 110.959 21.496 111.64 21.496C111.92 21.496 112.191 21.5333 112.452 21.608C112.714 21.6733 112.956 21.7713 113.18 21.902C113.404 22.0233 113.605 22.1587 113.782 22.308C113.96 22.4573 114.104 22.616 114.216 22.784C114.328 22.952 114.398 23.1107 114.426 23.26L114.118 23.372V21.65H115.56V28.552C115.56 29.14 115.472 29.658 115.294 30.106C115.126 30.5633 114.879 30.946 114.552 31.254C114.226 31.5713 113.829 31.8093 113.362 31.968C112.896 32.136 112.368 32.22 111.78 32.22ZM111.836 27.81C112.294 27.81 112.7 27.7027 113.054 27.488C113.409 27.2733 113.684 26.9793 113.88 26.606C114.076 26.2327 114.174 25.8033 114.174 25.318C114.174 24.8327 114.072 24.4033 113.866 24.03C113.67 23.6473 113.395 23.3487 113.04 23.134C112.695 22.9193 112.294 22.812 111.836 22.812C111.388 22.812 110.987 22.924 110.632 23.148C110.287 23.3627 110.012 23.6613 109.806 24.044C109.61 24.4173 109.512 24.842 109.512 25.318C109.512 25.794 109.61 26.2233 109.806 26.606C110.012 26.9793 110.287 27.2733 110.632 27.488C110.987 27.7027 111.388 27.81 111.836 27.81Z" fill="#FCFCFC"/>
</svg>
