<svg width="70" height="25" viewBox="0 0 70 25" fill="none" xmlns="http://www.w3.org/2000/svg">
<rect width="70" height="25" rx="12.5" fill="#6A6287"/>
<path d="M16.736 17V8.6H20.024C20.512 8.6 20.952 8.716 21.344 8.948C21.744 9.172 22.06 9.48 22.292 9.872C22.524 10.264 22.64 10.708 22.64 11.204C22.64 11.668 22.528 12.088 22.304 12.464C22.08 12.84 21.776 13.14 21.392 13.364C21.008 13.58 20.576 13.688 20.096 13.688H17.672V17H16.736ZM21.86 17L19.748 13.304L20.648 12.992L22.976 17H21.86ZM17.672 12.776H20.18C20.476 12.776 20.736 12.708 20.96 12.572C21.184 12.436 21.36 12.252 21.488 12.02C21.616 11.78 21.68 11.508 21.68 11.204C21.68 10.876 21.604 10.584 21.452 10.328C21.3 10.072 21.088 9.872 20.816 9.728C20.552 9.584 20.248 9.512 19.904 9.512H17.672V12.776ZM26.8235 17.12C26.1995 17.12 25.6435 16.984 25.1555 16.712C24.6755 16.44 24.2995 16.06 24.0275 15.572C23.7555 15.084 23.6195 14.524 23.6195 13.892C23.6195 13.404 23.6955 12.964 23.8475 12.572C23.9995 12.172 24.2115 11.824 24.4835 11.528C24.7635 11.232 25.0955 11.004 25.4795 10.844C25.8635 10.676 26.2795 10.592 26.7275 10.592C27.1515 10.592 27.5355 10.668 27.8795 10.82C28.2315 10.972 28.5315 11.184 28.7795 11.456C29.0355 11.72 29.2275 12.036 29.3555 12.404C29.4835 12.772 29.5395 13.176 29.5235 13.616L29.5115 14.036H24.2915L24.1595 13.28H28.8275L28.6115 13.484V13.196C28.5955 12.908 28.5115 12.632 28.3595 12.368C28.2075 12.096 27.9915 11.876 27.7115 11.708C27.4395 11.54 27.1115 11.456 26.7275 11.456C26.2795 11.456 25.8915 11.548 25.5635 11.732C25.2355 11.908 24.9835 12.172 24.8075 12.524C24.6315 12.876 24.5435 13.312 24.5435 13.832C24.5435 14.328 24.6395 14.76 24.8315 15.128C25.0235 15.488 25.2955 15.768 25.6475 15.968C26.0075 16.168 26.4395 16.268 26.9435 16.268C27.2395 16.268 27.5315 16.22 27.8195 16.124C28.1155 16.02 28.4395 15.82 28.7915 15.524L29.2595 16.172C29.0755 16.356 28.8555 16.52 28.5995 16.664C28.3435 16.8 28.0635 16.912 27.7595 17C27.4555 17.08 27.1435 17.12 26.8235 17.12ZM30.8018 19.64V10.736H31.7018L31.7258 12.26L31.5578 12.284C31.6298 11.98 31.7858 11.704 32.0258 11.456C32.2658 11.2 32.5578 10.996 32.9018 10.844C33.2458 10.692 33.6098 10.616 33.9938 10.616C34.5538 10.616 35.0538 10.756 35.4938 11.036C35.9418 11.316 36.2978 11.7 36.5618 12.188C36.8258 12.676 36.9578 13.236 36.9578 13.868C36.9578 14.492 36.8298 15.048 36.5738 15.536C36.3178 16.024 35.9658 16.412 35.5178 16.7C35.0698 16.98 34.5658 17.12 34.0058 17.12C33.6138 17.12 33.2418 17.04 32.8898 16.88C32.5378 16.72 32.2378 16.512 31.9898 16.256C31.7418 15.992 31.5778 15.708 31.4978 15.404H31.7138V19.64H30.8018ZM33.8618 16.256C34.2858 16.256 34.6618 16.152 34.9898 15.944C35.3178 15.736 35.5778 15.452 35.7698 15.092C35.9618 14.732 36.0578 14.324 36.0578 13.868C36.0578 13.404 35.9618 12.992 35.7698 12.632C35.5778 12.272 35.3178 11.988 34.9898 11.78C34.6618 11.572 34.2858 11.468 33.8618 11.468C33.4378 11.468 33.0578 11.572 32.7218 11.78C32.3938 11.98 32.1338 12.26 31.9418 12.62C31.7498 12.98 31.6538 13.392 31.6538 13.856C31.6538 14.32 31.7498 14.732 31.9418 15.092C32.1338 15.452 32.3938 15.736 32.7218 15.944C33.0578 16.152 33.4378 16.256 33.8618 16.256ZM38.2906 17V8.12H39.1906V17H38.2906ZM43.2928 17.12C42.7488 17.12 42.2568 16.98 41.8168 16.7C41.3768 16.412 41.0288 16.024 40.7728 15.536C40.5168 15.04 40.3888 14.48 40.3888 13.856C40.3888 13.224 40.5208 12.664 40.7848 12.176C41.0488 11.688 41.4008 11.304 41.8408 11.024C42.2888 10.744 42.7888 10.604 43.3408 10.604C43.6688 10.604 43.9728 10.652 44.2528 10.748C44.5328 10.844 44.7808 10.98 44.9968 11.156C45.2208 11.324 45.4048 11.524 45.5488 11.756C45.7008 11.98 45.8048 12.224 45.8608 12.488L45.5968 12.356L45.6328 10.736H46.5328V17H45.6208V15.464L45.8608 15.308C45.8048 15.548 45.6968 15.78 45.5368 16.004C45.3768 16.22 45.1808 16.412 44.9488 16.58C44.7248 16.748 44.4688 16.88 44.1808 16.976C43.9008 17.072 43.6048 17.12 43.2928 17.12ZM43.4967 16.256C43.9128 16.256 44.2848 16.156 44.6128 15.956C44.9408 15.748 45.1968 15.464 45.3808 15.104C45.5728 14.736 45.6688 14.32 45.6688 13.856C45.6688 13.392 45.5728 12.98 45.3808 12.62C45.1968 12.26 44.9408 11.976 44.6128 11.768C44.2848 11.56 43.9128 11.456 43.4967 11.456C43.0728 11.456 42.6968 11.56 42.3688 11.768C42.0488 11.976 41.7928 12.26 41.6008 12.62C41.4168 12.98 41.3248 13.392 41.3248 13.856C41.3248 14.312 41.4168 14.724 41.6008 15.092C41.7848 15.452 42.0408 15.736 42.3688 15.944C42.6968 16.152 43.0728 16.256 43.4967 16.256ZM49.2015 19.76L50.4135 16.808L50.4975 17.66L47.3535 10.736H48.3735L50.5215 15.536C50.5855 15.664 50.6495 15.816 50.7135 15.992C50.7775 16.16 50.8375 16.328 50.8935 16.496L50.5575 16.46C50.6135 16.324 50.6655 16.184 50.7135 16.04C50.7695 15.896 50.8215 15.756 50.8695 15.62L52.7535 10.736H53.7855L51.2535 17L50.1735 19.76H49.2015Z" fill="#FCFCFC"/>
</svg>
