<svg width="171" height="48" viewBox="0 0 171 48" fill="none" xmlns="http://www.w3.org/2000/svg">
<path d="M0 24C0 10.7452 10.7452 0 24 0H147C160.255 0 171 10.7452 171 24C171 37.2548 160.255 48 147 48H24C10.7452 48 0 37.2548 0 24Z" fill="#FCFCFC"/>
<path d="M23.348 29.14C22.6667 29.14 22.0413 29.0187 21.472 28.776C20.9027 28.5333 20.408 28.188 19.988 27.74C19.568 27.2827 19.2413 26.746 19.008 26.13C18.784 25.514 18.672 24.8373 18.672 24.1C18.672 23.4 18.7933 22.7513 19.036 22.154C19.288 21.5473 19.6333 21.0153 20.072 20.558C20.5107 20.1007 21.0193 19.746 21.598 19.494C22.1767 19.242 22.802 19.116 23.474 19.116C23.95 19.116 24.412 19.1907 24.86 19.34C25.3173 19.48 25.728 19.6807 26.092 19.942C26.4653 20.194 26.7687 20.4833 27.002 20.81L25.994 21.86C25.7233 21.5893 25.448 21.3653 25.168 21.188C24.8973 21.0013 24.6173 20.8613 24.328 20.768C24.048 20.6747 23.7633 20.628 23.474 20.628C23.0167 20.628 22.5873 20.7167 22.186 20.894C21.794 21.062 21.4487 21.3 21.15 21.608C20.8607 21.916 20.632 22.2847 20.464 22.714C20.296 23.134 20.212 23.596 20.212 24.1C20.212 24.632 20.2913 25.1173 20.45 25.556C20.618 25.9853 20.8513 26.354 21.15 26.662C21.4487 26.97 21.8033 27.208 22.214 27.376C22.634 27.5347 23.096 27.614 23.6 27.614C23.908 27.614 24.2113 27.572 24.51 27.488C24.8087 27.404 25.0887 27.2827 25.35 27.124C25.6113 26.9653 25.8493 26.7787 26.064 26.564L26.82 27.796C26.6053 28.048 26.3113 28.2767 25.938 28.482C25.574 28.6873 25.1633 28.8507 24.706 28.972C24.258 29.084 23.8053 29.14 23.348 29.14ZM28.51 29V21.65H29.966V23.96L29.826 23.4C29.9286 23.0453 30.1013 22.7233 30.344 22.434C30.596 22.1447 30.8806 21.916 31.198 21.748C31.5246 21.58 31.8606 21.496 32.206 21.496C32.3646 21.496 32.514 21.51 32.654 21.538C32.8033 21.566 32.92 21.5987 33.004 21.636L32.626 23.204C32.514 23.1573 32.388 23.12 32.248 23.092C32.1173 23.0547 31.9866 23.036 31.856 23.036C31.604 23.036 31.3613 23.0873 31.128 23.19C30.904 23.2833 30.7033 23.4187 30.526 23.596C30.358 23.764 30.2226 23.9647 30.12 24.198C30.0173 24.422 29.966 24.6693 29.966 24.94V29H28.51ZM37.272 29.14C36.516 29.14 35.844 28.9813 35.256 28.664C34.6773 28.3373 34.22 27.894 33.884 27.334C33.5573 26.774 33.394 26.13 33.394 25.402C33.394 24.8233 33.4873 24.296 33.674 23.82C33.8607 23.344 34.1173 22.9333 34.444 22.588C34.78 22.2333 35.1767 21.9627 35.634 21.776C36.1007 21.58 36.6047 21.482 37.146 21.482C37.622 21.482 38.0653 21.5753 38.476 21.762C38.8867 21.9393 39.2413 22.1867 39.54 22.504C39.848 22.8213 40.0813 23.1993 40.24 23.638C40.408 24.0673 40.4873 24.5387 40.478 25.052L40.464 25.668H34.458L34.136 24.52H39.218L39.008 24.758V24.422C38.98 24.114 38.8773 23.8387 38.7 23.596C38.5227 23.3533 38.2987 23.162 38.028 23.022C37.7573 22.882 37.4633 22.812 37.146 22.812C36.642 22.812 36.2173 22.91 35.872 23.106C35.5267 23.2927 35.2653 23.5727 35.088 23.946C34.9107 24.31 34.822 24.7627 34.822 25.304C34.822 25.8173 34.9293 26.2653 35.144 26.648C35.3587 27.0213 35.662 27.3107 36.054 27.516C36.446 27.7213 36.8987 27.824 37.412 27.824C37.776 27.824 38.112 27.7633 38.42 27.642C38.7373 27.5207 39.078 27.3013 39.442 26.984L40.17 28.006C39.946 28.23 39.6707 28.426 39.344 28.594C39.0267 28.762 38.686 28.8973 38.322 29C37.9673 29.0933 37.6173 29.14 37.272 29.14ZM44.8731 29.14C44.2664 29.14 43.7111 28.972 43.2071 28.636C42.7124 28.3 42.3158 27.8427 42.0171 27.264C41.7184 26.6853 41.5691 26.032 41.5691 25.304C41.5691 24.5667 41.7184 23.9133 42.0171 23.344C42.3251 22.7653 42.7358 22.3127 43.2491 21.986C43.7718 21.6593 44.3551 21.496 44.9991 21.496C45.3818 21.496 45.7318 21.552 46.0491 21.664C46.3664 21.776 46.6418 21.9347 46.8751 22.14C47.1178 22.336 47.3138 22.5647 47.4631 22.826C47.6218 23.0873 47.7198 23.3673 47.7571 23.666L47.4351 23.554V21.65H48.8911V29H47.4351V27.25L47.7711 27.152C47.7151 27.404 47.5984 27.6513 47.4211 27.894C47.2531 28.1273 47.0338 28.3373 46.7631 28.524C46.5018 28.7107 46.2078 28.86 45.8811 28.972C45.5638 29.084 45.2278 29.14 44.8731 29.14ZM45.2511 27.81C45.6898 27.81 46.0771 27.7027 46.4131 27.488C46.7491 27.2733 47.0104 26.9793 47.1971 26.606C47.3931 26.2233 47.4911 25.7893 47.4911 25.304C47.4911 24.828 47.3931 24.4033 47.1971 24.03C47.0104 23.6567 46.7491 23.3627 46.4131 23.148C46.0771 22.9333 45.6898 22.826 45.2511 22.826C44.8218 22.826 44.4391 22.9333 44.1031 23.148C43.7764 23.3627 43.5151 23.6567 43.3191 24.03C43.1324 24.4033 43.0391 24.828 43.0391 25.304C43.0391 25.7893 43.1324 26.2233 43.3191 26.606C43.5151 26.9793 43.7764 27.2733 44.1031 27.488C44.4391 27.7027 44.8218 27.81 45.2511 27.81ZM51.8145 29V19.774H53.2565V29H51.8145ZM50.2885 23.05V21.65H54.9645V23.05H50.2885ZM59.6392 29.14C58.8832 29.14 58.2112 28.9813 57.6232 28.664C57.0445 28.3373 56.5872 27.894 56.2512 27.334C55.9245 26.774 55.7612 26.13 55.7612 25.402C55.7612 24.8233 55.8545 24.296 56.0412 23.82C56.2278 23.344 56.4845 22.9333 56.8112 22.588C57.1472 22.2333 57.5438 21.9627 58.0012 21.776C58.4678 21.58 58.9718 21.482 59.5132 21.482C59.9892 21.482 60.4325 21.5753 60.8432 21.762C61.2538 21.9393 61.6085 22.1867 61.9072 22.504C62.2152 22.8213 62.4485 23.1993 62.6072 23.638C62.7752 24.0673 62.8545 24.5387 62.8452 25.052L62.8312 25.668H56.8252L56.5032 24.52H61.5852L61.3752 24.758V24.422C61.3472 24.114 61.2445 23.8387 61.0672 23.596C60.8898 23.3533 60.6658 23.162 60.3952 23.022C60.1245 22.882 59.8305 22.812 59.5132 22.812C59.0092 22.812 58.5845 22.91 58.2392 23.106C57.8938 23.2927 57.6325 23.5727 57.4552 23.946C57.2778 24.31 57.1892 24.7627 57.1892 25.304C57.1892 25.8173 57.2965 26.2653 57.5112 26.648C57.7258 27.0213 58.0292 27.3107 58.4212 27.516C58.8132 27.7213 59.2658 27.824 59.7792 27.824C60.1432 27.824 60.4792 27.7633 60.7872 27.642C61.1045 27.5207 61.4452 27.3013 61.8092 26.984L62.5372 28.006C62.3132 28.23 62.0378 28.426 61.7112 28.594C61.3938 28.762 61.0532 28.8973 60.6892 29C60.3345 29.0933 59.9845 29.14 59.6392 29.14ZM71.7241 29.14C71.1921 29.14 70.6975 29.07 70.2401 28.93C69.7921 28.79 69.3815 28.58 69.0081 28.3C68.6441 28.0107 68.3175 27.656 68.0281 27.236L69.0641 26.046C69.5215 26.6993 69.9601 27.152 70.3801 27.404C70.8001 27.656 71.2995 27.782 71.8781 27.782C72.2328 27.782 72.5548 27.726 72.8441 27.614C73.1335 27.502 73.3621 27.348 73.5301 27.152C73.6981 26.956 73.7821 26.732 73.7821 26.48C73.7821 26.312 73.7541 26.1533 73.6981 26.004C73.6421 25.8547 73.5535 25.7193 73.4321 25.598C73.3201 25.4767 73.1708 25.3647 72.9841 25.262C72.8068 25.1593 72.5968 25.0707 72.3541 24.996C72.1115 24.912 71.8315 24.842 71.5141 24.786C71.0101 24.6833 70.5715 24.548 70.1981 24.38C69.8248 24.212 69.5121 24.002 69.2601 23.75C69.0081 23.498 68.8215 23.2133 68.7001 22.896C68.5788 22.5693 68.5181 22.2053 68.5181 21.804C68.5181 21.412 68.6021 21.048 68.7701 20.712C68.9475 20.376 69.1855 20.0867 69.4841 19.844C69.7921 19.592 70.1515 19.4007 70.5621 19.27C70.9728 19.13 71.4161 19.06 71.8921 19.06C72.3961 19.06 72.8581 19.1253 73.2781 19.256C73.6981 19.3867 74.0715 19.5827 74.3981 19.844C74.7248 20.096 74.9955 20.4087 75.2101 20.782L74.1461 21.832C73.9595 21.524 73.7495 21.2673 73.5161 21.062C73.2828 20.8473 73.0261 20.6887 72.7461 20.586C72.4661 20.474 72.1675 20.418 71.8501 20.418C71.4861 20.418 71.1688 20.474 70.8981 20.586C70.6275 20.698 70.4128 20.8567 70.2541 21.062C70.1048 21.258 70.0301 21.4913 70.0301 21.762C70.0301 21.958 70.0675 22.14 70.1421 22.308C70.2168 22.4667 70.3288 22.6113 70.4781 22.742C70.6368 22.8633 70.8468 22.9753 71.1081 23.078C71.3695 23.1713 71.6821 23.2553 72.0461 23.33C72.5595 23.442 73.0168 23.5867 73.4181 23.764C73.8195 23.932 74.1601 24.1327 74.4401 24.366C74.7201 24.5993 74.9301 24.8607 75.0701 25.15C75.2195 25.4393 75.2941 25.752 75.2941 26.088C75.2941 26.7133 75.1495 27.2547 74.8601 27.712C74.5708 28.1693 74.1601 28.524 73.6281 28.776C73.0961 29.0187 72.4615 29.14 71.7241 29.14ZM77.0725 32.08V21.65H78.5285V23.33L78.3045 23.204C78.3605 22.924 78.5191 22.658 78.7805 22.406C79.0418 22.1447 79.3591 21.9347 79.7325 21.776C80.1151 21.608 80.5071 21.524 80.9085 21.524C81.5711 21.524 82.1591 21.6873 82.6725 22.014C83.1858 22.3407 83.5918 22.7887 83.8905 23.358C84.1891 23.9273 84.3385 24.5807 84.3385 25.318C84.3385 26.046 84.1891 26.6993 83.8905 27.278C83.6011 27.8473 83.1998 28.3 82.6865 28.636C82.1731 28.9627 81.5945 29.126 80.9505 29.126C80.5211 29.126 80.1058 29.042 79.7045 28.874C79.3031 28.6967 78.9625 28.4727 78.6825 28.202C78.4025 27.9313 78.2298 27.6513 78.1645 27.362L78.5285 27.166V32.08H77.0725ZM80.7125 27.796C81.1418 27.796 81.5245 27.6887 81.8605 27.474C82.1965 27.2593 82.4625 26.9653 82.6585 26.592C82.8545 26.2187 82.9525 25.794 82.9525 25.318C82.9525 24.842 82.8545 24.422 82.6585 24.058C82.4718 23.6847 82.2105 23.3907 81.8745 23.176C81.5385 22.9613 81.1511 22.854 80.7125 22.854C80.2738 22.854 79.8865 22.9613 79.5505 23.176C79.2145 23.3813 78.9485 23.6707 78.7525 24.044C78.5565 24.4173 78.4585 24.842 78.4585 25.318C78.4585 25.794 78.5565 26.2187 78.7525 26.592C78.9485 26.9653 79.2145 27.2593 79.5505 27.474C79.8865 27.6887 80.2738 27.796 80.7125 27.796ZM85.9045 29V21.65H87.3605V23.96L87.2205 23.4C87.3232 23.0453 87.4958 22.7233 87.7385 22.434C87.9905 22.1447 88.2752 21.916 88.5925 21.748C88.9192 21.58 89.2552 21.496 89.6005 21.496C89.7592 21.496 89.9085 21.51 90.0485 21.538C90.1978 21.566 90.3145 21.5987 90.3985 21.636L90.0205 23.204C89.9085 23.1573 89.7825 23.12 89.6425 23.092C89.5118 23.0547 89.3812 23.036 89.2505 23.036C88.9985 23.036 88.7558 23.0873 88.5225 23.19C88.2985 23.2833 88.0978 23.4187 87.9205 23.596C87.7525 23.764 87.6172 23.9647 87.5145 24.198C87.4118 24.422 87.3605 24.6693 87.3605 24.94V29H85.9045ZM91.789 29V21.65H93.231V29H91.789ZM92.489 20.026C92.181 20.026 91.943 19.9467 91.775 19.788C91.607 19.6293 91.523 19.4053 91.523 19.116C91.523 18.8453 91.607 18.626 91.775 18.458C91.9523 18.29 92.1903 18.206 92.489 18.206C92.797 18.206 93.035 18.2853 93.203 18.444C93.371 18.6027 93.455 18.8267 93.455 19.116C93.455 19.3867 93.3663 19.606 93.189 19.774C93.021 19.942 92.7876 20.026 92.489 20.026ZM95.4475 29V21.65H96.8895V23.162L96.6375 23.33C96.7308 23.0033 96.9128 22.7047 97.1835 22.434C97.4541 22.154 97.7761 21.93 98.1495 21.762C98.5228 21.5847 98.9055 21.496 99.2975 21.496C99.8575 21.496 100.324 21.608 100.697 21.832C101.071 22.0467 101.351 22.378 101.537 22.826C101.724 23.274 101.817 23.8387 101.817 24.52V29H100.375V24.618C100.375 24.198 100.319 23.8527 100.207 23.582C100.095 23.302 99.9228 23.1013 99.6895 22.98C99.4561 22.8493 99.1668 22.7933 98.8215 22.812C98.5415 22.812 98.2848 22.8587 98.0515 22.952C97.8181 23.036 97.6128 23.1573 97.4355 23.316C97.2675 23.4747 97.1321 23.6613 97.0295 23.876C96.9361 24.0813 96.8895 24.3053 96.8895 24.548V29H96.1755C96.0541 29 95.9328 29 95.8115 29C95.6901 29 95.5688 29 95.4475 29ZM104.684 29V19.774H106.126V29H104.684ZM103.158 23.05V21.65H107.834V23.05H103.158Z" fill="#603BE5"/>
<circle cx="139" cy="24" r="12" fill="#492FA6"/>
<path d="M137.889 19.2905C137.545 18.9474 136.988 18.948 136.645 19.2919C136.302 19.6357 136.303 20.1926 136.646 20.5357L137.889 19.2905ZM141.256 23.8926L141.877 24.5152C142.042 24.3502 142.135 24.1262 142.135 23.8926C142.135 23.659 142.042 23.435 141.877 23.2701L141.256 23.8926ZM136.646 27.2496C136.303 27.5927 136.302 28.1496 136.645 28.4934C136.988 28.8372 137.545 28.8379 137.889 28.4948L136.646 27.2496ZM136.646 20.5357L140.635 24.5152L141.877 23.2701L137.889 19.2905L136.646 20.5357ZM140.635 23.2701L136.646 27.2496L137.889 28.4948L141.877 24.5152L140.635 23.2701Z" fill="#FCFCFC"/>
</svg>
