<svg width="188" height="30" viewBox="0 0 188 30" fill="none" xmlns="http://www.w3.org/2000/svg">
<rect width="188" height="30" rx="15" fill="#282828" fill-opacity="0.15"/>
<path d="M84.64 18.6C84.26 18.6 83.9067 18.55 83.58 18.45C83.26 18.35 82.9667 18.2 82.7 18C82.44 17.7933 82.2067 17.54 82 17.24L82.74 16.39C83.0667 16.8567 83.38 17.18 83.68 17.36C83.98 17.54 84.3367 17.63 84.75 17.63C85.0033 17.63 85.2333 17.59 85.44 17.51C85.6467 17.43 85.81 17.32 85.93 17.18C86.05 17.04 86.11 16.88 86.11 16.7C86.11 16.58 86.09 16.4667 86.05 16.36C86.01 16.2533 85.9467 16.1567 85.86 16.07C85.78 15.9833 85.6733 15.9033 85.54 15.83C85.4133 15.7567 85.2633 15.6933 85.09 15.64C84.9167 15.58 84.7167 15.53 84.49 15.49C84.13 15.4167 83.8167 15.32 83.55 15.2C83.2833 15.08 83.06 14.93 82.88 14.75C82.7 14.57 82.5667 14.3667 82.48 14.14C82.3933 13.9067 82.35 13.6467 82.35 13.36C82.35 13.08 82.41 12.82 82.53 12.58C82.6567 12.34 82.8267 12.1333 83.04 11.96C83.26 11.78 83.5167 11.6433 83.81 11.55C84.1033 11.45 84.42 11.4 84.76 11.4C85.12 11.4 85.45 11.4467 85.75 11.54C86.05 11.6333 86.3167 11.7733 86.55 11.96C86.7833 12.14 86.9767 12.3633 87.13 12.63L86.37 13.38C86.2367 13.16 86.0867 12.9767 85.92 12.83C85.7533 12.6767 85.57 12.5633 85.37 12.49C85.17 12.41 84.9567 12.37 84.73 12.37C84.47 12.37 84.2433 12.41 84.05 12.49C83.8567 12.57 83.7033 12.6833 83.59 12.83C83.4833 12.97 83.43 13.1367 83.43 13.33C83.43 13.47 83.4567 13.6 83.51 13.72C83.5633 13.8333 83.6433 13.9367 83.75 14.03C83.8633 14.1167 84.0133 14.1967 84.2 14.27C84.3867 14.3367 84.61 14.3967 84.87 14.45C85.2367 14.53 85.5633 14.6333 85.85 14.76C86.1367 14.88 86.38 15.0233 86.58 15.19C86.78 15.3567 86.93 15.5433 87.03 15.75C87.1367 15.9567 87.19 16.18 87.19 16.42C87.19 16.8667 87.0867 17.2533 86.88 17.58C86.6733 17.9067 86.38 18.16 86 18.34C85.62 18.5133 85.1667 18.6 84.64 18.6ZM89.1102 18.5V11.91H90.1402V18.5H89.1102ZM88.0202 14.25V13.25H91.3602V14.25H88.0202ZM94.2693 18.6C93.836 18.6 93.4393 18.48 93.0793 18.24C92.726 18 92.4426 17.6733 92.2293 17.26C92.016 16.8467 91.9093 16.38 91.9093 15.86C91.9093 15.3333 92.016 14.8667 92.2293 14.46C92.4493 14.0467 92.7426 13.7233 93.1093 13.49C93.4826 13.2567 93.8993 13.14 94.3593 13.14C94.6326 13.14 94.8826 13.18 95.1093 13.26C95.336 13.34 95.5326 13.4533 95.6993 13.6C95.8726 13.74 96.0126 13.9033 96.1193 14.09C96.2326 14.2767 96.3026 14.4767 96.3293 14.69L96.0993 14.61V13.25H97.1393V18.5H96.0993V17.25L96.3393 17.18C96.2993 17.36 96.216 17.5367 96.0893 17.71C95.9693 17.8767 95.8126 18.0267 95.6193 18.16C95.4326 18.2933 95.2226 18.4 94.9893 18.48C94.7626 18.56 94.5226 18.6 94.2693 18.6ZM94.5393 17.65C94.8526 17.65 95.1293 17.5733 95.3693 17.42C95.6093 17.2667 95.796 17.0567 95.9293 16.79C96.0693 16.5167 96.1393 16.2067 96.1393 15.86C96.1393 15.52 96.0693 15.2167 95.9293 14.95C95.796 14.6833 95.6093 14.4733 95.3693 14.32C95.1293 14.1667 94.8526 14.09 94.5393 14.09C94.2326 14.09 93.9593 14.1667 93.7193 14.32C93.486 14.4733 93.2993 14.6833 93.1593 14.95C93.026 15.2167 92.9593 15.52 92.9593 15.86C92.9593 16.2067 93.026 16.5167 93.1593 16.79C93.2993 17.0567 93.486 17.2667 93.7193 17.42C93.9593 17.5733 94.2326 17.65 94.5393 17.65ZM98.5774 18.5V13.25H99.6174V14.9L99.5174 14.5C99.5908 14.2467 99.7141 14.0167 99.8874 13.81C100.067 13.6033 100.271 13.44 100.497 13.32C100.731 13.2 100.971 13.14 101.217 13.14C101.331 13.14 101.437 13.15 101.537 13.17C101.644 13.19 101.727 13.2133 101.787 13.24L101.517 14.36C101.437 14.3267 101.347 14.3 101.247 14.28C101.154 14.2533 101.061 14.24 100.967 14.24C100.787 14.24 100.614 14.2767 100.447 14.35C100.287 14.4167 100.144 14.5133 100.017 14.64C99.8974 14.76 99.8008 14.9033 99.7274 15.07C99.6541 15.23 99.6174 15.4067 99.6174 15.6V18.5H98.5774ZM103.456 18.5V11.91H104.486V18.5H103.456ZM102.366 14.25V13.25H105.706V14.25H102.366Z" fill="#FCFCFC"/>
</svg>
