<svg width="188" height="30" viewBox="0 0 188 30" fill="none" xmlns="http://www.w3.org/2000/svg">
<rect width="188" height="30" rx="15" fill="#4ECDC4"/>
<path d="M84.98 18.5V11.5H89.39V12.54H86.06V17.46H89.39V18.5H84.98ZM85.47 15.43V14.39H88.84V15.43H85.47ZM93.0038 18.6C92.5238 18.6 92.0938 18.4833 91.7138 18.25C91.3404 18.01 91.0438 17.6867 90.8238 17.28C90.6038 16.8667 90.4938 16.3967 90.4938 15.87C90.4938 15.3433 90.6004 14.8767 90.8138 14.47C91.0338 14.0567 91.3304 13.7333 91.7038 13.5C92.0771 13.26 92.5004 13.14 92.9738 13.14C93.2338 13.14 93.4838 13.1833 93.7238 13.27C93.9704 13.35 94.1904 13.4633 94.3838 13.61C94.5771 13.75 94.7271 13.9067 94.8338 14.08C94.9471 14.2467 95.0038 14.4167 95.0038 14.59L94.7038 14.61V11.1H95.7338V18.5H94.7038V17.25H94.9038C94.9038 17.41 94.8504 17.57 94.7438 17.73C94.6371 17.8833 94.4938 18.0267 94.3138 18.16C94.1404 18.2933 93.9371 18.4 93.7038 18.48C93.4771 18.56 93.2438 18.6 93.0038 18.6ZM93.1438 17.71C93.4571 17.71 93.7338 17.63 93.9738 17.47C94.2138 17.31 94.4004 17.0933 94.5338 16.82C94.6738 16.54 94.7438 16.2233 94.7438 15.87C94.7438 15.5167 94.6738 15.2033 94.5338 14.93C94.4004 14.65 94.2138 14.43 93.9738 14.27C93.7338 14.11 93.4571 14.03 93.1438 14.03C92.8304 14.03 92.5538 14.11 92.3138 14.27C92.0738 14.43 91.8838 14.65 91.7438 14.93C91.6104 15.2033 91.5438 15.5167 91.5438 15.87C91.5438 16.2233 91.6104 16.54 91.7438 16.82C91.8838 17.0933 92.0738 17.31 92.3138 17.47C92.5538 17.63 92.8304 17.71 93.1438 17.71ZM97.3216 18.5V13.25H98.3516V18.5H97.3216ZM97.8216 12.09C97.6016 12.09 97.4316 12.0333 97.3116 11.92C97.1916 11.8067 97.1316 11.6467 97.1316 11.44C97.1316 11.2467 97.1916 11.09 97.3116 10.97C97.4383 10.85 97.6083 10.79 97.8216 10.79C98.0416 10.79 98.2116 10.8467 98.3316 10.96C98.4516 11.0733 98.5116 11.2333 98.5116 11.44C98.5116 11.6333 98.4483 11.79 98.3216 11.91C98.2016 12.03 98.035 12.09 97.8216 12.09ZM100.585 18.5V11.91H101.615V18.5H100.585ZM99.4948 14.25V13.25H102.835V14.25H99.4948Z" fill="#FCFCFC"/>
</svg>
