<svg width="337" height="48" viewBox="0 0 337 48" fill="none" xmlns="http://www.w3.org/2000/svg">
<path d="M0 24C0 10.7452 10.7452 0 24 0H313C326.255 0 337 10.7452 337 24C337 37.2548 326.255 48 313 48H24C10.7452 48 0 37.2548 0 24Z" fill="#603BE5"/>
<path d="M150.372 29V19.2H151.884V27.544H156.476V29H150.372ZM161.419 29.14C160.701 29.14 160.057 28.9767 159.487 28.65C158.927 28.314 158.484 27.8613 158.157 27.292C157.831 26.7133 157.667 26.0553 157.667 25.318C157.667 24.5807 157.831 23.9273 158.157 23.358C158.484 22.7793 158.927 22.3267 159.487 22C160.057 21.664 160.701 21.496 161.419 21.496C162.129 21.496 162.763 21.664 163.323 22C163.893 22.3267 164.341 22.7793 164.667 23.358C164.994 23.9273 165.157 24.5807 165.157 25.318C165.157 26.0553 164.994 26.7133 164.667 27.292C164.341 27.8613 163.893 28.314 163.323 28.65C162.763 28.9767 162.129 29.14 161.419 29.14ZM161.419 27.824C161.858 27.824 162.25 27.7167 162.595 27.502C162.941 27.278 163.211 26.9793 163.407 26.606C163.603 26.2233 163.697 25.794 163.687 25.318C163.697 24.8327 163.603 24.4033 163.407 24.03C163.211 23.6473 162.941 23.3487 162.595 23.134C162.25 22.9193 161.858 22.812 161.419 22.812C160.981 22.812 160.584 22.924 160.229 23.148C159.884 23.3627 159.613 23.6613 159.417 24.044C159.221 24.4173 159.128 24.842 159.137 25.318C159.128 25.794 159.221 26.2233 159.417 26.606C159.613 26.9793 159.884 27.278 160.229 27.502C160.584 27.7167 160.981 27.824 161.419 27.824ZM170.019 32.22C169.496 32.22 168.973 32.136 168.451 31.968C167.937 31.8093 167.522 31.5993 167.205 31.338L167.737 30.218C167.923 30.358 168.143 30.4793 168.395 30.582C168.647 30.694 168.913 30.778 169.193 30.834C169.473 30.8993 169.748 30.932 170.019 30.932C170.532 30.932 170.961 30.848 171.307 30.68C171.652 30.512 171.913 30.2647 172.091 29.938C172.268 29.6113 172.357 29.2053 172.357 28.72V27.306L172.511 27.404C172.464 27.6933 172.31 27.9733 172.049 28.244C171.797 28.5053 171.479 28.72 171.097 28.888C170.714 29.056 170.322 29.14 169.921 29.14C169.221 29.14 168.595 28.9767 168.045 28.65C167.503 28.314 167.074 27.8613 166.757 27.292C166.439 26.7133 166.281 26.0553 166.281 25.318C166.281 24.5807 166.435 23.9273 166.743 23.358C167.06 22.7793 167.489 22.3267 168.031 22C168.581 21.664 169.197 21.496 169.879 21.496C170.159 21.496 170.429 21.5333 170.691 21.608C170.952 21.6733 171.195 21.7713 171.419 21.902C171.643 22.0233 171.843 22.1587 172.021 22.308C172.198 22.4573 172.343 22.616 172.455 22.784C172.567 22.952 172.637 23.1107 172.665 23.26L172.357 23.372V21.65H173.799V28.552C173.799 29.14 173.71 29.658 173.533 30.106C173.365 30.5633 173.117 30.946 172.791 31.254C172.464 31.5713 172.067 31.8093 171.601 31.968C171.134 32.136 170.607 32.22 170.019 32.22ZM170.075 27.81C170.532 27.81 170.938 27.7027 171.293 27.488C171.647 27.2733 171.923 26.9793 172.119 26.606C172.315 26.2327 172.413 25.8033 172.413 25.318C172.413 24.8327 172.31 24.4033 172.105 24.03C171.909 23.6473 171.633 23.3487 171.279 23.134C170.933 22.9193 170.532 22.812 170.075 22.812C169.627 22.812 169.225 22.924 168.871 23.148C168.525 23.3627 168.25 23.6613 168.045 24.044C167.849 24.4173 167.751 24.842 167.751 25.318C167.751 25.794 167.849 26.2233 168.045 26.606C168.25 26.9793 168.525 27.2733 168.871 27.488C169.225 27.7027 169.627 27.81 170.075 27.81ZM176.059 29V21.65H177.501V29H176.059ZM176.759 20.026C176.451 20.026 176.213 19.9467 176.045 19.788C175.877 19.6293 175.793 19.4053 175.793 19.116C175.793 18.8453 175.877 18.626 176.045 18.458C176.222 18.29 176.46 18.206 176.759 18.206C177.067 18.206 177.305 18.2853 177.473 18.444C177.641 18.6027 177.725 18.8267 177.725 19.116C177.725 19.3867 177.636 19.606 177.459 19.774C177.291 19.942 177.057 20.026 176.759 20.026ZM179.717 29V21.65H181.159V23.162L180.907 23.33C181 23.0033 181.182 22.7047 181.453 22.434C181.724 22.154 182.046 21.93 182.419 21.762C182.792 21.5847 183.175 21.496 183.567 21.496C184.127 21.496 184.594 21.608 184.967 21.832C185.34 22.0467 185.62 22.378 185.807 22.826C185.994 23.274 186.087 23.8387 186.087 24.52V29H184.645V24.618C184.645 24.198 184.589 23.8527 184.477 23.582C184.365 23.302 184.192 23.1013 183.959 22.98C183.726 22.8493 183.436 22.7933 183.091 22.812C182.811 22.812 182.554 22.8587 182.321 22.952C182.088 23.036 181.882 23.1573 181.705 23.316C181.537 23.4747 181.402 23.6613 181.299 23.876C181.206 24.0813 181.159 24.3053 181.159 24.548V29H180.445C180.324 29 180.202 29 180.081 29C179.96 29 179.838 29 179.717 29Z" fill="#FCFCFC"/>
</svg>
