<svg width="343" height="48" viewBox="0 0 343 48" fill="none" xmlns="http://www.w3.org/2000/svg">
    <path
        d="M0 24C0 10.7452 10.7452 0 24 0H319C332.255 0 343 10.7452 343 24C343 37.2548 332.255 48 319 48H24C10.7452 48 0 37.2548 0 24Z"
        fill="#603BE5" />
    <path
        d="M156.372 29V19.2H157.73L163.722 27.222L163.498 27.348C163.461 27.1147 163.428 26.8627 163.4 26.592C163.372 26.312 163.344 26.018 163.316 25.71C163.297 25.3927 163.279 25.0613 163.26 24.716C163.251 24.3613 163.241 23.9927 163.232 23.61C163.223 23.2273 163.218 22.8307 163.218 22.42V19.2H164.73V29H163.344L157.45 21.272L157.604 21.076C157.651 21.6453 157.688 22.1307 157.716 22.532C157.753 22.924 157.781 23.26 157.8 23.54C157.828 23.8107 157.847 24.0347 157.856 24.212C157.865 24.38 157.87 24.52 157.87 24.632C157.879 24.744 157.884 24.842 157.884 24.926V29H156.372ZM170.54 29.14C169.784 29.14 169.112 28.9813 168.524 28.664C167.945 28.3373 167.488 27.894 167.152 27.334C166.825 26.774 166.662 26.13 166.662 25.402C166.662 24.8233 166.755 24.296 166.942 23.82C167.128 23.344 167.385 22.9333 167.712 22.588C168.048 22.2333 168.444 21.9627 168.902 21.776C169.368 21.58 169.872 21.482 170.414 21.482C170.89 21.482 171.333 21.5753 171.744 21.762C172.154 21.9393 172.509 22.1867 172.808 22.504C173.116 22.8213 173.349 23.1993 173.508 23.638C173.676 24.0673 173.755 24.5387 173.746 25.052L173.732 25.668H167.726L167.404 24.52H172.486L172.276 24.758V24.422C172.248 24.114 172.145 23.8387 171.968 23.596C171.79 23.3533 171.566 23.162 171.296 23.022C171.025 22.882 170.731 22.812 170.414 22.812C169.91 22.812 169.485 22.91 169.14 23.106C168.794 23.2927 168.533 23.5727 168.356 23.946C168.178 24.31 168.09 24.7627 168.09 25.304C168.09 25.8173 168.197 26.2653 168.412 26.648C168.626 27.0213 168.93 27.3107 169.322 27.516C169.714 27.7213 170.166 27.824 170.68 27.824C171.044 27.824 171.38 27.7633 171.688 27.642C172.005 27.5207 172.346 27.3013 172.71 26.984L173.438 28.006C173.214 28.23 172.938 28.426 172.612 28.594C172.294 28.762 171.954 28.8973 171.59 29C171.235 29.0933 170.885 29.14 170.54 29.14ZM180.158 29L177.778 25.906L177.568 25.64L174.474 21.65H176.294L178.632 24.702L178.87 25.01L181.922 29H180.158ZM174.488 29L177.386 25.22L178.24 26.242L176.196 29H174.488ZM178.954 25.444L178.156 24.436L179.962 21.65H181.67L178.954 25.444ZM184.043 29V19.774H185.485V29H184.043ZM182.517 23.05V21.65H187.193V23.05H182.517Z"
        fill="#FCFCFC" />
</svg>