<svg width="348" height="48" viewBox="0 0 348 48" fill="none" xmlns="http://www.w3.org/2000/svg">
<rect width="348" height="48" rx="24" fill="#603BE5"/>
<path d="M161.396 29.14C160.864 29.14 160.369 29.07 159.912 28.93C159.464 28.79 159.053 28.58 158.68 28.3C158.316 28.0107 157.989 27.656 157.7 27.236L158.736 26.046C159.193 26.6993 159.632 27.152 160.052 27.404C160.472 27.656 160.971 27.782 161.55 27.782C161.905 27.782 162.227 27.726 162.516 27.614C162.805 27.502 163.034 27.348 163.202 27.152C163.37 26.956 163.454 26.732 163.454 26.48C163.454 26.312 163.426 26.1533 163.37 26.004C163.314 25.8547 163.225 25.7193 163.104 25.598C162.992 25.4767 162.843 25.3647 162.656 25.262C162.479 25.1593 162.269 25.0707 162.026 24.996C161.783 24.912 161.503 24.842 161.186 24.786C160.682 24.6833 160.243 24.548 159.87 24.38C159.497 24.212 159.184 24.002 158.932 23.75C158.68 23.498 158.493 23.2133 158.372 22.896C158.251 22.5693 158.19 22.2053 158.19 21.804C158.19 21.412 158.274 21.048 158.442 20.712C158.619 20.376 158.857 20.0867 159.156 19.844C159.464 19.592 159.823 19.4007 160.234 19.27C160.645 19.13 161.088 19.06 161.564 19.06C162.068 19.06 162.53 19.1253 162.95 19.256C163.37 19.3867 163.743 19.5827 164.07 19.844C164.397 20.096 164.667 20.4087 164.882 20.782L163.818 21.832C163.631 21.524 163.421 21.2673 163.188 21.062C162.955 20.8473 162.698 20.6887 162.418 20.586C162.138 20.474 161.839 20.418 161.522 20.418C161.158 20.418 160.841 20.474 160.57 20.586C160.299 20.698 160.085 20.8567 159.926 21.062C159.777 21.258 159.702 21.4913 159.702 21.762C159.702 21.958 159.739 22.14 159.814 22.308C159.889 22.4667 160.001 22.6113 160.15 22.742C160.309 22.8633 160.519 22.9753 160.78 23.078C161.041 23.1713 161.354 23.2553 161.718 23.33C162.231 23.442 162.689 23.5867 163.09 23.764C163.491 23.932 163.832 24.1327 164.112 24.366C164.392 24.5993 164.602 24.8607 164.742 25.15C164.891 25.4393 164.966 25.752 164.966 26.088C164.966 26.7133 164.821 27.2547 164.532 27.712C164.243 28.1693 163.832 28.524 163.3 28.776C162.768 29.0187 162.133 29.14 161.396 29.14ZM169.572 29.14C168.966 29.14 168.41 28.972 167.906 28.636C167.412 28.3 167.015 27.8427 166.716 27.264C166.418 26.6853 166.268 26.032 166.268 25.304C166.268 24.5667 166.418 23.9133 166.716 23.344C167.024 22.7653 167.435 22.3127 167.948 21.986C168.471 21.6593 169.054 21.496 169.698 21.496C170.081 21.496 170.431 21.552 170.748 21.664C171.066 21.776 171.341 21.9347 171.574 22.14C171.817 22.336 172.013 22.5647 172.162 22.826C172.321 23.0873 172.419 23.3673 172.456 23.666L172.134 23.554V21.65H173.59V29H172.134V27.25L172.47 27.152C172.414 27.404 172.298 27.6513 172.12 27.894C171.952 28.1273 171.733 28.3373 171.462 28.524C171.201 28.7107 170.907 28.86 170.58 28.972C170.263 29.084 169.927 29.14 169.572 29.14ZM169.95 27.81C170.389 27.81 170.776 27.7027 171.112 27.488C171.448 27.2733 171.71 26.9793 171.896 26.606C172.092 26.2233 172.19 25.7893 172.19 25.304C172.19 24.828 172.092 24.4033 171.896 24.03C171.71 23.6567 171.448 23.3627 171.112 23.148C170.776 22.9333 170.389 22.826 169.95 22.826C169.521 22.826 169.138 22.9333 168.802 23.148C168.476 23.3627 168.214 23.6567 168.018 24.03C167.832 24.4033 167.738 24.828 167.738 25.304C167.738 25.7893 167.832 26.2233 168.018 26.606C168.214 26.9793 168.476 27.2733 168.802 27.488C169.138 27.7027 169.521 27.81 169.95 27.81ZM177.848 29L174.74 21.65H176.294L178.534 27.152L178.268 27.278L180.662 21.65H182.146L178.884 29H177.848ZM186.69 29.14C185.934 29.14 185.262 28.9813 184.674 28.664C184.095 28.3373 183.638 27.894 183.302 27.334C182.975 26.774 182.812 26.13 182.812 25.402C182.812 24.8233 182.905 24.296 183.092 23.82C183.279 23.344 183.535 22.9333 183.862 22.588C184.198 22.2333 184.595 21.9627 185.052 21.776C185.519 21.58 186.023 21.482 186.564 21.482C187.04 21.482 187.483 21.5753 187.894 21.762C188.305 21.9393 188.659 22.1867 188.958 22.504C189.266 22.8213 189.499 23.1993 189.658 23.638C189.826 24.0673 189.905 24.5387 189.896 25.052L189.882 25.668H183.876L183.554 24.52H188.636L188.426 24.758V24.422C188.398 24.114 188.295 23.8387 188.118 23.596C187.941 23.3533 187.717 23.162 187.446 23.022C187.175 22.882 186.881 22.812 186.564 22.812C186.06 22.812 185.635 22.91 185.29 23.106C184.945 23.2927 184.683 23.5727 184.506 23.946C184.329 24.31 184.24 24.7627 184.24 25.304C184.24 25.8173 184.347 26.2653 184.562 26.648C184.777 27.0213 185.08 27.3107 185.472 27.516C185.864 27.7213 186.317 27.824 186.83 27.824C187.194 27.824 187.53 27.7633 187.838 27.642C188.155 27.5207 188.496 27.3013 188.86 26.984L189.588 28.006C189.364 28.23 189.089 28.426 188.762 28.594C188.445 28.762 188.104 28.8973 187.74 29C187.385 29.0933 187.035 29.14 186.69 29.14Z" fill="#FCFCFC"/>
</svg>
