<svg width="343" height="48" viewBox="0 0 343 48" fill="none" xmlns="http://www.w3.org/2000/svg">
<path d="M0 24C0 10.7452 10.7452 0 24 0H319C332.255 0 343 10.7452 343 24C343 37.2548 332.255 48 319 48H24C10.7452 48 0 37.2548 0 24Z" fill="#603BE5"/>
<path d="M138.896 29.14C138.364 29.14 137.869 29.07 137.412 28.93C136.964 28.79 136.553 28.58 136.18 28.3C135.816 28.0107 135.489 27.656 135.2 27.236L136.236 26.046C136.693 26.6993 137.132 27.152 137.552 27.404C137.972 27.656 138.471 27.782 139.05 27.782C139.405 27.782 139.727 27.726 140.016 27.614C140.305 27.502 140.534 27.348 140.702 27.152C140.87 26.956 140.954 26.732 140.954 26.48C140.954 26.312 140.926 26.1533 140.87 26.004C140.814 25.8547 140.725 25.7193 140.604 25.598C140.492 25.4767 140.343 25.3647 140.156 25.262C139.979 25.1593 139.769 25.0707 139.526 24.996C139.283 24.912 139.003 24.842 138.686 24.786C138.182 24.6833 137.743 24.548 137.37 24.38C136.997 24.212 136.684 24.002 136.432 23.75C136.18 23.498 135.993 23.2133 135.872 22.896C135.751 22.5693 135.69 22.2053 135.69 21.804C135.69 21.412 135.774 21.048 135.942 20.712C136.119 20.376 136.357 20.0867 136.656 19.844C136.964 19.592 137.323 19.4007 137.734 19.27C138.145 19.13 138.588 19.06 139.064 19.06C139.568 19.06 140.03 19.1253 140.45 19.256C140.87 19.3867 141.243 19.5827 141.57 19.844C141.897 20.096 142.167 20.4087 142.382 20.782L141.318 21.832C141.131 21.524 140.921 21.2673 140.688 21.062C140.455 20.8473 140.198 20.6887 139.918 20.586C139.638 20.474 139.339 20.418 139.022 20.418C138.658 20.418 138.341 20.474 138.07 20.586C137.799 20.698 137.585 20.8567 137.426 21.062C137.277 21.258 137.202 21.4913 137.202 21.762C137.202 21.958 137.239 22.14 137.314 22.308C137.389 22.4667 137.501 22.6113 137.65 22.742C137.809 22.8633 138.019 22.9753 138.28 23.078C138.541 23.1713 138.854 23.2553 139.218 23.33C139.731 23.442 140.189 23.5867 140.59 23.764C140.991 23.932 141.332 24.1327 141.612 24.366C141.892 24.5993 142.102 24.8607 142.242 25.15C142.391 25.4393 142.466 25.752 142.466 26.088C142.466 26.7133 142.321 27.2547 142.032 27.712C141.743 28.1693 141.332 28.524 140.8 28.776C140.268 29.0187 139.633 29.14 138.896 29.14ZM147.674 29.14C146.918 29.14 146.246 28.9813 145.658 28.664C145.08 28.3373 144.622 27.894 144.286 27.334C143.96 26.774 143.796 26.13 143.796 25.402C143.796 24.8233 143.89 24.296 144.076 23.82C144.263 23.344 144.52 22.9333 144.846 22.588C145.182 22.2333 145.579 21.9627 146.036 21.776C146.503 21.58 147.007 21.482 147.548 21.482C148.024 21.482 148.468 21.5753 148.878 21.762C149.289 21.9393 149.644 22.1867 149.942 22.504C150.25 22.8213 150.484 23.1993 150.642 23.638C150.81 24.0673 150.89 24.5387 150.88 25.052L150.866 25.668H144.86L144.538 24.52H149.62L149.41 24.758V24.422C149.382 24.114 149.28 23.8387 149.102 23.596C148.925 23.3533 148.701 23.162 148.43 23.022C148.16 22.882 147.866 22.812 147.548 22.812C147.044 22.812 146.62 22.91 146.274 23.106C145.929 23.2927 145.668 23.5727 145.49 23.946C145.313 24.31 145.224 24.7627 145.224 25.304C145.224 25.8173 145.332 26.2653 145.546 26.648C145.761 27.0213 146.064 27.3107 146.456 27.516C146.848 27.7213 147.301 27.824 147.814 27.824C148.178 27.824 148.514 27.7633 148.822 27.642C149.14 27.5207 149.48 27.3013 149.844 26.984L150.572 28.006C150.348 28.23 150.073 28.426 149.746 28.594C149.429 28.762 149.088 28.8973 148.724 29C148.37 29.0933 148.02 29.14 147.674 29.14ZM152.447 29V21.65H153.889V23.162L153.637 23.33C153.731 23.0033 153.913 22.7047 154.183 22.434C154.454 22.154 154.776 21.93 155.149 21.762C155.523 21.5847 155.905 21.496 156.297 21.496C156.857 21.496 157.324 21.608 157.697 21.832C158.071 22.0467 158.351 22.378 158.537 22.826C158.724 23.274 158.817 23.8387 158.817 24.52V29H157.375V24.618C157.375 24.198 157.319 23.8527 157.207 23.582C157.095 23.302 156.923 23.1013 156.689 22.98C156.456 22.8493 156.167 22.7933 155.821 22.812C155.541 22.812 155.285 22.8587 155.051 22.952C154.818 23.036 154.613 23.1573 154.435 23.316C154.267 23.4747 154.132 23.6613 154.029 23.876C153.936 24.0813 153.889 24.3053 153.889 24.548V29H153.175C153.054 29 152.933 29 152.811 29C152.69 29 152.569 29 152.447 29ZM163.84 29.14C163.168 29.14 162.566 28.9767 162.034 28.65C161.511 28.314 161.096 27.8613 160.788 27.292C160.48 26.7133 160.326 26.0553 160.326 25.318C160.326 24.5807 160.475 23.9273 160.774 23.358C161.082 22.7793 161.497 22.3267 162.02 22C162.542 21.664 163.135 21.496 163.798 21.496C164.162 21.496 164.512 21.5567 164.848 21.678C165.193 21.79 165.501 21.9487 165.772 22.154C166.042 22.35 166.252 22.5693 166.402 22.812C166.56 23.0453 166.64 23.2833 166.64 23.526L166.22 23.554V18.64H167.662V29H166.22V27.25H166.5C166.5 27.474 166.425 27.698 166.276 27.922C166.126 28.1367 165.926 28.3373 165.674 28.524C165.431 28.7107 165.146 28.86 164.82 28.972C164.502 29.084 164.176 29.14 163.84 29.14ZM164.036 27.894C164.474 27.894 164.862 27.782 165.198 27.558C165.534 27.334 165.795 27.0307 165.982 26.648C166.178 26.256 166.276 25.8127 166.276 25.318C166.276 24.8233 166.178 24.3847 165.982 24.002C165.795 23.61 165.534 23.302 165.198 23.078C164.862 22.854 164.474 22.742 164.036 22.742C163.597 22.742 163.21 22.854 162.874 23.078C162.538 23.302 162.272 23.61 162.076 24.002C161.889 24.3847 161.796 24.8233 161.796 25.318C161.796 25.8127 161.889 26.256 162.076 26.648C162.272 27.0307 162.538 27.334 162.874 27.558C163.21 27.782 163.597 27.894 164.036 27.894ZM177.911 29.14C177.229 29.14 176.604 29.0187 176.035 28.776C175.465 28.5333 174.971 28.188 174.551 27.74C174.131 27.2827 173.804 26.746 173.571 26.13C173.347 25.514 173.235 24.8373 173.235 24.1C173.235 23.4 173.356 22.7513 173.599 22.154C173.851 21.5473 174.196 21.0153 174.635 20.558C175.073 20.1007 175.582 19.746 176.16 19.494C176.739 19.242 177.365 19.116 178.037 19.116C178.513 19.116 178.975 19.1907 179.423 19.34C179.88 19.48 180.291 19.6807 180.655 19.942C181.028 20.194 181.331 20.4833 181.565 20.81L180.557 21.86C180.286 21.5893 180.011 21.3653 179.731 21.188C179.46 21.0013 179.18 20.8613 178.891 20.768C178.611 20.6747 178.326 20.628 178.037 20.628C177.579 20.628 177.15 20.7167 176.749 20.894C176.357 21.062 176.011 21.3 175.713 21.608C175.423 21.916 175.195 22.2847 175.027 22.714C174.859 23.134 174.775 23.596 174.775 24.1C174.775 24.632 174.854 25.1173 175.013 25.556C175.181 25.9853 175.414 26.354 175.713 26.662C176.011 26.97 176.366 27.208 176.777 27.376C177.197 27.5347 177.659 27.614 178.163 27.614C178.471 27.614 178.774 27.572 179.073 27.488C179.371 27.404 179.651 27.2827 179.913 27.124C180.174 26.9653 180.412 26.7787 180.627 26.564L181.383 27.796C181.168 28.048 180.874 28.2767 180.501 28.482C180.137 28.6873 179.726 28.8507 179.269 28.972C178.821 29.084 178.368 29.14 177.911 29.14ZM186.376 29.14C185.658 29.14 185.014 28.9767 184.444 28.65C183.884 28.314 183.441 27.8613 183.114 27.292C182.788 26.7133 182.624 26.0553 182.624 25.318C182.624 24.5807 182.788 23.9273 183.114 23.358C183.441 22.7793 183.884 22.3267 184.444 22C185.014 21.664 185.658 21.496 186.376 21.496C187.086 21.496 187.72 21.664 188.28 22C188.85 22.3267 189.298 22.7793 189.624 23.358C189.951 23.9273 190.114 24.5807 190.114 25.318C190.114 26.0553 189.951 26.7133 189.624 27.292C189.298 27.8613 188.85 28.314 188.28 28.65C187.72 28.9767 187.086 29.14 186.376 29.14ZM186.376 27.824C186.815 27.824 187.207 27.7167 187.552 27.502C187.898 27.278 188.168 26.9793 188.364 26.606C188.56 26.2233 188.654 25.794 188.644 25.318C188.654 24.8327 188.56 24.4033 188.364 24.03C188.168 23.6473 187.898 23.3487 187.552 23.134C187.207 22.9193 186.815 22.812 186.376 22.812C185.938 22.812 185.541 22.924 185.186 23.148C184.841 23.3627 184.57 23.6613 184.374 24.044C184.178 24.4173 184.085 24.842 184.094 25.318C184.085 25.794 184.178 26.2233 184.374 26.606C184.57 26.9793 184.841 27.278 185.186 27.502C185.541 27.7167 185.938 27.824 186.376 27.824ZM194.752 29.14C194.08 29.14 193.478 28.9767 192.946 28.65C192.423 28.314 192.008 27.8613 191.7 27.292C191.392 26.7133 191.238 26.0553 191.238 25.318C191.238 24.5807 191.387 23.9273 191.686 23.358C191.994 22.7793 192.409 22.3267 192.932 22C193.454 21.664 194.047 21.496 194.71 21.496C195.074 21.496 195.424 21.5567 195.76 21.678C196.105 21.79 196.413 21.9487 196.684 22.154C196.954 22.35 197.164 22.5693 197.314 22.812C197.472 23.0453 197.552 23.2833 197.552 23.526L197.132 23.554V18.64H198.574V29H197.132V27.25H197.412C197.412 27.474 197.337 27.698 197.188 27.922C197.038 28.1367 196.838 28.3373 196.586 28.524C196.343 28.7107 196.058 28.86 195.732 28.972C195.414 29.084 195.088 29.14 194.752 29.14ZM194.948 27.894C195.386 27.894 195.774 27.782 196.11 27.558C196.446 27.334 196.707 27.0307 196.894 26.648C197.09 26.256 197.188 25.8127 197.188 25.318C197.188 24.8233 197.09 24.3847 196.894 24.002C196.707 23.61 196.446 23.302 196.11 23.078C195.774 22.854 195.386 22.742 194.948 22.742C194.509 22.742 194.122 22.854 193.786 23.078C193.45 23.302 193.184 23.61 192.988 24.002C192.801 24.3847 192.708 24.8233 192.708 25.318C192.708 25.8127 192.801 26.256 192.988 26.648C193.184 27.0307 193.45 27.334 193.786 27.558C194.122 27.782 194.509 27.894 194.948 27.894ZM203.989 29.14C203.233 29.14 202.561 28.9813 201.973 28.664C201.394 28.3373 200.937 27.894 200.601 27.334C200.274 26.774 200.111 26.13 200.111 25.402C200.111 24.8233 200.204 24.296 200.391 23.82C200.577 23.344 200.834 22.9333 201.161 22.588C201.497 22.2333 201.893 21.9627 202.351 21.776C202.817 21.58 203.321 21.482 203.863 21.482C204.339 21.482 204.782 21.5753 205.193 21.762C205.603 21.9393 205.958 22.1867 206.257 22.504C206.565 22.8213 206.798 23.1993 206.957 23.638C207.125 24.0673 207.204 24.5387 207.195 25.052L207.181 25.668H201.175L200.853 24.52H205.935L205.725 24.758V24.422C205.697 24.114 205.594 23.8387 205.417 23.596C205.239 23.3533 205.015 23.162 204.745 23.022C204.474 22.882 204.18 22.812 203.863 22.812C203.359 22.812 202.934 22.91 202.589 23.106C202.243 23.2927 201.982 23.5727 201.805 23.946C201.627 24.31 201.539 24.7627 201.539 25.304C201.539 25.8173 201.646 26.2653 201.861 26.648C202.075 27.0213 202.379 27.3107 202.771 27.516C203.163 27.7213 203.615 27.824 204.129 27.824C204.493 27.824 204.829 27.7633 205.137 27.642C205.454 27.5207 205.795 27.3013 206.159 26.984L206.887 28.006C206.663 28.23 206.387 28.426 206.061 28.594C205.743 28.762 205.403 28.8973 205.039 29C204.684 29.0933 204.334 29.14 203.989 29.14Z" fill="#FCFCFC"/>
</svg>
