<svg width="343" height="48" viewBox="0 0 343 48" fill="none" xmlns="http://www.w3.org/2000/svg">
<path d="M0 24C0 10.7452 10.7452 0 24 0H319C332.255 0 343 10.7452 343 24C343 37.2548 332.255 48 319 48H24C10.7452 48 0 37.2548 0 24Z" fill="#603BE5"/>
<path d="M150.896 29.14C150.364 29.14 149.869 29.07 149.412 28.93C148.964 28.79 148.553 28.58 148.18 28.3C147.816 28.0107 147.489 27.656 147.2 27.236L148.236 26.046C148.693 26.6993 149.132 27.152 149.552 27.404C149.972 27.656 150.471 27.782 151.05 27.782C151.405 27.782 151.727 27.726 152.016 27.614C152.305 27.502 152.534 27.348 152.702 27.152C152.87 26.956 152.954 26.732 152.954 26.48C152.954 26.312 152.926 26.1533 152.87 26.004C152.814 25.8547 152.725 25.7193 152.604 25.598C152.492 25.4767 152.343 25.3647 152.156 25.262C151.979 25.1593 151.769 25.0707 151.526 24.996C151.283 24.912 151.003 24.842 150.686 24.786C150.182 24.6833 149.743 24.548 149.37 24.38C148.997 24.212 148.684 24.002 148.432 23.75C148.18 23.498 147.993 23.2133 147.872 22.896C147.751 22.5693 147.69 22.2053 147.69 21.804C147.69 21.412 147.774 21.048 147.942 20.712C148.119 20.376 148.357 20.0867 148.656 19.844C148.964 19.592 149.323 19.4007 149.734 19.27C150.145 19.13 150.588 19.06 151.064 19.06C151.568 19.06 152.03 19.1253 152.45 19.256C152.87 19.3867 153.243 19.5827 153.57 19.844C153.897 20.096 154.167 20.4087 154.382 20.782L153.318 21.832C153.131 21.524 152.921 21.2673 152.688 21.062C152.455 20.8473 152.198 20.6887 151.918 20.586C151.638 20.474 151.339 20.418 151.022 20.418C150.658 20.418 150.341 20.474 150.07 20.586C149.799 20.698 149.585 20.8567 149.426 21.062C149.277 21.258 149.202 21.4913 149.202 21.762C149.202 21.958 149.239 22.14 149.314 22.308C149.389 22.4667 149.501 22.6113 149.65 22.742C149.809 22.8633 150.019 22.9753 150.28 23.078C150.541 23.1713 150.854 23.2553 151.218 23.33C151.731 23.442 152.189 23.5867 152.59 23.764C152.991 23.932 153.332 24.1327 153.612 24.366C153.892 24.5993 154.102 24.8607 154.242 25.15C154.391 25.4393 154.466 25.752 154.466 26.088C154.466 26.7133 154.321 27.2547 154.032 27.712C153.743 28.1693 153.332 28.524 152.8 28.776C152.268 29.0187 151.633 29.14 150.896 29.14ZM156.482 29V21.65H157.924V29H156.482ZM157.182 20.026C156.874 20.026 156.636 19.9467 156.468 19.788C156.3 19.6293 156.216 19.4053 156.216 19.116C156.216 18.8453 156.3 18.626 156.468 18.458C156.646 18.29 156.884 18.206 157.182 18.206C157.49 18.206 157.728 18.2853 157.896 18.444C158.064 18.6027 158.148 18.8267 158.148 19.116C158.148 19.3867 158.06 19.606 157.882 19.774C157.714 19.942 157.481 20.026 157.182 20.026ZM163.431 32.22C162.908 32.22 162.385 32.136 161.863 31.968C161.349 31.8093 160.934 31.5993 160.617 31.338L161.149 30.218C161.335 30.358 161.555 30.4793 161.807 30.582C162.059 30.694 162.325 30.778 162.605 30.834C162.885 30.8993 163.16 30.932 163.431 30.932C163.944 30.932 164.373 30.848 164.719 30.68C165.064 30.512 165.325 30.2647 165.503 29.938C165.68 29.6113 165.769 29.2053 165.769 28.72V27.306L165.923 27.404C165.876 27.6933 165.722 27.9733 165.461 28.244C165.209 28.5053 164.891 28.72 164.509 28.888C164.126 29.056 163.734 29.14 163.333 29.14C162.633 29.14 162.007 28.9767 161.457 28.65C160.915 28.314 160.486 27.8613 160.169 27.292C159.851 26.7133 159.693 26.0553 159.693 25.318C159.693 24.5807 159.847 23.9273 160.155 23.358C160.472 22.7793 160.901 22.3267 161.443 22C161.993 21.664 162.609 21.496 163.291 21.496C163.571 21.496 163.841 21.5333 164.103 21.608C164.364 21.6733 164.607 21.7713 164.831 21.902C165.055 22.0233 165.255 22.1587 165.433 22.308C165.61 22.4573 165.755 22.616 165.867 22.784C165.979 22.952 166.049 23.1107 166.077 23.26L165.769 23.372V21.65H167.211V28.552C167.211 29.14 167.122 29.658 166.945 30.106C166.777 30.5633 166.529 30.946 166.203 31.254C165.876 31.5713 165.479 31.8093 165.013 31.968C164.546 32.136 164.019 32.22 163.431 32.22ZM163.487 27.81C163.944 27.81 164.35 27.7027 164.705 27.488C165.059 27.2733 165.335 26.9793 165.531 26.606C165.727 26.2327 165.825 25.8033 165.825 25.318C165.825 24.8327 165.722 24.4033 165.517 24.03C165.321 23.6473 165.045 23.3487 164.691 23.134C164.345 22.9193 163.944 22.812 163.487 22.812C163.039 22.812 162.637 22.924 162.283 23.148C161.937 23.3627 161.662 23.6613 161.457 24.044C161.261 24.4173 161.163 24.842 161.163 25.318C161.163 25.794 161.261 26.2233 161.457 26.606C161.662 26.9793 161.937 27.2733 162.283 27.488C162.637 27.7027 163.039 27.81 163.487 27.81ZM169.233 29V21.65H170.675V23.162L170.423 23.33C170.516 23.0033 170.698 22.7047 170.969 22.434C171.239 22.154 171.561 21.93 171.935 21.762C172.308 21.5847 172.691 21.496 173.083 21.496C173.643 21.496 174.109 21.608 174.483 21.832C174.856 22.0467 175.136 22.378 175.323 22.826C175.509 23.274 175.603 23.8387 175.603 24.52V29H174.161V24.618C174.161 24.198 174.105 23.8527 173.993 23.582C173.881 23.302 173.708 23.1013 173.475 22.98C173.241 22.8493 172.952 22.7933 172.607 22.812C172.327 22.812 172.07 22.8587 171.837 22.952C171.603 23.036 171.398 23.1573 171.221 23.316C171.053 23.4747 170.917 23.6613 170.815 23.876C170.721 24.0813 170.675 24.3053 170.675 24.548V29H169.961C169.839 29 169.718 29 169.597 29C169.475 29 169.354 29 169.233 29ZM181.731 29.084C180.975 29.084 180.298 28.9207 179.701 28.594C179.103 28.258 178.632 27.8007 178.287 27.222C177.951 26.634 177.783 25.9713 177.783 25.234V19.186H179.295V25.108C179.295 25.584 179.407 26.0133 179.631 26.396C179.855 26.7693 180.149 27.068 180.513 27.292C180.886 27.516 181.292 27.628 181.731 27.628C182.197 27.628 182.617 27.516 182.991 27.292C183.373 27.068 183.677 26.7693 183.901 26.396C184.125 26.0133 184.237 25.584 184.237 25.108V19.186H185.679V25.234C185.679 25.9713 185.506 26.634 185.161 27.222C184.825 27.8007 184.358 28.258 183.761 28.594C183.163 28.9207 182.487 29.084 181.731 29.084ZM187.922 32.08V21.65H189.378V23.33L189.154 23.204C189.21 22.924 189.369 22.658 189.63 22.406C189.891 22.1447 190.209 21.9347 190.582 21.776C190.965 21.608 191.357 21.524 191.758 21.524C192.421 21.524 193.009 21.6873 193.522 22.014C194.035 22.3407 194.441 22.7887 194.74 23.358C195.039 23.9273 195.188 24.5807 195.188 25.318C195.188 26.046 195.039 26.6993 194.74 27.278C194.451 27.8473 194.049 28.3 193.536 28.636C193.023 28.9627 192.444 29.126 191.8 29.126C191.371 29.126 190.955 29.042 190.554 28.874C190.153 28.6967 189.812 28.4727 189.532 28.202C189.252 27.9313 189.079 27.6513 189.014 27.362L189.378 27.166V32.08H187.922ZM191.562 27.796C191.991 27.796 192.374 27.6887 192.71 27.474C193.046 27.2593 193.312 26.9653 193.508 26.592C193.704 26.2187 193.802 25.794 193.802 25.318C193.802 24.842 193.704 24.422 193.508 24.058C193.321 23.6847 193.06 23.3907 192.724 23.176C192.388 22.9613 192.001 22.854 191.562 22.854C191.123 22.854 190.736 22.9613 190.4 23.176C190.064 23.3813 189.798 23.6707 189.602 24.044C189.406 24.4173 189.308 24.842 189.308 25.318C189.308 25.794 189.406 26.2187 189.602 26.592C189.798 26.9653 190.064 27.2593 190.4 27.474C190.736 27.6887 191.123 27.796 191.562 27.796Z" fill="#FCFCFC"/>
</svg>
