<svg width="343" height="48" viewBox="0 0 343 48" fill="none" xmlns="http://www.w3.org/2000/svg">
<path d="M0 24C0 10.7452 10.7452 0 24 0H319C332.255 0 343 10.7452 343 24C343 37.2548 332.255 48 319 48H24C10.7452 48 0 37.2548 0 24Z" fill="#603BE5"/>
<path d="M151.396 29.14C150.864 29.14 150.369 29.07 149.912 28.93C149.464 28.79 149.053 28.58 148.68 28.3C148.316 28.0107 147.989 27.656 147.7 27.236L148.736 26.046C149.193 26.6993 149.632 27.152 150.052 27.404C150.472 27.656 150.971 27.782 151.55 27.782C151.905 27.782 152.227 27.726 152.516 27.614C152.805 27.502 153.034 27.348 153.202 27.152C153.37 26.956 153.454 26.732 153.454 26.48C153.454 26.312 153.426 26.1533 153.37 26.004C153.314 25.8547 153.225 25.7193 153.104 25.598C152.992 25.4767 152.843 25.3647 152.656 25.262C152.479 25.1593 152.269 25.0707 152.026 24.996C151.783 24.912 151.503 24.842 151.186 24.786C150.682 24.6833 150.243 24.548 149.87 24.38C149.497 24.212 149.184 24.002 148.932 23.75C148.68 23.498 148.493 23.2133 148.372 22.896C148.251 22.5693 148.19 22.2053 148.19 21.804C148.19 21.412 148.274 21.048 148.442 20.712C148.619 20.376 148.857 20.0867 149.156 19.844C149.464 19.592 149.823 19.4007 150.234 19.27C150.645 19.13 151.088 19.06 151.564 19.06C152.068 19.06 152.53 19.1253 152.95 19.256C153.37 19.3867 153.743 19.5827 154.07 19.844C154.397 20.096 154.667 20.4087 154.882 20.782L153.818 21.832C153.631 21.524 153.421 21.2673 153.188 21.062C152.955 20.8473 152.698 20.6887 152.418 20.586C152.138 20.474 151.839 20.418 151.522 20.418C151.158 20.418 150.841 20.474 150.57 20.586C150.299 20.698 150.085 20.8567 149.926 21.062C149.777 21.258 149.702 21.4913 149.702 21.762C149.702 21.958 149.739 22.14 149.814 22.308C149.889 22.4667 150.001 22.6113 150.15 22.742C150.309 22.8633 150.519 22.9753 150.78 23.078C151.041 23.1713 151.354 23.2553 151.718 23.33C152.231 23.442 152.689 23.5867 153.09 23.764C153.491 23.932 153.832 24.1327 154.112 24.366C154.392 24.5993 154.602 24.8607 154.742 25.15C154.891 25.4393 154.966 25.752 154.966 26.088C154.966 26.7133 154.821 27.2547 154.532 27.712C154.243 28.1693 153.832 28.524 153.3 28.776C152.768 29.0187 152.133 29.14 151.396 29.14ZM159.32 29.14C158.798 29.14 158.34 29.0187 157.948 28.776C157.566 28.5333 157.267 28.1927 157.052 27.754C156.847 27.3153 156.744 26.7927 156.744 26.186V21.65H158.186V25.794C158.186 26.2233 158.252 26.5967 158.382 26.914C158.522 27.222 158.718 27.46 158.97 27.628C159.232 27.796 159.544 27.88 159.908 27.88C160.179 27.88 160.426 27.838 160.65 27.754C160.874 27.6607 161.066 27.5347 161.224 27.376C161.392 27.2173 161.523 27.026 161.616 26.802C161.71 26.578 161.756 26.3353 161.756 26.074V21.65H163.198V29H161.756V27.46L162.008 27.292C161.896 27.6373 161.705 27.95 161.434 28.23C161.173 28.51 160.86 28.734 160.496 28.902C160.132 29.0607 159.74 29.14 159.32 29.14ZM169.085 29.14C168.768 29.14 168.45 29.0887 168.133 28.986C167.825 28.8833 167.54 28.748 167.279 28.58C167.027 28.4027 166.812 28.2113 166.635 28.006C166.467 27.7913 166.355 27.5767 166.299 27.362L166.663 27.166V28.958H165.221V18.64H166.663V23.33L166.439 23.204C166.486 22.9893 166.588 22.784 166.747 22.588C166.906 22.3827 167.106 22.2007 167.349 22.042C167.601 21.874 167.872 21.7433 168.161 21.65C168.45 21.5473 168.744 21.496 169.043 21.496C169.706 21.496 170.294 21.6593 170.807 21.986C171.32 22.3127 171.726 22.7653 172.025 23.344C172.324 23.9133 172.473 24.5667 172.473 25.304C172.473 26.0413 172.324 26.6993 172.025 27.278C171.736 27.8567 171.334 28.314 170.821 28.65C170.308 28.9767 169.729 29.14 169.085 29.14ZM168.847 27.824C169.276 27.824 169.659 27.7167 169.995 27.502C170.331 27.278 170.597 26.9793 170.793 26.606C170.989 26.2233 171.087 25.7893 171.087 25.304C171.087 24.828 170.989 24.4033 170.793 24.03C170.606 23.6473 170.345 23.3487 170.009 23.134C169.673 22.9193 169.286 22.812 168.847 22.812C168.408 22.812 168.021 22.9193 167.685 23.134C167.349 23.3487 167.083 23.6473 166.887 24.03C166.691 24.4033 166.593 24.828 166.593 25.304C166.593 25.7893 166.691 26.2233 166.887 26.606C167.083 26.9793 167.349 27.278 167.685 27.502C168.021 27.7167 168.408 27.824 168.847 27.824ZM174.011 29V21.65H175.467V23.218L175.201 23.386C175.276 23.1433 175.393 22.91 175.551 22.686C175.719 22.462 175.92 22.266 176.153 22.098C176.396 21.9207 176.653 21.7807 176.923 21.678C177.203 21.5753 177.488 21.524 177.777 21.524C178.197 21.524 178.566 21.594 178.883 21.734C179.201 21.874 179.462 22.084 179.667 22.364C179.873 22.644 180.022 22.994 180.115 23.414L179.891 23.358L179.989 23.12C180.092 22.9053 180.232 22.7047 180.409 22.518C180.596 22.322 180.806 22.1493 181.039 22C181.273 21.8507 181.52 21.734 181.781 21.65C182.043 21.566 182.299 21.524 182.551 21.524C183.102 21.524 183.555 21.636 183.909 21.86C184.273 22.084 184.544 22.4247 184.721 22.882C184.908 23.3393 185.001 23.9087 185.001 24.59V29H183.545V24.674C183.545 24.254 183.489 23.9133 183.377 23.652C183.275 23.3813 183.116 23.1807 182.901 23.05C182.687 22.9193 182.411 22.854 182.075 22.854C181.814 22.854 181.567 22.9007 181.333 22.994C181.109 23.078 180.913 23.1993 180.745 23.358C180.577 23.5167 180.447 23.7033 180.353 23.918C180.26 24.1233 180.213 24.352 180.213 24.604V29H178.757V24.646C178.757 24.2633 178.701 23.9413 178.589 23.68C178.477 23.4093 178.314 23.204 178.099 23.064C177.885 22.924 177.623 22.854 177.315 22.854C177.054 22.854 176.811 22.9007 176.587 22.994C176.363 23.078 176.167 23.1993 175.999 23.358C175.831 23.5073 175.701 23.6893 175.607 23.904C175.514 24.1093 175.467 24.3333 175.467 24.576V29H174.011ZM187.17 29V21.65H188.612V29H187.17ZM187.87 20.026C187.562 20.026 187.324 19.9467 187.156 19.788C186.988 19.6293 186.904 19.4053 186.904 19.116C186.904 18.8453 186.988 18.626 187.156 18.458C187.333 18.29 187.571 18.206 187.87 18.206C188.178 18.206 188.416 18.2853 188.584 18.444C188.752 18.6027 188.836 18.8267 188.836 19.116C188.836 19.3867 188.747 19.606 188.57 19.774C188.402 19.942 188.168 20.026 187.87 20.026ZM191.738 29V19.774H193.18V29H191.738ZM190.212 23.05V21.65H194.888V23.05H190.212Z" fill="#FCFCFC"/>
</svg>
