<svg width="38" height="38" viewBox="0 0 38 38" fill="none" xmlns="http://www.w3.org/2000/svg">
<rect width="38" height="38" rx="19" fill="#603BE5"/>
<path d="M16.302 24L15.84 22.852L18.836 19.478C18.9947 19.31 19.158 19.1187 19.326 18.904C19.5033 18.68 19.6713 18.4513 19.83 18.218C19.9887 17.9847 20.1147 17.756 20.208 17.532C20.3107 17.2987 20.362 17.0793 20.362 16.874C20.362 16.5753 20.3013 16.3233 20.18 16.118C20.068 15.9033 19.9 15.74 19.676 15.628C19.4613 15.516 19.2 15.46 18.892 15.46C18.6213 15.46 18.3553 15.5393 18.094 15.698C17.8327 15.8567 17.5947 16.0807 17.38 16.37C17.1653 16.6593 16.9973 16.9953 16.876 17.378L15.714 16.65C15.8727 16.1087 16.1107 15.6467 16.428 15.264C16.7547 14.872 17.142 14.5733 17.59 14.368C18.0473 14.1627 18.542 14.06 19.074 14.06C19.6247 14.06 20.1147 14.1767 20.544 14.41C20.9733 14.634 21.3093 14.9513 21.552 15.362C21.7947 15.7633 21.916 16.23 21.916 16.762C21.916 16.9767 21.8927 17.196 21.846 17.42C21.7993 17.644 21.7247 17.8773 21.622 18.12C21.5193 18.3533 21.3887 18.6007 21.23 18.862C21.0713 19.114 20.88 19.38 20.656 19.66C20.4413 19.94 20.194 20.234 19.914 20.542L17.688 22.964L17.408 22.544H22.224V24H16.302Z" fill="#FCFCFC"/>
</svg>
