<svg width="146" height="24" viewBox="0 0 146 24" fill="none" xmlns="http://www.w3.org/2000/svg">
<path d="M9 10.9998H9.75C9.75 10.5856 9.41421 10.2498 9 10.2498V10.9998ZM9 19.9998V20.7498C9.41421 20.7498 9.75 20.414 9.75 19.9998H9ZM3 19.9998H2.25C2.25 20.414 2.58579 20.7498 3 20.7498V19.9998ZM4 11.7498H9V10.2498H4V11.7498ZM8.25 10.9998V19.9998H9.75V10.9998H8.25ZM9 19.2498H3V20.7498H9V19.2498ZM3.75 19.9998V11.9998H2.25V19.9998H3.75ZM4 10.2498C3.0335 10.2498 2.25 11.0333 2.25 11.9998H3.75C3.75 11.8617 3.86193 11.7498 4 11.7498V10.2498Z" fill="#282828"/>
<path d="M15 7.99982V7.24982C14.5858 7.24982 14.25 7.5856 14.25 7.99982H15ZM21 19.9998V20.7498C21.4142 20.7498 21.75 20.414 21.75 19.9998H21ZM15 19.9998H14.25C14.25 20.414 14.5858 20.7498 15 20.7498V19.9998ZM15 8.74982H20V7.24982H15V8.74982ZM20.25 8.99982V19.9998H21.75V8.99982H20.25ZM21 19.2498H15V20.7498H21V19.2498ZM15.75 19.9998V7.99982H14.25V19.9998H15.75ZM20 8.74982C20.1381 8.74982 20.25 8.86175 20.25 8.99982H21.75C21.75 8.03332 20.9665 7.24982 20 7.24982V8.74982Z" fill="#282828"/>
<path d="M15 20.0002V20.7502C15.4142 20.7502 15.75 20.4144 15.75 20.0002H15ZM9 20.0002H8.25C8.25 20.4144 8.58579 20.7502 9 20.7502V20.0002ZM10 4.75018H14V3.25018H10V4.75018ZM14.25 5.00018V20.0002H15.75V5.00018H14.25ZM15 19.2502H9V20.7502H15V19.2502ZM9.75 20.0002V5.00018H8.25V20.0002H9.75ZM14 4.75018C14.1381 4.75018 14.25 4.86211 14.25 5.00018H15.75C15.75 4.03368 14.9665 3.25018 14 3.25018V4.75018ZM10 3.25018C9.0335 3.25018 8.25 4.03368 8.25 5.00018H9.75C9.75 4.86211 9.86193 4.75018 10 4.75018V3.25018Z" fill="#282828"/>
<path d="M32.98 16.9998V15.9638H34.562V8.23582H32.98V7.19982H37.236V8.23582H35.654V15.9638H37.236V16.9998H32.98ZM39.2427 16.9998V9.69182H40.2787L40.3207 11.2178L40.1527 11.2878C40.246 10.9705 40.428 10.6811 40.6987 10.4198C40.9694 10.1585 41.2914 9.94848 41.6647 9.78982C42.0474 9.62182 42.4394 9.53782 42.8407 9.53782C43.382 9.53782 43.8347 9.64515 44.1987 9.85982C44.5627 10.0745 44.838 10.4058 45.0247 10.8538C45.2114 11.3018 45.3047 11.8711 45.3047 12.5618V16.9998H44.2407V12.6178C44.2407 12.1325 44.1754 11.7358 44.0447 11.4278C43.9234 11.1105 43.732 10.8772 43.4707 10.7278C43.2094 10.5785 42.8874 10.5085 42.5047 10.5178C42.1874 10.5178 41.8934 10.5738 41.6227 10.6858C41.352 10.7885 41.1187 10.9331 40.9227 11.1198C40.7267 11.3065 40.5727 11.5212 40.4607 11.7638C40.3487 12.0065 40.2927 12.2678 40.2927 12.5478V16.9998H39.7747C39.7094 16.9998 39.6347 16.9998 39.5507 16.9998C39.4667 16.9998 39.364 16.9998 39.2427 16.9998ZM48.1491 16.9998V8.55782C48.1491 8.19382 48.2284 7.87182 48.3871 7.59182C48.5458 7.31182 48.7698 7.09248 49.0591 6.93382C49.3578 6.76582 49.7031 6.68182 50.0951 6.68182C50.3938 6.68182 50.6598 6.73782 50.8931 6.84982C51.1358 6.95248 51.3364 7.09715 51.4951 7.28382L51.1311 8.10982C50.9818 7.95115 50.8184 7.83915 50.6411 7.77382C50.4731 7.69915 50.3098 7.66182 50.1511 7.66182C49.9458 7.66182 49.7731 7.69915 49.6331 7.77382C49.4931 7.83915 49.3858 7.94182 49.3111 8.08182C49.2458 8.21248 49.2131 8.37115 49.2131 8.55782V16.9998H48.7231C48.6204 16.9998 48.5224 16.9998 48.4291 16.9998C48.3358 16.9998 48.2424 16.9998 48.1491 16.9998ZM46.8471 10.7278V9.74782H51.0751V10.7278H46.8471ZM55.5607 17.1398C54.8327 17.1398 54.184 16.9765 53.6147 16.6498C53.0547 16.3232 52.6114 15.8705 52.2847 15.2918C51.9674 14.7132 51.8087 14.0552 51.8087 13.3178C51.8087 12.5898 51.9674 11.9411 52.2847 11.3718C52.6114 10.8025 53.0547 10.3545 53.6147 10.0278C54.184 9.70115 54.8327 9.53782 55.5607 9.53782C56.2794 9.53782 56.9187 9.70115 57.4787 10.0278C58.048 10.3545 58.4914 10.8025 58.8087 11.3718C59.1354 11.9411 59.2987 12.5898 59.2987 13.3178C59.2987 14.0552 59.1354 14.7132 58.8087 15.2918C58.4914 15.8705 58.048 16.3232 57.4787 16.6498C56.9187 16.9765 56.2794 17.1398 55.5607 17.1398ZM55.5607 16.1458C56.074 16.1458 56.5314 16.0245 56.9327 15.7818C57.334 15.5298 57.6467 15.1938 57.8707 14.7738C58.0947 14.3445 58.2067 13.8592 58.2067 13.3178C58.2067 12.7765 58.0947 12.2958 57.8707 11.8758C57.6467 11.4558 57.334 11.1292 56.9327 10.8958C56.5314 10.6532 56.074 10.5318 55.5607 10.5318C55.0474 10.5318 54.5854 10.6532 54.1747 10.8958C53.7734 11.1292 53.456 11.4605 53.2227 11.8898C52.9987 12.3098 52.8914 12.7858 52.9007 13.3178C52.8914 13.8592 52.9987 14.3445 53.2227 14.7738C53.456 15.1938 53.7734 15.5298 54.1747 15.7818C54.5854 16.0245 55.0474 16.1458 55.5607 16.1458ZM60.8306 16.9998V9.69182H61.8806L61.9086 11.6378L61.7966 11.3718C61.8993 11.0452 62.0626 10.7418 62.2866 10.4618C62.5199 10.1818 62.7953 9.95782 63.1126 9.78982C63.4299 9.62182 63.7799 9.53782 64.1626 9.53782C64.3213 9.53782 64.4706 9.55182 64.6106 9.57982C64.7506 9.59848 64.8673 9.62648 64.9606 9.66382L64.6666 10.8398C64.5453 10.7838 64.4193 10.7465 64.2886 10.7278C64.1673 10.6998 64.0506 10.6858 63.9386 10.6858C63.6213 10.6858 63.3366 10.7418 63.0846 10.8538C62.8326 10.9658 62.6179 11.1245 62.4406 11.3298C62.2633 11.5258 62.1279 11.7545 62.0346 12.0158C61.9413 12.2772 61.8946 12.5572 61.8946 12.8558V16.9998H60.8306ZM66.0393 16.9998V9.69182H67.0892L67.1173 11.3578L66.9073 11.4278C66.9819 11.1478 67.1033 10.8958 67.2713 10.6718C67.4486 10.4385 67.6586 10.2378 67.9013 10.0698C68.1439 9.90182 68.4099 9.77582 68.6993 9.69182C68.9886 9.59848 69.2919 9.55182 69.6093 9.55182C69.9919 9.55182 70.3326 9.61715 70.6313 9.74782C70.9393 9.86915 71.1959 10.0838 71.4013 10.3918C71.6159 10.6905 71.7793 11.0871 71.8913 11.5818L71.6393 11.4558L71.7373 11.2178C71.8306 11.0031 71.9659 10.7978 72.1433 10.6018C72.3299 10.3965 72.5399 10.2145 72.7733 10.0558C73.0159 9.89715 73.2773 9.77582 73.5573 9.69182C73.8466 9.59848 74.1406 9.55182 74.4393 9.55182C74.9526 9.55182 75.3866 9.66382 75.7413 9.88782C76.0959 10.1025 76.3619 10.4338 76.5393 10.8818C76.7259 11.3298 76.8193 11.8991 76.8193 12.5898V16.9998H75.7413V12.6458C75.7413 12.1605 75.6806 11.7638 75.5593 11.4558C75.4379 11.1478 75.2559 10.9191 75.0133 10.7698C74.7799 10.6112 74.4813 10.5318 74.1173 10.5318C73.7999 10.5318 73.5059 10.5878 73.2353 10.6998C72.9739 10.8025 72.7453 10.9518 72.5493 11.1478C72.3626 11.3345 72.2133 11.5491 72.1012 11.7918C71.9986 12.0345 71.9473 12.2958 71.9473 12.5758V16.9998H70.8833V12.6318C70.8833 12.1652 70.8179 11.7778 70.6873 11.4698C70.5659 11.1618 70.3839 10.9285 70.1413 10.7698C69.8986 10.6112 69.5999 10.5318 69.2453 10.5318C68.9373 10.5318 68.6526 10.5878 68.3913 10.6998C68.1299 10.8025 67.9013 10.9471 67.7053 11.1338C67.5186 11.3205 67.3693 11.5351 67.2573 11.7778C67.1546 12.0205 67.1033 12.2818 67.1033 12.5618V16.9998H66.0393ZM81.6651 17.1398C81.0304 17.1398 80.4564 16.9765 79.9431 16.6498C79.4298 16.3138 79.0238 15.8612 78.7251 15.2918C78.4264 14.7132 78.2771 14.0598 78.2771 13.3318C78.2771 12.5945 78.4311 11.9411 78.7391 11.3718C79.0471 10.8025 79.4578 10.3545 79.9711 10.0278C80.4938 9.70115 81.0771 9.53782 81.7211 9.53782C82.1038 9.53782 82.4584 9.59382 82.7851 9.70582C83.1118 9.81782 83.4011 9.97648 83.6531 10.1818C83.9144 10.3778 84.1291 10.6112 84.2971 10.8818C84.4744 11.1432 84.5958 11.4278 84.6611 11.7358L84.3531 11.5818L84.3951 9.69182H85.4451V16.9998H84.3811V15.2078L84.6611 15.0258C84.5958 15.3058 84.4698 15.5765 84.2831 15.8378C84.0964 16.0898 83.8678 16.3138 83.5971 16.5098C83.3358 16.7058 83.0371 16.8598 82.7011 16.9718C82.3744 17.0838 82.0291 17.1398 81.6651 17.1398ZM81.9031 16.1318C82.3884 16.1318 82.8224 16.0152 83.2051 15.7818C83.5878 15.5392 83.8864 15.2078 84.1011 14.7878C84.3251 14.3585 84.4371 13.8732 84.4371 13.3318C84.4371 12.7905 84.3251 12.3098 84.1011 11.8898C83.8864 11.4698 83.5878 11.1385 83.2051 10.8958C82.8224 10.6532 82.3884 10.5318 81.9031 10.5318C81.4084 10.5318 80.9698 10.6532 80.5871 10.8958C80.2138 11.1385 79.9151 11.4698 79.6911 11.8898C79.4764 12.3098 79.3691 12.7905 79.3691 13.3318C79.3691 13.8638 79.4764 14.3445 79.6911 14.7738C79.9058 15.1938 80.2044 15.5252 80.5871 15.7678C80.9698 16.0105 81.4084 16.1318 81.9031 16.1318ZM88.4988 16.9998V7.77382H89.5488V16.9998H88.4988ZM86.8468 10.6998V9.69182H91.3968V10.6998H86.8468ZM92.9661 16.9998V9.69182H94.0161V16.9998H92.9661ZM93.4841 8.10982C93.2227 8.10982 93.0221 8.04448 92.8821 7.91382C92.7514 7.77382 92.6861 7.58715 92.6861 7.35382C92.6861 7.12048 92.7561 6.93382 92.8961 6.79382C93.0361 6.65382 93.2321 6.58382 93.4841 6.58382C93.7361 6.58382 93.9321 6.65382 94.0721 6.79382C94.2121 6.92448 94.2821 7.11115 94.2821 7.35382C94.2821 7.57782 94.2121 7.75982 94.0721 7.89982C93.9321 8.03982 93.7361 8.10982 93.4841 8.10982ZM99.5431 17.1398C98.8151 17.1398 98.1664 16.9765 97.5971 16.6498C97.0371 16.3232 96.5938 15.8705 96.2671 15.2918C95.9498 14.7132 95.7911 14.0552 95.7911 13.3178C95.7911 12.5898 95.9498 11.9411 96.2671 11.3718C96.5938 10.8025 97.0371 10.3545 97.5971 10.0278C98.1664 9.70115 98.8151 9.53782 99.5431 9.53782C100.262 9.53782 100.901 9.70115 101.461 10.0278C102.03 10.3545 102.474 10.8025 102.791 11.3718C103.118 11.9411 103.281 12.5898 103.281 13.3178C103.281 14.0552 103.118 14.7132 102.791 15.2918C102.474 15.8705 102.03 16.3232 101.461 16.6498C100.901 16.9765 100.262 17.1398 99.5431 17.1398ZM99.5431 16.1458C100.056 16.1458 100.514 16.0245 100.915 15.7818C101.316 15.5298 101.629 15.1938 101.853 14.7738C102.077 14.3445 102.189 13.8592 102.189 13.3178C102.189 12.7765 102.077 12.2958 101.853 11.8758C101.629 11.4558 101.316 11.1292 100.915 10.8958C100.514 10.6532 100.056 10.5318 99.5431 10.5318C99.0298 10.5318 98.5678 10.6532 98.1571 10.8958C97.7558 11.1292 97.4384 11.4605 97.2051 11.8898C96.9811 12.3098 96.8738 12.7858 96.8831 13.3178C96.8738 13.8592 96.9811 14.3445 97.2051 14.7738C97.4384 15.1938 97.7558 15.5298 98.1571 15.7818C98.5678 16.0245 99.0298 16.1458 99.5431 16.1458ZM104.813 16.9998V9.69182H105.849L105.891 11.2178L105.723 11.2878C105.816 10.9705 105.998 10.6811 106.269 10.4198C106.54 10.1585 106.862 9.94848 107.235 9.78982C107.618 9.62182 108.01 9.53782 108.411 9.53782C108.952 9.53782 109.405 9.64515 109.769 9.85982C110.133 10.0745 110.408 10.4058 110.595 10.8538C110.782 11.3018 110.875 11.8711 110.875 12.5618V16.9998H109.811V12.6178C109.811 12.1325 109.746 11.7358 109.615 11.4278C109.494 11.1105 109.302 10.8772 109.041 10.7278C108.78 10.5785 108.458 10.5085 108.075 10.5178C107.758 10.5178 107.464 10.5738 107.193 10.6858C106.922 10.7885 106.689 10.9331 106.493 11.1198C106.297 11.3065 106.143 11.5212 106.031 11.7638C105.919 12.0065 105.863 12.2678 105.863 12.5478V16.9998H105.345C105.28 16.9998 105.205 16.9998 105.121 16.9998C105.037 16.9998 104.934 16.9998 104.813 16.9998ZM116.131 16.9998L119.883 7.19982H121.129L124.853 16.9998H123.663L121.269 10.6438C121.204 10.4665 121.129 10.2611 121.045 10.0278C120.971 9.78515 120.887 9.53782 120.793 9.28582C120.709 9.02448 120.625 8.77248 120.541 8.52982C120.467 8.28715 120.397 8.07248 120.331 7.88582H120.611C120.537 8.11915 120.457 8.35715 120.373 8.59982C120.299 8.83315 120.219 9.07115 120.135 9.31382C120.051 9.54715 119.967 9.78048 119.883 10.0138C119.799 10.2471 119.715 10.4805 119.631 10.7138L117.251 16.9998H116.131ZM117.727 14.2978L118.133 13.2338H122.767L123.215 14.2978H117.727ZM126.223 16.9998V9.69182H127.273L127.301 11.6378L127.189 11.3718C127.292 11.0452 127.455 10.7418 127.679 10.4618C127.913 10.1818 128.188 9.95782 128.505 9.78982C128.823 9.62182 129.173 9.53782 129.555 9.53782C129.714 9.53782 129.863 9.55182 130.003 9.57982C130.143 9.59848 130.26 9.62648 130.353 9.66382L130.059 10.8398C129.938 10.7838 129.812 10.7465 129.681 10.7278C129.56 10.6998 129.443 10.6858 129.331 10.6858C129.014 10.6858 128.729 10.7418 128.477 10.8538C128.225 10.9658 128.011 11.1245 127.833 11.3298C127.656 11.5258 127.521 11.7545 127.427 12.0158C127.334 12.2772 127.287 12.5572 127.287 12.8558V16.9998H126.223ZM134.211 17.1398C133.521 17.1398 132.905 16.9765 132.363 16.6498C131.822 16.3138 131.393 15.8612 131.075 15.2918C130.767 14.7132 130.613 14.0598 130.613 13.3318C130.613 12.6038 130.767 11.9552 131.075 11.3858C131.393 10.8071 131.822 10.3545 132.363 10.0278C132.905 9.70115 133.525 9.53782 134.225 9.53782C134.851 9.53782 135.42 9.66382 135.933 9.91582C136.447 10.1585 136.857 10.4991 137.165 10.9378L136.549 11.6938C136.372 11.4605 136.157 11.2552 135.905 11.0778C135.663 10.9005 135.397 10.7651 135.107 10.6718C134.827 10.5691 134.547 10.5178 134.267 10.5178C133.773 10.5178 133.329 10.6438 132.937 10.8958C132.545 11.1385 132.233 11.4698 131.999 11.8898C131.775 12.3098 131.663 12.7905 131.663 13.3318C131.663 13.8732 131.775 14.3585 131.999 14.7878C132.233 15.2078 132.545 15.5392 132.937 15.7818C133.329 16.0245 133.768 16.1458 134.253 16.1458C134.533 16.1458 134.809 16.1038 135.079 16.0198C135.35 15.9265 135.607 15.7958 135.849 15.6278C136.092 15.4598 136.316 15.2498 136.521 14.9978L137.137 15.7538C136.82 16.1738 136.395 16.5098 135.863 16.7618C135.331 17.0138 134.781 17.1398 134.211 17.1398ZM138.501 16.9998V6.63982H139.551V11.2878L139.341 11.4978C139.443 11.1152 139.635 10.7791 139.915 10.4898C140.195 10.1911 140.521 9.95782 140.895 9.78982C141.277 9.62182 141.665 9.53782 142.057 9.53782C142.617 9.53782 143.083 9.64515 143.457 9.85982C143.83 10.0745 144.105 10.4058 144.283 10.8538C144.469 11.3018 144.563 11.8711 144.563 12.5618V16.9998H143.499V12.6178C143.499 12.1325 143.433 11.7358 143.303 11.4278C143.181 11.1105 142.99 10.8772 142.729 10.7278C142.467 10.5785 142.141 10.5085 141.749 10.5178C141.441 10.5178 141.151 10.5738 140.881 10.6858C140.61 10.7885 140.377 10.9331 140.181 11.1198C139.985 11.3065 139.831 11.5212 139.719 11.7638C139.607 12.0065 139.551 12.2678 139.551 12.5478V16.9998H139.033C138.967 16.9998 138.893 16.9998 138.809 16.9998C138.725 16.9998 138.622 16.9998 138.501 16.9998Z" fill="#282828"/>
</svg>
