<svg width="77" height="77" viewBox="0 0 77 77" fill="none" xmlns="http://www.w3.org/2000/svg">
<circle cx="38.5" cy="38.5" r="38.5" fill="#603BE5" fill-opacity="0.05"/>
<path d="M40 24L32.6154 31.5L29.5385 28.375L24 34" stroke="#14181F" stroke-width="2" stroke-linecap="round" stroke-linejoin="round"/>
<path d="M40 30V24H34" stroke="#14181F" stroke-width="2" stroke-linecap="round" stroke-linejoin="round"/>
<path d="M38 44.6667H39C39 44.1144 38.5523 43.6667 38 43.6667V44.6667ZM38 56.6667V57.6667C38.5523 57.6667 39 57.2189 39 56.6667H38ZM30 56.6667H29C29 57.2189 29.4477 57.6667 30 57.6667V56.6667ZM31.3333 45.6667H38V43.6667H31.3333V45.6667ZM37 44.6667V56.6667H39V44.6667H37ZM38 55.6667H30V57.6667H38V55.6667ZM31 56.6667V46H29V56.6667H31ZM31.3333 43.6667C30.0447 43.6667 29 44.7113 29 46H31C31 45.8159 31.1492 45.6667 31.3333 45.6667V43.6667Z" fill="#14181F"/>
<path d="M46 40.6667V39.6667C45.4477 39.6667 45 40.1144 45 40.6667H46ZM54 56.6667V57.6667C54.5523 57.6667 55 57.2189 55 56.6667H54ZM46 56.6667H45C45 57.2189 45.4477 57.6667 46 57.6667V56.6667ZM46 41.6667H52.6667V39.6667H46V41.6667ZM53 42V56.6667H55V42H53ZM54 55.6667H46V57.6667H54V55.6667ZM47 56.6667V40.6667H45V56.6667H47ZM52.6667 41.6667C52.8508 41.6667 53 41.8159 53 42H55C55 40.7113 53.9553 39.6667 52.6667 39.6667V41.6667Z" fill="#14181F"/>
<path d="M46 56.6667V57.6667C46.5523 57.6667 47 57.219 47 56.6667H46ZM38 56.6667H37C37 57.219 37.4477 57.6667 38 57.6667V56.6667ZM39.3333 36.3333H44.6667V34.3333H39.3333V36.3333ZM45 36.6667V56.6667H47V36.6667H45ZM46 55.6667H38V57.6667H46V55.6667ZM39 56.6667V36.6667H37V56.6667H39ZM44.6667 36.3333C44.8508 36.3333 45 36.4826 45 36.6667H47C47 35.378 45.9553 34.3333 44.6667 34.3333V36.3333ZM39.3333 34.3333C38.0447 34.3333 37 35.378 37 36.6667H39C39 36.4826 39.1492 36.3333 39.3333 36.3333V34.3333Z" fill="#14181F"/>
</svg>
