<svg width="345" height="345" viewBox="0 0 345 345" fill="none" xmlns="http://www.w3.org/2000/svg">
<path d="M145.646 146.873C152.352 139.094 164.596 136.755 173.697 141.516C175.315 142.361 176.906 143.489 177.641 145.162C178.074 146.231 178.211 147.396 178.038 148.536C177.617 151.869 175.333 154.746 172.486 156.547C169.64 158.348 166.277 159.117 162.947 159.514C159.473 159.932 155.616 159.839 152.942 157.593C150.803 155.805 149.516 152.763 146.805 152.1C147.205 152.193 143.12 155.957 141.537 155.912C139.087 155.847 136.907 154.125 136.924 151.662C136.934 148.35 143.865 141.343 145.646 146.873Z" fill="#FFF3F2"/>
<path d="M69.1455 87.1884C67.5689 85.5773 65.9232 83.7384 63.6945 83.3934C62.4902 83.2459 61.2739 83.5486 60.2792 84.2433C59.2845 84.9381 58.5816 85.9759 58.3056 87.1574C55.6284 83.7281 52.0956 79.9331 47.79 80.5541C44.1606 81.075 41.649 84.87 41.5662 88.5615C41.4834 92.253 43.2912 95.703 45.4785 98.6562C47.2035 101.006 49.9152 103.372 52.7235 102.534C54.5624 101.986 55.725 100.229 56.729 98.5976C57.2154 100.157 58.9094 100.954 60.4412 101.53C61.6659 101.992 62.9459 102.437 64.2534 102.348C65.561 102.258 66.9099 101.502 67.2998 100.254C67.6172 99.2186 67.2687 98.0111 67.8621 97.1175C68.8971 95.5271 71.3121 96.569 73.113 97.1865C75.0312 97.8455 77.253 97.7558 78.978 96.6794C81.8243 94.8957 82.6868 90.4694 78.9021 90.39C77.4704 90.3659 76.2767 91.5044 74.7104 91.2146C72.5645 90.8213 70.598 88.665 69.1455 87.1884Z" fill="#FFF3F2"/>
<path d="M228.549 294.223H319.022C318.797 293.36 318.552 292.519 318.363 291.725C316.983 285.984 317.003 279.698 316.024 273.851C315.334 269.711 314.506 265.591 312.967 261.7C312.342 260.123 311.587 258.553 310.341 257.391C309.096 256.228 307.316 255.535 305.684 255.987C304.052 256.439 302.865 257.943 302.086 259.478C300.916 261.789 300.329 264.349 299.757 266.875L294.489 290.114C294.456 290.411 294.319 290.687 294.102 290.894C293.647 291.239 293.012 290.828 292.66 290.383C291.725 289.189 291.401 287.623 290.697 286.291C289.993 284.96 288.575 283.718 287.106 284.094C286.466 284.309 285.892 284.684 285.439 285.184C283.59 286.968 281.834 289.296 279.278 289.455C277.898 289.534 276.587 288.931 275.379 288.265C266.392 283.314 260.089 274.385 251.043 269.538C248.755 268.313 246.064 267.354 243.605 268.158C242.266 268.603 241.145 269.538 240.124 270.504C233.565 276.745 231.216 284.432 228.897 292.905C228.78 293.336 228.659 293.778 228.549 294.223Z" fill="#FFF3F2"/>
<path d="M233.593 294.223H20.9658C33.637 284.495 47.4015 276.281 61.9794 269.748C68.4413 266.854 75.2964 264.249 82.3724 264.515C85.7258 264.642 89.0205 265.412 92.2359 266.367C110.866 271.887 128.061 283.797 147.512 283.983C160.129 284.104 172.176 279.226 184.461 276.345C189.636 275.134 194.977 274.275 200.245 274.934C204.875 275.513 209.288 277.252 213.448 279.364C220.939 283.169 227.746 288.19 233.593 294.223Z" fill="#FFF3F2"/>
<path d="M34.9865 294.223H32.3438L32.8233 275.814L33.2166 260.616H34.1102L34.5069 275.814L34.9865 294.223Z" fill="#FFF3F2"/>
<path d="M34.5 275.814C34.222 275.862 33.9404 275.886 33.6582 275.886C33.376 275.887 33.0944 275.862 32.8164 275.814L33.2097 260.616H34.1033L34.5 275.814Z" fill="#FFF3F2"/>
<path d="M42.6076 256.211C42.6076 256.977 42.5835 257.732 42.5352 258.477C42.5352 258.55 42.5352 258.626 42.5179 258.702V258.864L42.4972 259.123C42.2881 262.044 41.6234 264.914 40.5273 267.63C40.4514 267.81 40.372 267.975 40.2927 268.165C39.8936 269.052 39.4131 269.899 38.8575 270.697C38.7471 270.853 38.6367 271.004 38.5125 271.153C37.1325 272.947 35.4523 273.989 33.6825 273.989C32.7483 273.977 31.8357 273.706 31.0467 273.206C30.9121 273.123 30.781 273.033 30.6499 272.94L30.612 272.912C30.5016 272.833 30.3946 272.75 30.267 272.66C28.6351 271.325 27.2551 269.055 26.2615 266.185C26.2201 266.067 26.1822 265.95 26.1442 265.84C26.0131 265.443 25.8924 265.032 25.7992 264.615C25.7647 264.498 25.7337 264.377 25.7026 264.253C25.052 261.629 24.7275 258.935 24.7366 256.232V256.152C24.7366 256.038 24.7366 255.928 24.7366 255.807C24.7349 255.78 24.7349 255.752 24.7366 255.724C24.74 252.142 25.3838 248.589 26.6376 245.233C26.7169 245.04 26.7928 244.85 26.8722 244.664C27.0826 244.177 27.3069 243.711 27.5415 243.284C27.6312 243.111 27.7278 242.939 27.8209 242.777C29.3907 240.075 31.4365 238.44 33.6859 238.44C34.4378 238.445 35.1783 238.625 35.8491 238.964C35.9664 239.023 36.0871 239.088 36.1941 239.157C36.6025 239.397 36.9852 239.678 37.336 239.996C37.4499 240.096 37.5603 240.203 37.681 240.31C39.1749 241.797 40.441 244.105 41.3001 246.899C41.338 247.02 41.376 247.141 41.4105 247.265C41.5945 247.879 41.7566 248.514 41.8969 249.169C41.9245 249.29 41.9487 249.411 41.9728 249.514C42.4075 251.72 42.6202 253.963 42.6076 256.211Z" fill="#FFF3F2"/>
<path d="M37.6606 240.299C36.0315 240.592 34.4191 240.972 32.8306 241.438L32.32 241.759C30.8641 242.679 29.3979 243.579 27.9213 244.46C27.4866 244.719 27.0553 244.978 26.6172 245.233C26.6965 245.04 26.7724 244.85 26.8518 244.664L27.9454 244.019C29.1322 243.308 30.3121 242.584 31.4851 241.848C30.15 242.276 28.8286 242.756 27.5245 243.273C27.6142 243.101 27.7108 242.928 27.804 242.766C29.4013 242.145 31.0263 241.583 32.6719 241.103C33.7449 240.413 34.8075 239.723 35.8218 238.954C35.9391 239.013 36.0598 239.078 36.1668 239.147C35.4216 239.72 34.6522 240.251 33.8656 240.765C35.0156 240.462 36.1656 240.202 37.3156 239.985C37.4398 240.086 37.5502 240.192 37.6606 240.299Z" fill="#FFF3F2"/>
<path d="M40.5173 267.63C40.4414 267.81 40.362 267.975 40.2827 268.165L39.365 268.624C36.835 269.88 34.305 271.119 31.775 272.343L30.5882 272.912C30.4778 272.833 30.3708 272.75 30.2432 272.66C31.1678 272.215 32.0924 271.77 33.0032 271.318C35.4803 270.135 37.9229 268.941 40.3655 267.72L40.5173 267.63Z" fill="#FFF3F2"/>
<path d="M25.9887 255.576L24.7191 256.225V256.145C24.7191 256.031 24.7191 255.921 24.7191 255.8C24.7173 255.773 24.7173 255.745 24.7191 255.717C25.6471 255.234 26.5821 254.755 27.5136 254.279C32.1538 251.916 36.8286 249.614 41.2722 246.882C41.3101 247.003 41.3481 247.124 41.3826 247.248C38.6226 248.945 35.766 250.477 32.8818 251.96C35.7703 250.711 38.7828 249.769 41.869 249.152C41.8966 249.273 41.9208 249.394 41.9449 249.497L41.3101 249.625C38.6238 250.224 35.9978 251.067 33.4648 252.143C30.9291 253.178 28.4382 254.341 25.9887 255.576Z" fill="#FFF3F2"/>
<path d="M42.5354 258.477C42.5354 258.55 42.5354 258.626 42.5181 258.702V258.864L42.4974 259.123C41.8074 259.433 41.1174 259.737 40.4067 260.04L31.9714 263.701C30.067 264.529 28.1638 265.357 26.2617 266.185C26.2203 266.068 26.1823 265.95 26.1444 265.84L33.5964 262.6C36.2563 261.444 38.9198 260.299 41.5728 259.13L41.7591 259.047C40.0341 259.464 38.3574 259.961 36.6807 260.482C34.2427 261.239 31.8369 262.093 29.4633 263.045C28.2213 263.538 26.9942 264.061 25.7821 264.615C25.7476 264.498 25.7166 264.377 25.6855 264.253C27.5853 263.397 29.5116 262.604 31.4643 261.872C33.9621 260.938 36.4921 260.11 39.0543 259.388C40.2135 259.057 41.3693 258.75 42.5354 258.477Z" fill="#FFF3F2"/>
<path d="M38.8473 270.697C38.7369 270.853 38.6265 271.004 38.5023 271.153C36.0356 271.767 33.5792 272.429 31.1435 273.168L31.0227 273.206C30.8882 273.123 30.7571 273.033 30.626 272.94C31.546 272.657 32.466 272.386 33.386 272.126C35.1984 271.615 37.0188 271.139 38.8473 270.697Z" fill="#FFF3F2"/>
<path d="M144.204 293.057H142.627L142.913 282.072L143.151 273.005H143.683L143.917 282.072L144.204 293.057Z" fill="#FFF3F2"/>
<path d="M143.917 282.072C143.752 282.1 143.584 282.114 143.417 282.113C143.248 282.114 143.08 282.1 142.913 282.072L143.148 273.005H143.682L143.917 282.072Z" fill="#FFF3F2"/>
<path d="M148.75 270.377C148.75 270.835 148.75 271.284 148.708 271.729V271.863V271.96V272.112C148.583 273.856 148.186 275.569 147.532 277.19C147.487 277.297 147.439 277.404 147.391 277.508C147.154 278.037 146.868 278.543 146.535 279.019C146.469 279.112 146.404 279.205 146.335 279.291C145.5 280.361 144.51 280.982 143.444 280.982C142.886 280.976 142.341 280.815 141.871 280.516C141.791 280.468 141.712 280.413 141.633 280.357H141.612L141.415 280.206C140.442 279.409 139.611 278.053 139.024 276.342C139 276.273 138.98 276.2 138.955 276.131C138.879 275.893 138.807 275.652 138.738 275.4C138.721 275.331 138.7 275.258 138.683 275.186C138.293 273.621 138.099 272.013 138.107 270.401V270.352C138.107 270.283 138.107 270.218 138.107 270.149V270.101C138.109 267.962 138.493 265.842 139.242 263.839C139.287 263.725 139.335 263.611 139.383 263.494C139.507 263.204 139.638 262.925 139.78 262.662C139.835 262.559 139.89 262.459 139.949 262.362C140.884 260.751 142.105 259.775 143.44 259.775C143.889 259.778 144.331 259.886 144.731 260.089C144.803 260.123 144.872 260.161 144.941 260.202C145.188 260.344 145.42 260.512 145.631 260.703C145.7 260.761 145.766 260.827 145.831 260.889C146.721 261.776 147.47 263.145 147.991 264.822C148.015 264.894 148.036 264.967 148.056 265.039C148.163 265.405 148.26 265.785 148.346 266.174C148.346 266.247 148.377 266.319 148.391 266.392C148.643 267.705 148.764 269.04 148.75 270.377Z" fill="#FFF3F2"/>
<path d="M145.8 260.882C144.83 261.062 143.87 261.293 142.923 261.572L142.619 261.765C141.755 262.313 140.88 262.85 139.994 263.377L139.218 263.835C139.263 263.722 139.311 263.608 139.359 263.49L140.008 263.104C140.714 262.678 141.418 262.247 142.119 261.81C141.322 262.066 140.536 262.352 139.756 262.659C139.811 262.555 139.866 262.455 139.925 262.359C140.877 261.986 141.847 261.652 142.826 261.365C143.468 260.958 144.103 260.544 144.707 260.085C144.779 260.12 144.848 260.158 144.917 260.199C144.476 260.544 144.013 260.858 143.537 261.165C144.227 260.983 144.911 260.828 145.59 260.699C145.669 260.755 145.735 260.82 145.8 260.882Z" fill="#FFF3F2"/>
<path d="M147.505 277.19C147.46 277.297 147.411 277.404 147.363 277.508L146.818 277.784C145.314 278.533 143.805 279.273 142.292 280.002L141.584 280.347L141.388 280.195L143.044 279.395C144.5 278.684 145.955 277.977 147.404 277.245L147.505 277.19Z" fill="#FFF3F2"/>
<path d="M138.835 269.997L138.079 270.387V270.339C138.079 270.27 138.079 270.204 138.079 270.135V270.087L139.745 269.228C142.505 267.82 145.31 266.444 147.956 264.815C147.981 264.888 148.001 264.96 148.022 265.033C146.373 266.043 144.669 266.958 142.95 267.844C144.673 267.097 146.47 266.535 148.312 266.168C148.312 266.24 148.343 266.312 148.357 266.385L147.977 266.461C146.374 266.814 144.807 267.313 143.295 267.951C141.795 268.569 140.297 269.262 138.835 269.997Z" fill="#FFF3F2"/>
<path d="M148.696 271.729V271.863V271.96V272.112C148.282 272.298 147.864 272.481 147.447 272.66L142.42 274.844L139.011 276.328C138.987 276.259 138.967 276.186 138.942 276.117L143.39 274.185C144.977 273.495 146.567 272.805 148.151 272.115L148.261 272.064C147.226 272.315 146.229 272.609 145.228 272.919C143.776 273.371 142.337 273.882 140.923 274.451C140.184 274.748 139.452 275.059 138.725 275.386C138.708 275.317 138.687 275.244 138.67 275.172C139.802 274.661 140.952 274.188 142.12 273.751C143.607 273.192 145.121 272.698 146.653 272.267C147.316 272.077 148.006 271.888 148.696 271.729Z" fill="#FFF3F2"/>
<path d="M146.508 279.019C146.442 279.112 146.377 279.205 146.308 279.291C144.835 279.657 143.368 280.054 141.916 280.492L141.844 280.516C141.764 280.468 141.685 280.413 141.605 280.357C142.155 280.187 142.705 280.025 143.255 279.871C144.336 279.567 145.42 279.283 146.508 279.019Z" fill="#FFF3F2"/>
<path d="M305.083 154.946V147.629H302.544L304.345 145.255L298.124 147.629H279.525V154.946H305.083Z" fill="#FE1D00"/>
<path d="M212.5 223.463C213.592 222.962 214.791 222.739 215.991 222.815C217.402 222.974 218.713 223.62 219.699 224.641C220.684 225.663 221.284 226.995 221.394 228.411C224.192 228.017 226.268 225.737 228.418 223.905C231.506 221.273 235.387 219.296 239.458 219.448C243.529 219.599 247.62 222.321 248.428 226.299C248.535 226.806 248.628 227.396 249.073 227.679C249.518 227.962 249.98 227.797 250.453 227.79C251.981 227.762 253.306 229.253 253.258 230.781C253.209 232.309 251.933 233.658 250.436 233.969C249.677 234.098 248.897 234.03 248.172 233.771C247.447 233.512 246.801 233.07 246.296 232.489C245.975 232.123 245.606 231.671 245.119 231.743C244.828 231.825 244.573 232.004 244.398 232.251C242.239 234.574 239.582 236.38 236.627 237.533C233.671 238.685 230.493 239.154 227.331 238.906C226.458 238.866 225.6 238.659 224.806 238.295C222.86 237.291 221.873 234.793 219.769 234.2C218.099 236.577 214.218 236.96 212.13 234.928C211.751 234.583 211.382 234.114 210.864 234.045C209.357 233.848 207.963 236.239 206.403 234.479C205.496 233.444 206.172 232.471 206.569 231.374C207.756 228.076 209.098 224.957 212.5 223.463Z" fill="#FFF3F2"/>
<path d="M282.086 61.2893C282.734 60.9926 283.445 60.8599 284.156 60.9029C284.999 60.9975 285.783 61.3831 286.373 61.9933C286.962 62.6035 287.32 63.4001 287.386 64.2459C289.059 64.0113 290.297 62.6486 291.584 61.5549C293.43 59.9783 295.748 58.7949 298.174 58.8881C300.599 58.9812 303.052 60.6131 303.538 62.9832C303.601 63.2868 303.659 63.6387 303.925 63.8009C304.187 63.8976 304.471 63.9203 304.746 63.8664C305.203 63.8879 305.635 64.087 305.948 64.4213C306.261 64.7557 306.431 65.199 306.423 65.657C306.385 66.1139 306.201 66.5463 305.896 66.8891C305.592 67.232 305.185 67.4667 304.736 67.5579C304.284 67.6348 303.82 67.5939 303.388 67.4392C302.957 67.2845 302.572 67.0212 302.272 66.6747C302.079 66.4574 301.855 66.1848 301.582 66.2297C301.407 66.279 301.254 66.386 301.148 66.5333C299.858 67.9221 298.27 69.001 296.504 69.6893C294.738 70.3775 292.839 70.6573 290.949 70.5077C290.428 70.4857 289.916 70.3626 289.442 70.1454C288.279 69.5451 287.689 68.0513 286.43 67.6994C286.166 68.0384 285.836 68.32 285.46 68.5268C285.084 68.7336 284.669 68.8613 284.242 68.902C283.814 68.9427 283.383 68.8956 282.974 68.7635C282.566 68.6315 282.188 68.4173 281.866 68.1341C281.675 67.8831 281.411 67.6984 281.11 67.6062C280.21 67.4855 279.385 68.9172 278.443 67.865C277.901 67.2543 278.305 66.6644 278.543 66.0054C279.25 64.0458 280.051 62.1828 282.086 61.2893Z" fill="#FFF3F2"/>
<path d="M23.4948 194.949C24.1848 195.37 24.7989 195.95 25.5648 196.167C27.7624 196.785 29.0148 195.353 30.5155 194.097C37.7605 187.887 48.9144 186.162 58.0431 188.125C60.9928 188.756 63.9081 189.795 66.4266 191.485C68.6967 193.01 70.263 196.177 72.8574 197.074C75.2172 197.885 77.1802 195.122 79.5228 194.259C81.7204 193.448 84.3528 194.542 85.6293 196.515C86.9058 198.489 86.8782 201.121 85.8949 203.253C85.3737 204.368 84.6201 205.358 83.6846 206.157C82.7492 206.956 81.6537 207.546 80.4715 207.887C78.0186 208.577 75.4621 208.128 73.054 207.197C72.0421 206.807 70.9405 206.711 69.8765 206.92C68.8124 207.129 67.8293 207.636 67.0407 208.38C65.0921 210.228 62.782 211.652 60.2559 212.563C57.7299 213.475 55.0425 213.853 52.363 213.675C49.6836 213.497 47.07 212.766 44.6869 211.528C42.3038 210.29 40.2028 208.572 38.5161 206.483C37.5915 205.341 36.5185 203.95 35.0488 204.068C33.6688 204.174 32.8029 205.568 31.9128 206.641C31.0227 207.714 29.3115 208.587 28.3386 207.59C27.9556 207.2 27.7831 206.6 27.5968 206.041C27.5315 205.844 27.42 205.666 27.2716 205.521C27.1232 205.376 26.9423 205.269 26.7439 205.208C26.5456 205.148 26.3356 205.136 26.1317 205.173C25.9277 205.211 25.7357 205.296 25.5717 205.423C24.0468 206.6 22.2148 207.421 20.3208 207.252C19.4218 207.17 18.5666 206.825 17.8614 206.262C17.1561 205.698 16.6318 204.94 16.3533 204.081C16.3118 203.94 16.2412 203.809 16.1462 203.696C16.0512 203.583 15.9338 203.491 15.8014 203.426C15.669 203.362 15.5245 203.325 15.3772 203.319C15.2299 203.313 15.0829 203.337 14.9457 203.391C11.8614 204.637 12.3306 201.546 13.959 199.093C16.0669 195.915 19.4617 192.479 23.4948 194.949Z" fill="#FFF3F2"/>
<path d="M178.413 89.1963H108.343C103.51 89.1963 99.5908 93.115 99.5908 97.9489V123.803C99.5908 128.637 103.51 132.556 108.343 132.556H178.413C183.247 132.556 187.166 128.637 187.166 123.803V97.9489C187.166 93.115 183.247 89.1963 178.413 89.1963Z" fill="#FFEFA1"/>
<path d="M187.166 96.4999V96.1549H179.897V89.1963H179.552V96.1687H172.624V89.1963H172.279V96.1687H165.355V89.1963H165.01V96.1687H158.086V89.1963H157.741V96.1687H150.807V89.1963H150.462V96.1687H143.544V89.1963H143.199V96.1687H136.275V89.1963H135.93V96.1687H129.006V89.1963H128.661V96.1687H121.726V89.1963H121.381V96.1687H114.464V89.1963H114.119V96.1687H107.195V89.1963H106.85V96.1687H99.5947V96.5137H106.864V103.452H99.5947V103.797H106.864V110.71H99.5947V111.055H106.864V117.99H99.5947V118.335H106.864V125.235H99.5947V125.58H106.864V132.552H107.209V125.58H114.147V132.552H114.492V125.58H121.43V132.552H121.775V125.58H128.685V132.552H129.03V125.58H135.93V132.552H136.275V125.58H143.213V132.552H143.558V125.58H150.496V132.552H150.841V125.58H157.776V132.552H158.121V125.58H165.058V132.552H165.403V125.58H172.293V132.552H172.638V125.58H179.576V132.552H179.921V125.58H187.19V125.235H179.897V118.311H187.166V117.966H179.897V111.042H187.166V110.697H179.897V103.773H187.166V103.428H179.897V96.4999H187.166ZM172.293 96.4999V103.438H165.355V96.4999H172.293ZM157.751 110.71H150.817V103.773H157.751V110.71ZM158.096 103.773H165.034V110.71H158.086L158.096 103.773ZM150.506 110.71H143.544V103.773H150.482L150.506 110.71ZM143.237 110.71H136.275V103.773H143.213L143.237 110.71ZM135.968 110.71H129.006V103.773H135.93L135.968 110.71ZM128.695 110.71H121.761V103.773H128.685L128.695 110.71ZM121.426 110.71H114.464V103.773H121.402L121.426 110.71ZM121.426 111.055V117.99H114.464V111.042L121.426 111.055ZM121.771 111.055H128.685V117.99H121.751L121.771 111.055ZM129.04 111.055H135.93V117.99H129.006L129.04 111.055ZM136.31 111.055H143.248V117.99H136.275L136.31 111.055ZM143.579 111.055H150.517V117.99H143.544L143.579 111.055ZM150.851 111.055H157.786V117.99H150.851V111.055ZM158.121 111.055H165.058V117.99H158.086L158.121 111.055ZM165.39 111.055H172.293V117.99H165.355L165.39 111.055ZM165.39 110.71V103.773H172.293V110.71H165.39ZM165.045 96.4999V103.438H158.086V96.4999H165.045ZM157.772 96.4999V103.438H150.838V96.4999H157.772ZM150.503 96.4999V103.438H143.544V96.4999H150.503ZM143.234 96.4999V103.438H136.275V96.4999H143.234ZM135.965 96.4999V103.438H129.006V96.4999H135.965ZM128.692 96.4999V103.438H121.758V96.4999H128.692ZM121.423 96.4999V103.438H114.464V96.4999H121.423ZM107.216 96.4999H114.154V103.438H107.195L107.216 96.4999ZM107.216 103.773H114.154V110.71H107.195L107.216 103.773ZM107.216 111.042H114.154V117.99H107.195L107.216 111.042ZM107.216 125.249V118.311H114.154V125.235L107.216 125.249ZM114.485 125.249V118.311H121.423V125.235L114.485 125.249ZM121.758 125.249V118.311H128.685V125.235L121.758 125.249ZM129.027 125.249V118.311H135.93V125.235L129.027 125.249ZM136.275 125.235V118.311H143.213V125.235H136.275ZM143.544 125.235V118.311H150.482V125.235H143.544ZM150.817 125.235V118.311H157.751V125.235H150.817ZM158.086 125.235V118.311H165.024V125.235H158.086ZM165.355 125.235V118.311H172.293V125.235H165.355ZM179.562 125.235H172.624V118.311H179.562V125.235ZM179.562 117.966H172.624V111.042H179.562V117.966ZM179.562 110.697H172.624V103.773H179.562V110.697ZM179.562 103.424H172.624V96.4999H179.562V103.424Z" fill="#E51F29"/>
<path d="M107.195 125.235C107.195 125.235 121.42 129.758 136.275 111.028C150.686 92.8602 163.744 101.213 169.344 105.953C174.943 110.693 181.015 110.262 183.192 105.953" fill="#FE1D00"/>
<path d="M181.998 100.102H199.997V104.783H181.998V100.102Z" fill="#282828"/>
<path d="M183.191 101.73H195.729V102.21H183.191V101.73Z" fill="#FE1D00"/>
<path d="M183.191 102.882H197.892V103.362H183.191V102.882Z" fill="#FE1D00"/>
<path d="M90.0273 119.781H108.026V124.462H90.0273V119.781Z" fill="#282828"/>
<path d="M91.2217 121.412H103.759V121.892H91.2217V121.412Z" fill="#FE1D00"/>
<path d="M123.865 258.008V246.523H127.847L125.021 242.801L134.781 246.523H163.971V258.008H123.865Z" fill="#170C2C"/>
<path d="M106.012 72.0015V80.4713H103.073L105.16 83.2175L97.9596 80.4713H76.4316V72.0015H106.012Z" fill="#A51300"/>
<path d="M291.542 77.6078V86.0775H294.481L292.398 88.8237L299.594 86.0775H321.126V77.6078H291.542Z" fill="#FFEFA1"/>
<path d="M177.857 50.7771V75.2756H186.351L180.324 83.2175L201.145 75.2756H263.404V50.7771H177.857Z" fill="#FE1D00"/>
<path d="M190.185 61.2237C191.267 61.2237 192.145 60.3464 192.145 59.2641C192.145 58.1818 191.267 57.3045 190.185 57.3045C189.103 57.3045 188.226 58.1818 188.226 59.2641C188.226 60.3464 189.103 61.2237 190.185 61.2237Z" fill="#FFEFA1"/>
<path d="M190.185 60.9235C191.191 60.9235 192.156 61.3234 192.868 62.0351C193.58 62.7468 193.98 63.712 193.98 64.7185V66.8299C193.98 67.2764 193.802 67.7047 193.487 68.0204C193.171 68.3361 192.743 68.5135 192.296 68.5135H188.073C187.627 68.5135 187.199 68.3361 186.883 68.0204C186.567 67.7047 186.39 67.2764 186.39 66.8299V64.7185C186.39 63.712 186.789 62.7468 187.501 62.0351C188.213 61.3234 189.178 60.9235 190.185 60.9235Z" fill="#FFEFA1"/>
<path d="M202.905 55.3H258.34V57.3011H202.905V55.3Z" fill="#282828"/>
<path d="M202.905 62.1863H243.453V64.1873H202.905V62.1863Z" fill="#282828"/>
<path d="M202.905 67.8167H215.032V69.8176H202.905V67.8167Z" fill="#282828"/>
<path d="M167.322 162.429H52.2231C50.8054 162.429 49.6562 163.579 49.6562 164.996V233.748C49.6562 235.165 50.8054 236.315 52.2231 236.315H167.322C168.74 236.315 169.889 235.165 169.889 233.748V164.996C169.889 163.579 168.74 162.429 167.322 162.429Z" fill="#FFEFA1"/>
<path d="M169.892 186.814V186.359H159.907V176.785H159.452V186.359H149.927V176.785H149.471V186.359H139.946V176.785H139.49V186.359H129.965V176.785H129.509V186.359H119.984V176.785H119.525V186.359H110.003V176.785H109.544V186.359H100.019V176.785H99.5634V186.359H90.0449V176.785H89.5895V186.359H80.0571V176.785H79.6017V186.359H70.0763V176.785H69.6209V186.359H60.0954V176.785H59.64V186.359H49.6592V186.814H59.64V196.34H49.6592V196.795H59.64V206.31H49.6592V206.765H59.64V216.315H49.6592V216.77H59.64V226.296H49.6592V226.755H59.64V236.325H60.0954V226.741H69.6209V236.325H70.0763V226.741H79.6017V236.325H80.0571V226.741H89.5826V236.325H90.0449V226.741H99.5703V236.325H100.026V226.741H109.551V236.325H110.01V226.741H119.532V236.325H119.991V226.741H129.516V236.325H129.972V226.741H139.497V236.325H139.953V226.741H149.478V236.325H149.933V226.741H159.459V236.325H159.914V226.741H169.899V226.282H159.907V216.757H169.892V216.315H159.907V206.776H169.892V206.31H159.907V196.795H169.892V196.34H159.907V186.814H169.892ZM149.471 186.814V196.34H139.946V186.814H149.471ZM129.509 206.31H119.984V196.795H129.509V206.31ZM129.965 196.785H139.49V206.31H129.965V196.785ZM119.525 206.31H110.003V196.795H119.525V206.31ZM109.544 206.31H100.019V196.795H109.544V206.31ZM99.5634 206.31H90.0449V196.795H99.5703L99.5634 206.31ZM89.5826 206.31H80.0571V196.795H89.5826V206.31ZM79.6017 206.31H70.0763V196.795H79.6017V206.31ZM79.6017 206.765V216.315H70.0763V206.776L79.6017 206.765ZM80.0571 206.765H89.5826V216.315H80.0571V206.765ZM90.038 206.765H99.5634V216.315H90.0449L90.038 206.765ZM100.019 206.765H109.544V216.315H100.019V206.765ZM110.003 206.765H119.525V216.315H110.003V206.765ZM119.984 206.765H129.509V216.315H119.984V206.765ZM129.965 206.765H139.49V216.315H129.965V206.765ZM139.946 206.765H149.471V216.315H139.946V206.765ZM139.946 206.31V196.795H149.471V206.31H139.946ZM139.49 186.804V196.34H129.965V186.814L139.49 186.804ZM129.509 186.804V196.34H119.984V186.814L129.509 186.804ZM119.525 186.804V196.34H110.003V186.814L119.525 186.804ZM109.544 186.804V196.34H100.019V186.814L109.544 186.804ZM99.5634 186.804V196.34H90.0449V186.814L99.5634 186.804ZM89.5826 186.804V196.34H80.0571V186.814L89.5826 186.804ZM79.6017 186.804V196.34H70.0763V186.814L79.6017 186.804ZM60.0954 186.804H69.6209V196.34H60.0954V186.804ZM60.0954 196.785H69.6209V206.31H60.0954V196.785ZM60.0954 206.765H69.6209V216.315H60.0954V206.765ZM60.0954 226.272V216.757H69.6209V226.282L60.0954 226.272ZM70.0763 226.272V216.757H79.6017V226.282L70.0763 226.272ZM80.0571 226.272V216.757H89.5826V226.282L80.0571 226.272ZM90.038 226.272V216.757H99.5634V226.282L90.038 226.272ZM100.019 226.272V216.757H109.544V226.282L100.019 226.272ZM110.003 226.272V216.757H119.525V226.282L110.003 226.272ZM119.984 226.272V216.757H129.509V226.282L119.984 226.272ZM129.965 226.272V216.757H139.49V226.282L129.965 226.272ZM139.946 226.272V216.757H149.471V226.282L139.946 226.272ZM159.452 226.272H149.927V216.757H159.452V226.272ZM159.452 216.291H149.927V206.776H159.452V216.291ZM159.452 206.31H149.927V196.795H159.452V206.31ZM159.452 196.329H149.927V186.814H159.452V196.329Z" fill="#E0CE85"/>
<path d="M70.0762 226.282L79.6016 216.757L99.5633 206.776H119.525L139.49 196.795L149.471 186.814" stroke="#282828" stroke-width="2" stroke-miterlimit="10" stroke-linecap="round"/>
<path d="M139.67 197.757C140.301 197.757 140.812 197.246 140.812 196.616C140.812 195.985 140.301 195.474 139.67 195.474C139.04 195.474 138.528 195.985 138.528 196.616C138.528 197.246 139.04 197.757 139.67 197.757Z" fill="#FE1D00"/>
<path d="M119.805 207.69C120.436 207.69 120.947 207.179 120.947 206.548C120.947 205.917 120.436 205.406 119.805 205.406C119.174 205.406 118.663 205.917 118.663 206.548C118.663 207.179 119.174 207.69 119.805 207.69Z" fill="#FE1D00"/>
<path d="M99.8226 207.69C100.453 207.69 100.965 207.179 100.965 206.548C100.965 205.917 100.453 205.406 99.8226 205.406C99.1919 205.406 98.6807 205.917 98.6807 206.548C98.6807 207.179 99.1919 207.69 99.8226 207.69Z" fill="#FE1D00"/>
<path d="M79.892 217.65C80.5226 217.65 81.0339 217.139 81.0339 216.508C81.0339 215.877 80.5226 215.366 79.892 215.366C79.2613 215.366 78.75 215.877 78.75 216.508C78.75 217.139 79.2613 217.65 79.892 217.65Z" fill="#FE1D00"/>
<path d="M70.0765 227.424C70.7072 227.424 71.2185 226.913 71.2185 226.282C71.2185 225.651 70.7072 225.14 70.0765 225.14C69.4458 225.14 68.9346 225.651 68.9346 226.282C68.9346 226.913 69.4458 227.424 70.0765 227.424Z" fill="#FE1D00"/>
<path d="M149.648 187.604C150.278 187.604 150.79 187.093 150.79 186.462C150.79 185.831 150.278 185.32 149.648 185.32C149.017 185.32 148.506 185.831 148.506 186.462C148.506 187.093 149.017 187.604 149.648 187.604Z" fill="#FE1D00"/>
<path d="M121.657 207.942H132.88V210.743H121.657V207.942Z" fill="#282828"/>
<path d="M151.894 183.661H163.116V186.462H151.894V183.661Z" fill="#282828"/>
<path d="M65.6084 213.966H76.8313V216.767H65.6084V213.966Z" fill="#282828"/>
<path d="M165.252 171.772H54.7485C54.5789 171.772 54.4414 171.91 54.4414 172.079V172.083C54.4414 172.252 54.5789 172.39 54.7485 172.39H165.252C165.422 172.39 165.559 172.252 165.559 172.083V172.079C165.559 171.91 165.422 171.772 165.252 171.772Z" fill="#282828"/>
<path d="M54.4414 166.262H91.1943V172.079H54.4414V166.262Z" fill="#282828"/>
<path d="M39.3232 120.495H42.7353V146.918H39.3232V120.495Z" fill="#282828"/>
<path d="M42.7314 128.295H46.1435V146.918H42.7314V128.295Z" fill="#FE1D00"/>
<path d="M46.1436 124.335H49.5556V146.918H46.1436V124.335Z" fill="#282828"/>
<path d="M49.5557 126.794H52.9677V146.918H49.5557V126.794Z" fill="#FE1D00"/>
<path d="M52.9648 133.708H56.3769V146.918H52.9648V133.708Z" fill="#282828"/>
<path d="M56.376 115.541H59.788V146.922H56.376V115.541Z" fill="#FE1D00"/>
<path d="M59.7881 117.811H63.2001V146.922H59.7881V117.811Z" fill="#282828"/>
<path d="M63.2002 142.782H66.6122V146.918H63.2002V142.782Z" fill="#FE1D00"/>
<path d="M66.6094 130.389H70.0214V146.918H66.6094V130.389Z" fill="#282828"/>
<path d="M70.0215 134.647H73.4335V146.918H70.0215V134.647Z" fill="#FE1D00"/>
<path d="M316.745 122.751H295.924C295.051 122.751 294.344 123.458 294.344 124.331V137.696C294.344 138.569 295.051 139.276 295.924 139.276H316.745C317.617 139.276 318.325 138.569 318.325 137.696V124.331C318.325 123.458 317.617 122.751 316.745 122.751Z" fill="#FFEFA1"/>
<path d="M320.661 128.94C323.877 128.94 326.484 126.333 326.484 123.117C326.484 119.9 323.877 117.293 320.661 117.293C317.444 117.293 314.837 119.9 314.837 123.117C314.837 126.333 317.444 128.94 320.661 128.94Z" fill="#282828"/>
<path d="M299.363 126.774H304.766V128.136H299.363V126.774Z" fill="#FE1D00"/>
<path d="M299.363 128.871H304.766V130.234H299.363V128.871Z" fill="#FE1D00"/>
<path d="M299.363 131.994H304.766V132.194H299.363V131.994Z" fill="#282828"/>
<path d="M299.363 132.715H304.766V132.915H299.363V132.715Z" fill="#282828"/>
<path d="M299.363 133.436H304.766V133.636H299.363V133.436Z" fill="#282828"/>
<path d="M299.363 134.157H304.766V134.357H299.363V134.157Z" fill="#282828"/>
<path d="M299.363 134.878H304.766V135.078H299.363V134.878Z" fill="#282828"/>
<path d="M306.694 126.774H313.253V135.078H306.694V126.774Z" stroke="#282828" stroke-width="2" stroke-miterlimit="10"/>
<path d="M271.805 104.808H268.393V78.384H271.805V104.808Z" fill="#FFEFA1"/>
<path d="M268.396 104.808H264.984V95.496H268.396V104.808Z" fill="#FE1D00"/>
<path d="M275.203 104.808H271.791V92.9706H275.203V104.808Z" fill="#FE1D00"/>
<path d="M264.984 104.808H261.572V87.1228H264.984V104.808Z" fill="#FFEFA1"/>
<path d="M278.615 104.808H275.203V84.2939H278.615V104.808Z" fill="#FFEFA1"/>
<path d="M261.572 104.808H258.16V98.1491H261.572V104.808Z" fill="#FE1D00"/>
<path d="M237.733 106.405C241.822 106.405 245.136 103.09 245.136 99.0012C245.136 94.9123 241.822 91.5975 237.733 91.5975C233.644 91.5975 230.329 94.9123 230.329 99.0012C230.329 103.09 233.644 106.405 237.733 106.405Z" stroke="#170C2C" stroke-width="2" stroke-linecap="round" stroke-linejoin="round"/>
<path d="M241.134 88.32C237.219 86.7502 233.034 87.9922 231.788 91.0972C231.632 91.488 231.526 91.8973 231.474 92.3151C231.005 92.3958 230.556 92.5705 230.155 92.8288C229.754 93.087 229.41 93.4235 229.142 93.8181C228.875 94.2126 228.689 94.6571 228.598 95.1249C228.506 95.5928 228.509 96.0743 228.608 96.5407C228.707 97.0072 228.899 97.4489 229.172 97.8394C229.446 98.2299 229.795 98.5612 230.199 98.8135C230.604 99.0658 231.055 99.2338 231.526 99.3076C231.997 99.3813 232.478 99.3593 232.941 99.2427C234.164 98.949 235.449 99.0579 236.605 99.5532H236.625C240.544 101.123 244.729 99.881 245.975 96.7759C247.22 93.6709 245.054 89.8759 241.134 88.32Z" fill="#170C2C"/>
<path d="M303.945 291.991H273.765C269.894 291.991 268.245 287.057 271.35 284.746L276.749 280.727C272.336 247.017 263.984 210.857 253.634 177.365C253.634 177.365 236.363 204.371 228.173 216.874C230.618 226.212 233.059 235.553 235.497 244.898C236.417 248.436 237.337 251.971 238.257 255.504C241.431 267.648 244.63 279.847 247.804 291.991H215.494C214.739 291.991 214.004 291.755 213.39 291.316C212.776 290.876 212.316 290.255 212.074 289.54C211.832 288.825 211.82 288.052 212.04 287.33C212.26 286.608 212.7 285.974 213.3 285.515L218.096 281.865C218.096 281.865 205.917 243.539 201.711 224.378C200.628 219.444 199.538 214.373 200.231 209.374C200.77 205.506 202.346 201.863 203.992 198.316C210.881 183.503 219.264 169.431 229.011 156.32C236.329 146.48 245.316 138.38 258.364 138.859C264.505 139.087 270.988 141.312 275.711 145.317C276.05 145.602 276.372 145.907 276.673 146.232C277.034 146.61 277.373 147.008 277.687 147.425C280.792 151.538 282.172 157.579 283.352 162.26C284.417 166.534 285.443 170.822 286.43 175.125C286.837 176.896 287.238 178.671 287.634 180.449C295.802 217.179 301.254 254.46 303.945 291.991Z" fill="#170C2C"/>
<path d="M249.28 162.495C249.28 162.495 252.637 173.618 254.338 179.535" stroke="white" stroke-width="2" stroke-linecap="round" stroke-linejoin="round"/>
<path d="M226.561 114.416C219.576 123.469 212.211 132.221 204.464 140.674C200.859 135.53 196.981 130.348 193.376 125.204C192.863 124.556 192.469 123.822 192.21 123.037C192.068 122.387 192.02 121.72 192.068 121.057L192.158 117.062C192.235 116.122 192.142 115.175 191.886 114.267C191.567 113.489 191.12 112.77 190.564 112.139C188.97 110.119 187.3 108.164 185.555 106.274C185.328 106.022 185.032 105.842 184.704 105.758C184.375 105.673 184.029 105.687 183.709 105.798C182.56 106.236 182.753 107.674 183.129 108.713C183.631 110.1 184.233 111.449 184.93 112.749C185.432 113.703 185.574 114.805 185.331 115.854C184.682 118.666 183.923 121.519 183.33 124.314C183.33 124.207 183.547 125.004 183.561 124.897" stroke="#170C2C" stroke-width="2" stroke-linecap="round" stroke-linejoin="round"/>
<path d="M184.23 126.66C183.332 124.195 182.309 121.777 181.167 119.415C180.753 118.563 179.997 117.566 179.097 117.855C178.389 118.083 178.165 118.959 178.062 119.694C177.62 122.864 177.326 126.049 177.178 129.251C177.116 130.555 177.085 131.893 177.523 133.125C177.895 134.067 178.4 134.951 179.021 135.751C184.897 144.076 191.232 152.068 197.996 159.69C200.756 162.795 205.606 163.54 209.125 161.308C210.474 160.453 211.571 159.255 212.648 158.069C218.793 151.297 224.773 144.38 230.588 137.317" stroke="#170C2C" stroke-width="2" stroke-linecap="round" stroke-linejoin="round"/>
<path d="M228.511 139.773L217.892 125.283" stroke="#170C2C" stroke-width="2" stroke-linecap="round" stroke-linejoin="round"/>
<path d="M268.68 105.015C274.545 109.358 279.72 114.578 284.864 119.777C286.763 121.698 288.662 123.618 290.56 125.539C292.547 127.55 294.551 129.585 295.948 132.031C297.929 135.509 297.929 139.535 297.077 143.341C296.224 147.146 294.948 150.793 293.668 154.45L285.191 178.672C284.821 179.876 284.314 181.033 283.68 182.122C282.964 183.225 282.003 184.147 280.871 184.816C279.739 185.486 278.468 185.884 277.156 185.979" stroke="#170C2C" stroke-width="2" stroke-linecap="round" stroke-linejoin="round"/>
<path d="M263.877 128.357C268.631 132.7 273.544 136.861 278.615 140.843C276.852 146.78 273.685 152.6 271.167 158.258C268.648 163.916 266.703 170.092 267.503 176.233C268.424 183.312 272.888 189.446 277.963 194.466C278.519 195.015 279.164 195.591 279.944 195.598C281.099 195.598 281.907 194.294 281.8 193.141C281.693 191.989 280.965 191.002 280.264 190.081L274.71 182.774" stroke="#170C2C" stroke-width="2" stroke-linecap="round" stroke-linejoin="round"/>
<path d="M280.261 195.563C280.611 196.331 280.745 197.181 280.647 198.02C280.63 198.331 280.552 198.635 280.415 198.916C280.279 199.196 280.088 199.446 279.854 199.651C279.623 199.807 279.361 199.913 279.087 199.962C278.812 200.011 278.53 200.001 278.26 199.934C277.709 199.815 277.2 199.549 276.787 199.165C276.007 198.475 275.438 197.464 274.965 196.512C273.125 192.843 271.407 189.121 269.811 185.344C269.466 184.502 269.121 183.65 268.793 182.791C268.14 181.128 267.768 179.367 267.692 177.582" stroke="#170C2C" stroke-width="2" stroke-linecap="round" stroke-linejoin="round"/>
<path d="M276.787 199.165C276.503 199.788 276.025 200.302 275.424 200.631C274.977 200.877 274.465 200.98 273.958 200.925C273.451 200.87 272.973 200.66 272.589 200.324C271.899 199.672 271.743 198.668 271.609 197.737C270.875 192.72 269.937 187.74 268.794 182.795C268.638 182.105 268.476 181.415 268.311 180.749" stroke="#170C2C" stroke-width="2" stroke-linecap="round" stroke-linejoin="round"/>
<path d="M268.39 132.387C271.857 125.695 274.466 118.593 276.156 111.249" stroke="#170C2C" stroke-width="2" stroke-linecap="round" stroke-linejoin="round"/>
<path d="M277.152 185.983C278.464 185.889 279.735 185.491 280.867 184.822C281.998 184.153 282.959 183.23 283.673 182.125C284.31 181.039 284.817 179.881 285.184 178.675L286.422 175.139" stroke="white" stroke-width="2" stroke-linecap="round" stroke-linejoin="round"/>
<path d="M276.69 146.232C275.003 150.31 272.936 154.325 271.17 158.258C268.651 163.916 266.685 170.088 267.499 176.233C268.424 183.309 272.884 189.443 277.959 194.463C278.518 195.015 279.16 195.587 279.947 195.601C280.053 195.6 280.16 195.589 280.264 195.567C281.247 195.363 281.892 194.187 281.796 193.152C281.696 191.999 280.968 191.016 280.264 190.088C279.227 188.729 278.192 187.364 277.159 185.993L274.716 182.788" stroke="white" stroke-width="2" stroke-linecap="round" stroke-linejoin="round"/>
<path d="M280.261 195.563C280.611 196.331 280.745 197.181 280.647 198.02C280.63 198.331 280.552 198.636 280.415 198.916C280.279 199.196 280.088 199.446 279.854 199.652C279.623 199.807 279.361 199.913 279.087 199.962C278.812 200.011 278.53 200.001 278.26 199.934C277.709 199.815 277.2 199.549 276.787 199.165C276.007 198.475 275.438 197.464 274.965 196.512C273.125 192.844 271.407 189.121 269.811 185.344C269.466 184.503 269.121 183.65 268.793 182.791C268.14 181.128 267.768 179.367 267.692 177.582" stroke="white" stroke-width="2" stroke-linecap="round" stroke-linejoin="round"/>
<path d="M276.786 199.165C276.502 199.788 276.024 200.302 275.423 200.631C274.976 200.877 274.464 200.98 273.957 200.925C273.45 200.87 272.972 200.66 272.588 200.324C271.898 199.672 271.742 198.668 271.608 197.737C270.874 192.72 269.936 187.74 268.793 182.795C268.637 182.105 268.475 181.415 268.31 180.749" stroke="white" stroke-width="2" stroke-linecap="round" stroke-linejoin="round"/>
<path d="M261.934 127.101C259.468 128.054 256.89 128.93 254.262 129.751C252.882 130.177 251.502 130.588 250.122 130.986C249.207 131.241 248.293 131.497 247.362 131.745L245.668 132.194C241.983 133.163 238.305 134.043 234.772 134.874C233.894 132.985 233.312 130.972 233.047 128.906C233.003 128.561 232.961 128.233 232.93 127.892C232.833 126.904 232.786 125.913 232.789 124.921C232.785 124.887 232.785 124.852 232.789 124.818C232.789 124.7 232.789 124.586 232.789 124.473V124.404C232.789 124.059 232.809 123.696 232.827 123.344C232.827 123.3 232.827 123.248 232.827 123.203C232.827 123.158 232.827 123.12 232.827 123.082C232.827 122.906 232.847 122.737 232.865 122.568V122.537C232.865 122.447 232.865 122.358 232.885 122.271C232.885 122.213 232.885 122.161 232.885 122.113C232.884 122.091 232.884 122.069 232.885 122.047C232.884 122.039 232.884 122.031 232.885 122.023C232.885 121.937 232.906 121.851 232.913 121.771C232.934 121.592 232.954 121.426 232.978 121.233C233.03 120.847 233.085 120.467 233.158 120.095C233.23 119.722 233.303 119.315 233.392 118.939C233.461 118.642 233.534 118.352 233.62 118.066C235.29 112.211 239.344 107.733 246.33 107.64C247.085 107.627 247.84 107.679 248.586 107.795C248.931 107.854 249.276 107.926 249.621 108.016C251.409 108.49 253.033 109.445 254.317 110.776C254.4 110.859 254.475 110.942 254.555 111.028C254.555 111.028 254.586 111.062 254.603 111.08C254.961 111.467 255.295 111.876 255.604 112.304L255.621 112.325C255.635 112.345 255.648 112.366 255.659 112.387C255.675 112.403 255.689 112.422 255.7 112.442C255.804 112.58 255.9 112.722 255.997 112.87C256.02 112.895 256.04 112.923 256.056 112.953C256.128 113.06 256.194 113.167 256.263 113.281C256.525 113.705 256.787 114.133 257.035 114.561C257.239 114.906 257.439 115.251 257.629 115.596C258.215 116.665 258.76 117.755 259.254 118.877C259.399 119.198 259.537 119.525 259.671 119.853C259.699 119.912 259.723 119.974 259.747 120.036C259.83 120.243 260.161 121.14 260.547 122.223C260.547 122.229 260.547 122.235 260.547 122.24C260.585 122.344 260.623 122.451 260.658 122.558C260.668 122.577 260.675 122.598 260.679 122.62C260.92 123.31 261.165 124.028 261.369 124.69C261.37 124.699 261.37 124.708 261.369 124.718C261.374 124.739 261.381 124.759 261.389 124.78C261.391 124.789 261.391 124.798 261.389 124.807C261.391 124.817 261.391 124.828 261.389 124.838C261.389 124.838 261.389 124.838 261.389 124.859C261.389 124.88 261.389 124.883 261.389 124.897C261.424 125.011 261.458 125.128 261.496 125.242C261.886 126.294 262.065 127.05 261.934 127.101Z" fill="#FE1D00"/>
<path d="M249.629 108.002C245.972 112.202 241.732 115.857 237.04 118.856C236.674 119.091 236.309 119.318 235.936 119.546C234.977 120.132 233.998 120.69 233 121.219C233.052 120.833 233.107 120.453 233.179 120.081C233.669 119.812 234.158 119.534 234.646 119.249L235.743 118.59C240.528 115.633 244.856 111.993 248.591 107.785C248.946 107.84 249.291 107.913 249.629 108.002Z" fill="#FFEFA1"/>
<path d="M259.699 119.891C258.303 120.05 256.908 120.183 255.514 120.291L254.41 120.371C251.13 120.603 247.84 120.669 244.553 120.567C241.653 120.478 238.767 120.131 235.928 119.532C235.493 119.439 235.066 119.339 234.638 119.235C234.21 119.132 233.813 119.025 233.406 118.911C233.475 118.614 233.548 118.325 233.634 118.038C234.324 118.242 235.014 118.418 235.735 118.577C236.166 118.673 236.598 118.763 237.032 118.846C242.87 119.97 248.949 119.881 254.931 119.353L256.031 119.253C257.119 119.149 258.2 119.034 259.274 118.908C259.44 119.235 259.564 119.563 259.699 119.891Z" fill="#FFEFA1"/>
<path d="M257.657 115.634C257.169 116.871 256.63 118.081 256.039 119.263C255.866 119.608 255.694 119.953 255.514 120.298C253.639 123.813 251.383 127.11 248.787 130.131C248.521 130.441 248.256 130.748 247.983 131.052C247.776 131.286 247.566 131.517 247.355 131.742L245.661 132.19C246.025 131.813 246.381 131.431 246.731 131.045C247.007 130.745 247.276 130.441 247.541 130.134C250.187 127.144 252.491 123.868 254.41 120.367C254.593 120.022 254.755 119.698 254.938 119.36C255.739 117.81 256.449 116.214 257.063 114.581C257.267 114.933 257.467 115.282 257.657 115.634Z" fill="#FFEFA1"/>
<path d="M254.265 129.751C252.885 130.177 251.505 130.588 250.125 130.986C249.419 131.021 248.713 131.04 248.007 131.045C247.59 131.045 247.172 131.045 246.755 131.045C242.108 131.031 237.491 130.308 233.062 128.902C233.017 128.557 232.975 128.23 232.944 127.888C237.659 129.446 242.601 130.206 247.565 130.134H248.811C250.608 130.065 252.43 129.951 254.265 129.751Z" fill="#FFEFA1"/>
<path d="M218.096 281.848L245.875 284.604" stroke="white" stroke-width="2" stroke-linecap="round" stroke-linejoin="round"/>
<path d="M276.756 280.716L303.273 283.228" stroke="white" stroke-width="2" stroke-linecap="round" stroke-linejoin="round"/>
<path d="M275.313 138.207L281.037 142.775" stroke="#170C2C" stroke-width="2" stroke-linecap="round" stroke-linejoin="round"/>
<path d="M207.39 137.451L202.277 143.082" stroke="#170C2C" stroke-width="2" stroke-linecap="round" stroke-linejoin="round"/>
</svg>
