<svg width="346" height="346" viewBox="0 0 346 346" fill="none" xmlns="http://www.w3.org/2000/svg">
<path d="M313.461 310.706H26.8076C28.0634 308.381 29.6677 306.463 31.5962 304.317C39.0137 296.123 47.5421 287.36 58.5649 286.508C68.9149 285.711 78.2299 292.166 87.6622 296.554C110.884 307.363 139.495 305.683 161.292 292.224C168.02 288.084 175.12 282.633 182.913 283.979C186.601 284.614 189.841 286.739 192.956 288.809L209.171 299.563C211.345 301.005 213.722 302.505 216.33 302.388C223.861 302.043 224.955 291.741 227.598 286.632C228.591 284.728 230.054 282.934 231.983 281.968C235.191 280.356 236.902 283.023 238.717 285.255C242.671 290.12 246.352 295.209 250.178 300.177C251.482 301.877 252.979 303.699 255.087 304.075C259.069 304.765 261.873 300.101 265.737 298.9C269.008 297.889 272.441 299.525 275.57 300.911C287.586 306.245 300.092 309.795 313.461 310.706Z" fill="#2900BC"/>
<path opacity="0.2" d="M43.0542 122.471H112.361C113.051 119.149 113.531 115.571 112.392 112.363C111.254 109.154 107.521 106.629 104.426 108.036C101.984 109.147 100.121 112.404 97.5539 111.61C96.4913 111.283 95.7806 110.313 95.1009 109.433C91.4715 104.728 86.4483 100.915 80.6454 99.6251C74.8425 98.3348 68.2772 99.877 64.2821 104.276C61.4186 107.432 60.0903 111.659 57.834 115.274C57.5319 115.842 57.0903 116.324 56.5506 116.675C54.7325 117.672 52.7556 115.64 50.6856 115.295C48.5742 114.95 46.4042 116.882 46.5042 119.018C46.3205 118.703 46.0758 118.428 45.7843 118.209C45.4929 117.99 45.1606 117.832 44.8071 117.743C44.4536 117.654 44.0859 117.637 43.7256 117.692C43.3654 117.748 43.0198 117.875 42.7092 118.065C41.4983 118.9 42.0813 121.364 43.0542 122.471Z" fill="#603BE5"/>
<path d="M299.872 129.612H233.5C232.715 129.612 232.079 130.248 232.079 131.033V144.861C232.079 145.646 232.715 146.282 233.5 146.282H299.872C300.657 146.282 301.293 145.646 301.293 144.861V131.033C301.293 130.248 300.657 129.612 299.872 129.612Z" fill="#762AE2"/>
<path d="M234.277 141.004C236.603 139.079 240.039 139.324 242.902 140.242C245.766 141.159 248.512 142.657 251.527 142.929C255.585 143.305 259.5 141.415 262.957 139.259C266.414 137.102 269.757 134.591 273.68 133.48C277.806 132.334 282.216 132.828 285.986 134.86C288.246 136.091 290.233 137.865 292.672 138.689C293.514 138.976 294.459 139.134 295.273 138.779C295.963 138.475 296.457 137.847 296.916 137.247L299.31 134.101" stroke="#E7DCFF" stroke-width="2" stroke-linecap="round" stroke-linejoin="round"/>
<path d="M239.683 140.703C240.302 140.703 240.804 140.201 240.804 139.582C240.804 138.963 240.302 138.461 239.683 138.461C239.064 138.461 238.562 138.963 238.562 139.582C238.562 140.201 239.064 140.703 239.683 140.703Z" fill="black"/>
<path d="M250.561 143.892C251.18 143.892 251.682 143.39 251.682 142.771C251.682 142.151 251.18 141.649 250.561 141.649C249.941 141.649 249.439 142.151 249.439 142.771C249.439 143.39 249.941 143.892 250.561 143.892Z" fill="black"/>
<path d="M262.201 140.703C262.821 140.703 263.323 140.201 263.323 139.582C263.323 138.963 262.821 138.461 262.201 138.461C261.582 138.461 261.08 138.963 261.08 139.582C261.08 140.201 261.582 140.703 262.201 140.703Z" fill="black"/>
<path d="M270.698 135.698C271.318 135.698 271.82 135.196 271.82 134.576C271.82 133.957 271.318 133.455 270.698 133.455C270.079 133.455 269.577 133.957 269.577 134.576C269.577 135.196 270.079 135.698 270.698 135.698Z" fill="black"/>
<path d="M281.666 134.405C282.285 134.405 282.787 133.903 282.787 133.283C282.787 132.664 282.285 132.162 281.666 132.162C281.047 132.162 280.545 132.664 280.545 133.283C280.545 133.903 281.047 134.405 281.666 134.405Z" fill="black"/>
<path d="M291.912 139.569C292.531 139.569 293.033 139.067 293.033 138.448C293.033 137.828 292.531 137.326 291.912 137.326C291.293 137.326 290.791 137.828 290.791 138.448C290.791 139.067 291.293 139.569 291.912 139.569Z" fill="black"/>
<path d="M299.309 135.222C299.928 135.222 300.43 134.72 300.43 134.101C300.43 133.481 299.928 132.979 299.309 132.979C298.69 132.979 298.188 133.481 298.188 134.101C298.188 134.72 298.69 135.222 299.309 135.222Z" fill="black"/>
<path d="M122.71 159.055H48.4077C46.4356 159.055 44.8369 160.653 44.8369 162.625V196.949C44.8369 198.922 46.4356 200.52 48.4077 200.52H122.71C124.682 200.52 126.281 198.922 126.281 196.949V162.625C126.281 160.653 124.682 159.055 122.71 159.055Z" fill="#FE1D00"/>
<path d="M85.5575 196.763C94.9339 196.763 102.535 189.161 102.535 179.785C102.535 170.409 94.9339 162.808 85.5575 162.808C76.1811 162.808 68.5801 170.409 68.5801 179.785C68.5801 189.161 76.1811 196.763 85.5575 196.763Z" fill="#762AE2"/>
<path d="M124.46 199.064C124.677 199.543 124.877 200.026 125.07 200.516H123.604C123.338 199.859 123.036 199.216 122.7 198.591C121.037 195.541 118.17 193.83 114.631 194.555C111.198 195.245 108.676 197.777 106.661 200.516H104.984C106.018 198.974 107.224 197.553 108.579 196.283C111.263 193.868 115.038 192.292 118.657 193.333C121.486 194.148 123.287 196.49 124.46 199.064Z" fill="white"/>
<path d="M124.056 169.915C121.912 170.355 119.81 170.975 117.77 171.768C113.823 173.327 110.525 175.753 107.317 178.485C104.056 181.269 100.803 184.209 96.7631 185.809C94.4895 186.71 91.971 187.145 89.6112 186.727C90.3909 185.692 91.1327 184.678 91.8468 183.622C93.8685 180.659 95.7557 177.115 95.321 173.407C94.976 170.56 93.3614 167.704 90.5634 166.683C87.4584 165.544 84.0843 167.235 82.1282 169.677C81.2547 170.811 80.6208 172.11 80.265 173.496C79.9091 174.882 79.8388 176.326 80.0582 177.74C80.6481 182.097 83.4357 185.823 87.3032 187.427C82.9355 192.754 77.5535 197.398 70.9536 199.592C69.788 199.979 68.5973 200.286 67.3898 200.51H72.4371C73.4975 200.109 74.5341 199.648 75.5421 199.13C80.7171 196.477 85.0434 192.433 88.6832 187.9C89.7552 188.182 90.8639 188.298 91.971 188.245C100.251 187.917 105.754 180.973 111.981 176.47C115.431 173.983 119.305 172.406 123.425 171.437C124.346 171.219 125.305 171.005 126.278 170.843V169.463C125.536 169.608 124.794 169.76 124.056 169.915ZM88.176 186.355C87.3329 186.067 86.5384 185.653 85.8197 185.126C80.5515 181.276 79.2647 171.916 85.6817 168.449C89.3835 166.448 92.9612 168.894 93.8271 172.689C94.7793 176.829 92.2125 180.821 89.9114 184.036C89.3525 184.819 88.7763 185.592 88.176 186.355ZM65.0058 159.055C65.0353 161.171 64.6594 163.273 63.8984 165.247C63.4445 166.43 62.8662 167.561 62.1734 168.622C62.08 168.34 61.9647 168.067 61.8284 167.804C60.231 164.827 56.2256 164.302 53.3517 165.565C50.7677 166.7 48.2768 169.777 49.398 172.727C50.4779 175.58 53.8175 175.929 56.3739 175.108C58.1048 174.518 59.6738 173.531 60.9555 172.227C60.4932 174.245 59.3099 176.305 58.4957 177.795C56.4852 181.416 54.9951 185.302 54.0693 189.339C53.6237 191.334 53.3216 193.359 53.1654 195.397C53.0412 196.998 52.8791 198.819 54.1349 200.044C54.3149 200.219 54.51 200.377 54.7179 200.517H58.9338L58.5405 200.437C57.5676 200.22 56.4947 199.982 55.6356 199.465C54.4799 198.775 54.4074 197.65 54.4661 196.418C54.5839 194.158 54.8967 191.911 55.401 189.704C56.367 185.368 58.1231 181.469 60.1896 177.564C61.2764 175.494 62.546 172.944 62.508 170.491C63.0335 169.811 63.513 169.097 63.9432 168.352C65.5585 165.523 66.3842 162.312 66.3341 159.055H65.0058ZM56.7569 173.507C55.4079 174.086 53.7002 174.459 52.2719 173.883C50.5986 173.193 50.1225 171.347 50.8194 169.781C52.2374 166.593 57.3227 164.851 59.9757 167.59C60.6293 168.258 61.0305 169.132 61.1108 170.064C59.9529 171.54 58.4606 172.72 56.7569 173.507Z" fill="white"/>
<path d="M81.3556 187.286V172.285C81.3529 172.078 81.4125 171.875 81.5264 171.703C81.6404 171.53 81.8036 171.395 81.9949 171.316C82.1862 171.237 82.3969 171.217 82.5996 171.259C82.8024 171.3 82.9879 171.402 83.1323 171.551L90.6326 179.051C90.7296 179.147 90.8066 179.262 90.8592 179.388C90.9117 179.514 90.9388 179.649 90.9388 179.786C90.9388 179.922 90.9117 180.058 90.8592 180.184C90.8066 180.31 90.7296 180.424 90.6326 180.521L83.1323 188.021C82.9879 188.169 82.8024 188.271 82.5996 188.313C82.3969 188.355 82.1862 188.335 81.9949 188.256C81.8036 188.176 81.6404 188.042 81.5264 187.869C81.4125 187.696 81.3529 187.493 81.3556 187.286Z" fill="white"/>
<path d="M268.211 157.612H208.913C207.912 157.612 207.102 158.423 207.102 159.424V176.812C207.102 177.812 207.912 178.623 208.913 178.623H268.211C269.212 178.623 270.023 177.812 270.023 176.812V159.424C270.023 158.423 269.212 157.612 268.211 157.612Z" fill="#2EB9FF"/>
<path d="M226.549 162.881H214.96C214.526 162.881 214.174 163.233 214.174 163.667V174.193C214.174 174.628 214.526 174.98 214.96 174.98H226.549C226.983 174.98 227.336 174.628 227.336 174.193V163.667C227.336 163.233 226.983 162.881 226.549 162.881Z" fill="white"/>
<path d="M230.823 162.881H254.728V164.737H230.823V162.881Z" fill="#FFCC66"/>
<path d="M230.823 167.076H258.292V168.932H230.823V167.076Z" fill="#FFCC66"/>
<path d="M230.823 171.268H240.576V173.124H230.823V171.268Z" fill="#FFCC66"/>
<path d="M216.326 165.344H225.179V172.516H216.326V165.344Z" fill="#FFCC66"/>
<path d="M217.83 167.759C218.327 167.759 218.731 167.356 218.731 166.858C218.731 166.361 218.327 165.958 217.83 165.958C217.333 165.958 216.93 166.361 216.93 166.858C216.93 167.356 217.333 167.759 217.83 167.759Z" fill="#762AE2"/>
<path d="M262.463 162.225C262.732 162.225 262.949 162.007 262.949 161.739C262.949 161.47 262.732 161.252 262.463 161.252C262.194 161.252 261.977 161.47 261.977 161.739C261.977 162.007 262.194 162.225 262.463 162.225Z" fill="white"/>
<path d="M262.463 164.16C262.732 164.16 262.949 163.943 262.949 163.674C262.949 163.405 262.732 163.188 262.463 163.188C262.194 163.188 261.977 163.405 261.977 163.674C261.977 163.943 262.194 164.16 262.463 164.16Z" fill="white"/>
<path d="M262.463 166.092C262.732 166.092 262.949 165.874 262.949 165.606C262.949 165.337 262.732 165.119 262.463 165.119C262.194 165.119 261.977 165.337 261.977 165.606C261.977 165.874 262.194 166.092 262.463 166.092Z" fill="white"/>
<path d="M106.92 45.9979H42.0116C40.9179 45.9979 40.0312 46.8845 40.0312 47.9782V67.0118C40.0312 68.1055 40.9179 68.9921 42.0116 68.9921H106.92C108.014 68.9921 108.9 68.1055 108.9 67.0118V47.9782C108.9 46.8845 108.014 45.9979 106.92 45.9979Z" fill="#FFCC66"/>
<path d="M69.957 56.2754H100.552V57.1896H69.957V56.2754Z" fill="white"/>
<path d="M69.957 53.0596H100.552V53.9738H69.957V53.0596Z" fill="white"/>
<path d="M69.957 60.0976H86.1686V61.0118H69.957V60.0976Z" fill="white"/>
<path d="M62.3457 51.9902H64.4433V63.5753H62.3457V51.9902Z" fill="#010149"/>
<path d="M58.54 53.9736H60.6376V63.5715H58.54V53.9736Z" fill="#010149"/>
<path d="M54.7354 56.7344H56.8329V63.5757H54.7354V56.7344Z" fill="#010149"/>
<path d="M50.9297 59.4902H53.0273V63.5716H50.9297V59.4902Z" fill="#010149"/>
<path d="M168.769 87.8809C168.767 90.6057 167.916 93.2623 166.335 95.4813C164.754 97.7003 162.52 99.3714 159.945 100.262C157.37 101.153 154.582 101.22 151.967 100.453C149.353 99.6854 147.042 98.1226 145.357 95.9815C145.208 95.7952 145.064 95.602 144.929 95.4054C143.616 93.5331 142.816 91.35 142.608 89.073C142.4 86.7959 142.791 84.504 143.742 82.4248C144.694 80.3455 146.172 78.5513 148.032 77.2201C149.891 75.889 152.066 75.0672 154.341 74.8365C154.61 74.8089 154.882 74.7916 155.158 74.7813H155.662C159.014 74.7765 162.239 76.0612 164.67 78.3693C164.836 78.5245 164.998 78.6867 165.153 78.8488C167.081 80.8668 168.312 83.4494 168.665 86.218C168.693 86.4457 168.717 86.6734 168.731 86.908C168.758 87.222 168.769 87.5497 168.769 87.8809Z" fill="#2EB9FF"/>
<path d="M155.158 74.7812C153.381 77.7896 152.125 81.1258 150.908 84.3688C150.597 85.1933 150.276 86.0489 149.948 86.8838C148.734 89.9888 147.337 93.1904 145.357 95.9815C145.208 95.7952 145.063 95.602 144.929 95.4053C146.806 92.7109 148.144 89.6473 149.317 86.6389C149.638 85.8074 149.959 84.9553 150.269 84.1273C151.446 81.0016 152.657 77.7862 154.34 74.8364C154.609 74.8088 154.882 74.7916 155.158 74.7812Z" fill="white"/>
<path d="M168.73 86.8942C167.302 87.3462 166.229 88.4916 165.67 89.2092C165.051 90.0457 164.493 90.9254 164 91.8415C163.679 92.4004 163.351 92.9766 162.996 93.5286C161.659 95.5951 159.928 97.3772 157.9 98.7726C157.165 99.2763 156.282 99.8076 155.282 99.8386C154.774 99.8482 154.271 99.7419 153.811 99.5279C153.351 99.3139 152.945 98.9978 152.625 98.6035C151.946 97.8279 151.547 96.8459 151.494 95.8159C151.401 93.7459 152.529 91.8588 153.491 90.4512C155.585 87.4393 158.238 84.8208 160.805 82.2919C162.102 81.012 163.417 79.7113 164.669 78.3555C164.835 78.5107 164.997 78.6729 165.152 78.835C163.896 80.1978 162.579 81.495 161.281 82.7749C158.739 85.2831 156.106 87.8775 154.036 90.841C153.119 92.1589 152.077 93.9115 152.16 95.7849C152.204 96.6608 152.544 97.4959 153.122 98.155C153.376 98.4714 153.698 98.7262 154.064 98.9001C154.43 99.074 154.831 99.1625 155.237 99.159C156.068 99.121 156.848 98.6587 157.5 98.2137C159.454 96.868 161.123 95.1491 162.409 93.156C162.754 92.6212 163.079 92.052 163.393 91.5C163.905 90.5586 164.481 89.6537 165.118 88.7917C165.993 87.5779 167.229 86.6721 168.651 86.2042C168.692 86.4354 168.716 86.6631 168.73 86.8942Z" fill="white"/>
<path d="M155.72 92.0036C155.613 92.0039 155.507 91.9831 155.408 91.9422C155.309 91.9013 155.219 91.8413 155.144 91.7656L151.835 88.4605C151.76 88.3848 151.7 88.295 151.659 88.1961C151.618 88.0973 151.597 87.9913 151.597 87.8843C151.597 87.7773 151.618 87.6714 151.659 87.5725C151.7 87.4737 151.76 87.3838 151.835 87.3082C151.911 87.2325 152.001 87.1725 152.1 87.1316C152.199 87.0906 152.304 87.0695 152.411 87.0695C152.518 87.0695 152.624 87.0906 152.723 87.1316C152.822 87.1725 152.912 87.2325 152.988 87.3082L155.72 90.0406L171.028 74.7329C171.18 74.5806 171.387 74.495 171.602 74.495C171.818 74.495 172.024 74.5806 172.177 74.7329C172.329 74.8853 172.414 75.0919 172.414 75.3074C172.414 75.5228 172.329 75.7294 172.177 75.8818L156.307 91.7518C156.231 91.8314 156.14 91.8948 156.039 91.9381C155.938 91.9814 155.83 92.0037 155.72 92.0036Z" fill="#170C2C"/>
<path opacity="0.2" d="M215.157 87.7771H308.431C308.821 84.9404 308.834 82.0645 308.469 79.2245C308.093 76.4127 306.861 73.601 304.577 71.9208C303.075 70.8569 301.342 70.1629 299.521 69.8955C297.7 69.6281 295.841 69.7949 294.096 70.3821C292.351 70.9522 290.777 71.951 289.518 73.287C288.138 74.7774 287.003 76.5231 284.809 76.8681C281.849 77.3339 278.681 75.9815 276.446 74.1081C273.186 71.3757 270.888 67.5773 267.39 65.1623C262.96 62.1021 256.991 61.7123 251.927 63.5373C246.862 65.3624 242.681 69.2126 239.807 73.7631C238.403 75.9849 237.268 78.3965 235.556 80.394C233.845 82.3916 231.365 83.9648 228.746 83.7543C226.279 83.5611 223.916 81.8293 221.525 82.4778C219.987 82.8953 218.879 84.2029 217.516 85.0412C216.78 85.4858 215.967 85.7877 215.119 85.9313C214.9 85.9707 214.702 86.0868 214.562 86.2586C214.421 86.4304 214.346 86.6467 214.35 86.8689C214.354 87.091 214.437 87.3044 214.584 87.4708C214.731 87.6372 214.933 87.7458 215.153 87.7771H215.157Z" fill="#603BE5"/>
<path opacity="0.2" d="M207.008 71.5799C214.788 71.5799 221.095 65.2733 221.095 57.4936C221.095 49.7139 214.788 43.4072 207.008 43.4072C199.229 43.4072 192.922 49.7139 192.922 57.4936C192.922 65.2733 199.229 71.5799 207.008 71.5799Z" fill="#603BE5"/>
<path d="M114.19 286.5C113.456 286.625 112.708 286.625 111.975 286.5L112.496 266.515H113.669L114.19 286.5Z" fill="#FFFCE5"/>
<path d="M114.817 310.706H111.343L111.974 286.5L112.495 266.515H113.668L114.186 286.5L114.817 310.706Z" fill="#E9F9FF"/>
<path d="M124.84 260.722C124.84 261.73 124.809 262.727 124.747 263.703L124.726 263.996C124.726 264.069 124.726 264.138 124.709 264.21C124.691 264.283 124.709 264.438 124.684 264.555C124.41 268.402 123.535 272.181 122.093 275.758C121.993 275.996 121.89 276.23 121.786 276.448C121.26 277.612 120.629 278.727 119.899 279.777C119.754 279.984 119.606 280.184 119.454 280.377C117.619 282.737 115.432 284.107 113.082 284.107C111.858 284.089 110.664 283.73 109.632 283.072C109.456 282.965 109.287 282.847 109.108 282.727L109.059 282.692C108.914 282.588 108.773 282.478 108.628 282.347C106.462 280.587 104.636 277.61 103.357 273.836L103.201 273.374C103.031 272.854 102.872 272.318 102.725 271.766C102.684 271.607 102.639 271.452 102.601 271.29C101.744 267.84 101.317 264.298 101.331 260.743V260.636C101.331 260.488 101.331 260.339 101.331 260.191C101.331 260.157 101.331 260.122 101.331 260.084C101.4 254.885 102.322 250.107 103.833 246.284C103.933 246.032 104.036 245.78 104.143 245.536C104.419 244.894 104.711 244.284 105.019 243.707C105.14 243.479 105.264 243.259 105.389 243.041C107.459 239.488 110.143 237.342 113.086 237.342C114.074 237.349 115.047 237.585 115.928 238.032C116.087 238.111 116.242 238.194 116.398 238.284C116.934 238.602 117.438 238.973 117.902 239.391C118.05 239.522 118.195 239.66 118.34 239.802C120.303 241.754 121.952 244.77 123.101 248.465L123.246 248.948C123.484 249.751 123.694 250.586 123.884 251.452C123.919 251.608 123.95 251.77 123.984 251.928C124.563 254.824 124.85 257.77 124.84 260.722Z" fill="#2900BC"/>
<path d="M156.939 120.284C156.939 120.284 151.57 96.703 179.257 93.3427C192.556 91.7246 199.612 90.6413 203.352 89.9513C203.861 89.8574 204.385 89.8782 204.886 90.0122C205.386 90.1463 205.851 90.3902 206.245 90.7262C206.64 91.0622 206.955 91.4819 207.167 91.9548C207.379 92.4277 207.483 92.9419 207.471 93.46L207.443 94.7399C207.344 99.6364 205.306 104.293 201.775 107.687C198.244 111.081 193.51 112.934 188.613 112.839C177.373 112.597 164.667 113.304 161.986 117.444" fill="#010149"/>
<path d="M160.776 119.059C162.636 118.593 163.902 117.255 163.606 116.07C163.309 114.886 161.561 114.303 159.702 114.768C157.842 115.234 156.575 116.572 156.872 117.757C157.169 118.942 158.917 119.524 160.776 119.059Z" fill="#FE1D00"/>
<path d="M138.805 150.674C125.35 142.86 112.816 133.424 102.011 122.191C96.6693 116.67 91.7907 110.72 87.424 104.4C83.1149 98.1274 79.2302 91.4206 76.384 84.3585C74.8453 80.5635 74.0621 76.3924 76.0735 72.6043C76.6876 71.452 79.1785 66.9049 80.7655 68.9301C81.0001 69.2233 81.4037 68.899 81.3416 68.5851C80.9173 66.5151 82.9735 64.5382 85.0193 65.0178C85.0781 65.034 85.1402 65.0343 85.1992 65.0188C85.2581 65.0032 85.3119 64.9723 85.3551 64.9291C85.3982 64.886 85.4291 64.8322 85.4447 64.7732C85.4603 64.7143 85.4599 64.6522 85.4437 64.5934C85.0366 61.6161 88.9178 61.5609 90.7118 62.6752C92.3782 63.7102 93.6374 65.6284 94.6897 67.2361C95.704 68.7852 96.5906 70.4101 97.4497 72.0454C97.9988 73.1991 98.6512 74.3006 99.3989 75.3367C99.7025 75.7197 100.154 76.2786 100.71 76.1958C101.2 76.1233 101.728 75.5437 102.042 75.2056C102.942 74.2396 103.622 73.0873 104.422 72.0385C105.085 71.1726 106.147 69.7753 107.41 70.1755C108.79 70.6137 109.397 72.9355 108.993 74.1775C107.776 77.9035 106.051 81.6951 106.113 85.6936C106.147 87.6463 106.851 89.4886 107.524 91.293C108.25 93.2413 109.088 95.1465 110.032 96.9993C113.699 104.182 119.019 110.292 124.839 115.809C126.602 117.478 128.41 119.103 130.238 120.708C132.288 122.502 134.603 124.002 136.876 125.5C138.881 126.818 140.896 128.26 143.014 129.381C144.811 130.318 146.679 131.114 148.599 131.761C149.02 131.906 149.2 131.24 148.782 131.096C146.924 130.466 145.116 129.694 143.376 128.788C141.448 127.753 139.612 126.455 137.784 125.262C135.538 123.799 133.202 122.339 131.167 120.594C129.417 119.096 127.717 117.544 126.026 115.971C119.854 110.196 114.199 103.803 110.404 96.1885C109.418 94.2071 108.559 92.1652 107.831 90.0751C107.448 89.0979 107.148 88.0904 106.934 87.0633C106.762 85.8805 106.775 84.6782 106.972 83.4994C107.336 81.3953 107.898 79.33 108.648 77.3308C109.159 75.8439 110.118 74.1844 109.759 72.5802C109.48 71.3382 108.886 69.8616 107.541 69.4924C106.465 69.1957 105.499 69.8374 104.781 70.5757C103.805 71.5728 103.087 72.7906 102.252 73.8946C101.879 74.443 101.422 74.9287 100.896 75.3333C100.517 75.592 100.427 75.454 100.11 75.1056C99.8047 74.7475 99.5322 74.363 99.2954 73.9567C97.2772 70.6861 95.8178 67.1637 93.3062 64.1967C91.9262 62.5476 90.2012 61.0917 87.8932 61.278C86.9061 61.3365 85.9751 61.7565 85.2781 62.4579C84.7088 63.0892 84.6778 63.9793 84.7882 64.7797L85.2125 64.3554C82.6354 63.7516 80.1548 66.1873 80.6861 68.7714L81.2657 68.4264C79.7822 66.553 77.8157 68.7265 76.8704 70.0099C75.2834 72.1869 74.1898 74.664 74.1415 77.3964C74.0725 81.4467 75.97 85.3003 77.6639 88.878C79.3847 92.4938 81.2987 96.0145 83.3978 99.4246C91.9055 113.283 103.121 125.445 115.738 135.65C122.907 141.425 130.51 146.64 138.481 151.247C138.559 151.288 138.651 151.297 138.737 151.273C138.822 151.248 138.895 151.191 138.939 151.114C138.984 151.037 138.997 150.946 138.976 150.859C138.954 150.773 138.901 150.698 138.826 150.65L138.805 150.674Z" fill="#010149"/>
<path d="M76.1216 71.3273C77.3291 76.3885 79.7268 81.0736 82.2315 85.5965C82.4489 85.9864 83.0423 85.6379 82.8284 85.2515C80.3513 80.7665 77.9811 76.1539 76.7874 71.1445C76.6839 70.7132 76.0215 70.8961 76.1216 71.3308V71.3273Z" fill="#010149"/>
<path d="M80.4787 68.5192C82.2247 73.1698 84.3298 77.6776 86.775 82.0018C86.8227 82.0769 86.8976 82.1307 86.984 82.1518C87.0705 82.173 87.1617 82.1599 87.2388 82.1154C87.3158 82.0709 87.3727 81.9983 87.3974 81.9128C87.4222 81.8274 87.4131 81.7357 87.3718 81.6568C84.9584 77.3862 82.8821 72.9337 81.1618 68.3398C81.0065 67.9293 80.3407 68.1052 80.496 68.5227L80.4787 68.5192Z" fill="#010149"/>
<path d="M84.7258 64.3002C86.9742 69.2299 89.5922 73.9826 92.5573 78.5176C92.7988 78.8902 93.3957 78.5417 93.1542 78.1726C90.189 73.6376 87.571 68.8849 85.3227 63.9552C85.1398 63.5515 84.543 63.9 84.7258 64.3002Z" fill="#010149"/>
<path d="M93.4404 83.2717C92.7677 85.7971 92.7504 88.7124 94.3271 90.9273C94.9454 91.8483 95.8082 92.5789 96.8185 93.0372C97.8288 93.4954 98.9468 93.6632 100.047 93.5216C100.482 93.4561 100.299 92.7902 99.8609 92.8592C97.7633 93.1766 95.7209 91.945 94.6514 90.1648C93.4542 88.1465 93.5198 85.6522 94.1063 83.4546C94.1305 83.3663 94.1187 83.272 94.0734 83.1924C94.0281 83.1128 93.9531 83.0545 93.8648 83.0302C93.7765 83.006 93.6822 83.0178 93.6026 83.0631C93.523 83.1084 93.4647 83.1834 93.4404 83.2717Z" fill="#010149"/>
<path d="M90.5915 88.2087C90.832 88.0009 91.1114 87.8433 91.4136 87.7449C91.7157 87.6466 92.0344 87.6096 92.351 87.636C92.7926 87.667 92.7926 86.977 92.351 86.946C91.9439 86.9196 91.5356 86.9747 91.1499 87.108C90.7643 87.2413 90.4091 87.4501 90.1051 87.7222C89.7601 88.012 90.2569 88.4985 90.5915 88.2087Z" fill="#010149"/>
<path d="M178.47 136.612C192.222 136.85 205.894 134.625 219.059 130.73C232.224 126.835 244.9 121.335 257.13 115.105L259.345 113.966C260.076 113.587 260.963 112.907 261.777 112.769C263.181 112.538 264.865 112.941 266.19 113.376C268.915 114.27 271.247 116.078 273.179 118.158C274.199 119.265 275.131 120.45 275.967 121.701C276.826 122.971 278.541 125.03 277.216 126.503C276.267 127.556 274.632 127.649 273.321 127.697C272.852 127.711 272.391 127.819 271.965 128.013C271.538 128.207 271.155 128.485 270.837 128.829C269.988 129.684 269.391 130.75 268.625 131.672C267.656 132.838 266.279 133.648 264.996 134.432C263.454 135.363 261.794 136.346 260.004 136.653C258.213 136.96 256.495 137.223 254.742 137.537C252.99 137.85 251.213 138.227 249.485 138.71C247.754 139.236 246.054 139.856 244.392 140.569C241.001 141.949 237.541 143.146 234.094 144.364C230.648 145.582 227.287 146.779 223.924 148.08C220.56 149.38 217.024 150.429 213.553 151.43C206.609 153.45 199.541 155.015 192.394 156.115C190.543 156.393 188.684 156.637 186.819 156.846C186.384 156.894 186.377 157.584 186.819 157.536C194.159 156.701 201.431 155.352 208.581 153.5C212.249 152.558 215.885 151.499 219.49 150.353C223.023 149.229 226.449 147.835 229.934 146.579C233.546 145.278 237.179 144.026 240.77 142.687C244.292 141.38 247.701 139.803 251.368 138.93C253.159 138.503 254.97 138.182 256.785 137.895C258.42 137.623 260.256 137.55 261.784 136.888C263.446 136.158 265.038 135.279 266.541 134.262C267.668 133.575 268.669 132.699 269.498 131.672C270.254 130.681 270.913 129.45 271.986 128.767C273.021 128.118 274.428 128.422 275.58 128.132C276.664 127.859 277.809 127.259 278.237 126.158C278.772 124.778 277.892 123.433 277.202 122.305C274.276 117.668 270.019 113.086 264.333 112.22C263.668 112.116 262.996 112.066 262.322 112.069C261.456 112.069 261.018 112.32 260.252 112.721C258.69 113.542 257.122 114.347 255.546 115.136C252.303 116.771 249.03 118.346 245.728 119.862C239.176 122.877 232.479 125.562 225.659 127.908C212.159 132.503 198.059 135.515 183.786 135.898C182.02 135.941 180.252 135.948 178.484 135.918C178.392 135.918 178.304 135.955 178.24 136.02C178.175 136.084 178.139 136.172 178.139 136.263C178.139 136.355 178.175 136.443 178.24 136.507C178.304 136.572 178.392 136.608 178.484 136.608L178.47 136.612Z" fill="#010149"/>
<path d="M261.773 119.369C262.767 119.348 263.66 119.686 264.188 120.573C264.533 121.135 264.713 121.777 265.075 122.325C265.603 123.115 266.455 124.195 267.359 124.52C268.349 124.865 269.325 124.209 269.719 123.312C270.195 122.225 269.964 120.897 269.674 119.783C269.283 118.446 268.738 117.16 268.049 115.95C267.504 114.935 266.983 113.707 266.065 112.966C264.837 111.975 262.615 111.955 261.152 112.32C261.064 112.345 260.989 112.403 260.944 112.483C260.898 112.562 260.887 112.656 260.911 112.745C260.935 112.833 260.993 112.908 261.073 112.953C261.153 112.999 261.247 113.01 261.335 112.986C262.643 112.658 264.72 112.665 265.765 113.621C266.524 114.311 266.976 115.408 267.452 116.298C268.058 117.371 268.552 118.503 268.929 119.676C269.246 120.763 269.636 122.384 268.884 123.371C267.804 124.782 266.303 122.933 265.672 121.991C265.144 121.19 264.944 120.193 264.226 119.521C263.548 118.935 262.668 118.637 261.773 118.693C261.682 118.693 261.594 118.729 261.529 118.794C261.465 118.858 261.428 118.946 261.428 119.038C261.428 119.129 261.465 119.217 261.529 119.281C261.594 119.346 261.682 119.383 261.773 119.383V119.369Z" fill="#010149"/>
<path d="M268.691 124.264C269.971 126.114 273.234 126.358 273.631 123.699C273.824 122.394 273.462 120.959 273.086 119.721C272.642 118.273 272.027 116.883 271.254 115.581C271.204 115.512 271.13 115.464 271.046 115.446C270.963 115.428 270.875 115.442 270.802 115.485C270.728 115.528 270.672 115.597 270.646 115.678C270.62 115.76 270.625 115.848 270.661 115.926C271.71 117.672 272.444 119.59 272.831 121.591C272.986 122.443 273.231 123.792 272.593 124.516C271.658 125.572 269.971 124.916 269.287 123.926C269.036 123.564 268.439 123.906 268.691 124.271V124.264Z" fill="#010149"/>
<path d="M272.437 125.248C273.569 126.745 275.887 126.738 276.75 124.93C277.612 123.123 276.153 121.353 275.452 119.804C275.269 119.4 274.676 119.752 274.855 120.149C275.28 121.087 275.935 121.97 276.191 122.974C276.394 123.785 276.332 124.661 275.673 125.238C275.482 125.399 275.259 125.518 275.018 125.589C274.778 125.659 274.526 125.678 274.278 125.646C274.029 125.614 273.791 125.53 273.576 125.4C273.362 125.27 273.178 125.098 273.034 124.893C272.768 124.548 272.168 124.893 272.437 125.238V125.248Z" fill="#010149"/>
<path d="M256.146 119.72C256.974 119.779 257.837 119.872 258.468 120.466C258.902 120.931 259.252 121.468 259.503 122.053C260.214 123.433 260.907 124.813 261.611 126.193C262.087 127.131 264.005 130.146 261.756 130.281C260.376 130.36 258.827 129.294 257.861 128.428C257.264 127.89 256.56 126.683 255.591 127.121C255.115 127.338 254.773 127.887 254.438 128.273C254.007 128.792 253.546 129.286 253.058 129.753C252.038 130.691 250.761 131.3 249.39 131.504C248.02 131.708 246.62 131.495 245.372 130.895C244.975 130.702 244.627 131.299 245.027 131.492C246.005 131.969 247.073 132.233 248.161 132.267C249.249 132.3 250.331 132.102 251.337 131.685C252.417 131.209 253.38 130.502 254.159 129.615C254.583 129.156 254.98 128.67 255.398 128.204C255.47 128.121 255.646 127.859 255.743 127.828C256.044 127.838 256.336 127.935 256.584 128.107C256.871 128.318 257.109 128.666 257.374 128.904C258.575 129.988 261.321 131.878 262.936 130.55C263.681 129.936 263.626 128.935 263.312 128.107C262.86 126.862 262.128 125.692 261.528 124.502C260.838 123.153 260.259 121.608 259.334 120.404C258.534 119.369 257.399 119.11 256.143 119.024C255.698 118.993 255.701 119.683 256.143 119.714L256.146 119.72Z" fill="#010149"/>
<path d="M252.868 268.147C224.796 249.148 197.196 228.703 171.714 206.337C173.715 233.978 181.446 289.371 181.446 289.371L189.402 295.288C189.808 295.591 190.109 296.014 190.261 296.498C190.413 296.981 190.41 297.5 190.251 297.982C190.091 298.463 189.785 298.882 189.374 299.179C188.964 299.477 188.47 299.637 187.963 299.638H187.881L158.721 299.701C158.721 299.701 141.551 231.787 141.954 188.31C141.987 183.353 143.835 178.579 147.149 174.892C150.463 171.205 155.013 168.86 159.939 168.3C161.772 168.101 163.619 168.057 165.459 168.169C173.634 168.695 181.359 172.099 187.263 177.778C211.206 200.548 235.242 223.504 259.178 246.253C262.135 245.725 265.043 245.346 267.983 244.97C268.445 244.911 268.915 244.995 269.329 245.21C269.743 245.425 270.081 245.761 270.299 246.174C270.516 246.586 270.602 247.055 270.546 247.518C270.49 247.981 270.294 248.416 269.984 248.765C264.257 255.227 258.692 261.699 252.868 268.147Z" fill="#170C2C"/>
<path d="M173.391 157.654L171.369 157.854C165.3 158.479 159.104 158.944 152.918 158.989C152.832 158.989 152.753 158.989 152.67 158.989C152.619 158.993 152.569 158.993 152.518 158.989H152.497C151.56 158.933 150.645 158.673 149.818 158.227C148.991 157.782 148.271 157.161 147.709 156.409C147.146 155.656 146.754 154.79 146.561 153.871C146.367 152.951 146.376 152.001 146.588 151.085C146.667 150.74 146.753 150.395 146.839 150.05C146.926 149.705 147.008 149.36 147.098 149.015C147.212 148.567 147.326 148.122 147.443 147.673C148.154 145.038 148.937 142.378 150.131 139.932C150.614 138.924 151.181 137.958 151.825 137.044C151.829 137.034 151.835 137.025 151.842 137.016C154.084 133.863 157.614 131.396 161.478 131.362C165.342 131.327 168.826 133.663 171.138 136.702C173.111 139.304 174.332 142.374 175.354 145.486C175.53 146.01 175.699 146.542 175.861 147.07C175.961 147.384 176.054 147.697 176.151 148.008C176.168 148.056 176.182 148.105 176.195 148.153C176.195 148.184 176.216 148.208 176.223 148.236C176.261 148.356 176.299 148.477 176.333 148.581C176.354 148.639 176.371 148.701 176.389 148.76C176.703 149.795 177.013 150.796 177.317 151.813C177.508 152.458 177.555 153.137 177.453 153.802C177.351 154.466 177.104 155.1 176.729 155.658C176.354 156.216 175.86 156.685 175.283 157.03C174.706 157.375 174.06 157.588 173.391 157.654Z" fill="#FE1D00"/>
<path d="M172.387 209.038L171.069 195.856" stroke="white" stroke-width="2" stroke-linecap="round" stroke-linejoin="round"/>
<path d="M155.996 132.71C156.024 132.817 156.058 132.924 156.096 133.031C156.561 134.461 157.514 135.682 158.787 136.481C160.878 137.709 163.741 137.309 165.535 135.674C166.414 134.856 167.046 133.809 167.36 132.652" stroke="#010149" stroke-width="2" stroke-linecap="round" stroke-linejoin="round"/>
<path d="M186.477 136.143C187.727 143.112 190.063 149.842 193.401 156.087" stroke="#010149" stroke-width="2" stroke-linecap="round" stroke-linejoin="round"/>
<path d="M132.226 147.073C135.641 142.771 138.822 138.289 141.347 133.418C142.092 132.039 142.732 130.607 143.262 129.133" stroke="#010149" stroke-width="2" stroke-linecap="round" stroke-linejoin="round"/>
<path d="M168.323 121.86C168.322 122.131 168.303 122.402 168.264 122.671C168.074 124.097 167.392 125.412 166.335 126.387C165.277 127.363 163.912 127.938 162.475 128.012C161.038 128.087 159.621 127.656 158.468 126.795C157.316 125.935 156.501 124.697 156.165 123.299C156.049 122.828 155.991 122.345 155.992 121.86C155.993 120.397 156.513 118.981 157.461 117.866C158.409 116.751 159.723 116.01 161.167 115.774C161.49 115.723 161.817 115.697 162.144 115.698C162.953 115.697 163.755 115.855 164.504 116.164C165.252 116.474 165.932 116.927 166.505 117.5C167.078 118.072 167.532 118.752 167.841 119.5C168.151 120.248 168.31 121.05 168.309 121.86H168.323Z" stroke="#010149" stroke-width="2" stroke-linecap="round" stroke-linejoin="round"/>
<path d="M163.652 116.181C163.651 118.071 162.9 119.884 161.563 121.22C160.227 122.557 158.414 123.308 156.524 123.309C156.404 123.309 156.283 123.309 156.179 123.309C156.064 122.838 156.006 122.355 156.007 121.87C156.009 120.935 156.224 120.012 156.634 119.172C157.045 118.331 157.642 117.595 158.379 117.019C159.116 116.443 159.974 116.042 160.889 115.846C161.803 115.65 162.751 115.664 163.659 115.888C163.649 115.978 163.652 116.081 163.652 116.181Z" fill="#010149"/>
<path d="M168.323 121.86C168.323 122.131 168.303 122.402 168.264 122.671C167.965 122.714 167.663 122.736 167.36 122.736C165.713 122.736 164.134 122.082 162.969 120.917C161.805 119.753 161.15 118.173 161.15 116.526C161.15 116.279 161.165 116.033 161.195 115.788C161.518 115.736 161.845 115.711 162.172 115.712C162.981 115.711 163.783 115.869 164.532 116.178C165.28 116.487 165.96 116.941 166.533 117.514C167.106 118.086 167.56 118.766 167.869 119.514C168.179 120.262 168.338 121.064 168.337 121.874L168.323 121.86Z" fill="#010149"/>
<path d="M154.982 140.695C155.074 140.598 155.138 140.479 155.169 140.349L154.902 140.653L154.982 140.695Z" fill="#FFCC66"/>
<path d="M154.898 140.49L154.57 140.773L154.746 140.649C154.677 140.815 154.556 140.954 154.401 141.046C154.567 141.036 154.739 140.67 154.898 140.49Z" fill="#FFCC66"/>
<path d="M154.554 140.645C154.523 140.583 154.375 140.814 154.344 140.897C154.416 140.807 154.523 140.728 154.554 140.645Z" fill="#FFCC66"/>
<path d="M152.204 137.458C152.192 137.515 152.169 137.569 152.135 137.617C152.194 137.565 152.235 137.513 152.204 137.458Z" fill="#FFCC66"/>
<path d="M152.136 137.616L152.098 137.651H152.118L152.136 137.616Z" fill="#FFCC66"/>
<path d="M152.346 139.462C152.397 139.414 152.452 139.37 152.452 139.432C152.433 139.429 152.414 139.43 152.395 139.435C152.377 139.44 152.36 139.45 152.346 139.462Z" fill="#FFCC66"/>
<path d="M153.063 139.662C153.408 139.39 153.446 139.759 153.781 139.552C153.595 139.79 153.567 139.635 153.436 139.735V139.904L153.201 139.931C153.167 139.983 153.136 140.031 153.101 140.076C153.152 139.989 153.189 139.895 153.212 139.797C153.184 139.731 153.07 139.759 153.063 139.662Z" fill="#FFCC66"/>
<path d="M154.26 140.697C153.601 141.208 153.332 141.042 153.032 140.967C152.998 141.025 152.953 141.08 152.956 141.105C152.563 141.194 152.391 140.915 151.921 141.167L151.973 141.091C151.894 141.036 151.707 141.305 151.576 141.349C151.642 141.277 151.714 141.256 151.783 141.118C151.783 141.087 151.549 141.174 151.621 140.96C151.48 141.073 151.407 141.239 151.276 141.305L151.445 141.011C151.342 141.042 151.387 140.915 151.211 141.042L151.152 141.211C151.152 141.042 150.91 141.211 151.011 140.922L150.942 141.018C150.942 140.656 150.769 140.432 150.755 140.139C150.586 140.104 150.538 139.825 150.265 140.035C150.345 139.945 150.358 140.035 150.448 139.866C150.448 139.624 150.151 140.066 150.138 139.925C150.621 138.917 151.188 137.951 151.832 137.037C151.866 137.037 151.908 137.037 151.99 136.947L151.828 137.175C152.032 137.058 152.073 137.261 152.349 137.002C152.156 137.244 152.277 137.192 152.325 137.209L152.08 137.479C152.201 137.41 151.98 137.72 152.08 137.668C152.016 137.711 151.96 137.765 151.914 137.827C151.866 138.024 152.149 137.627 152.056 137.879L152.235 137.61C152.083 137.986 152.194 137.858 152.125 138.141C152.264 137.956 152.418 137.782 152.584 137.62C152.518 137.741 152.38 137.927 152.501 137.875C152.547 137.815 152.579 137.746 152.594 137.672C152.791 137.623 153.053 137.554 153.07 137.775C152.901 137.879 152.911 138.051 152.798 138.196L152.987 138.175C152.845 138.241 152.706 138.316 152.573 138.4C152.404 138.696 152.08 139.007 152.094 139.159C152.228 139.038 152.228 138.921 152.356 138.848C152.301 138.969 152.356 138.962 152.38 138.976C152.287 139.073 152.199 139.176 152.118 139.283C152.163 139.304 152.311 139.138 152.38 139.048C152.346 139.107 152.263 139.193 152.256 139.262C152.249 139.331 152.484 139.01 152.553 138.917C152.491 139.062 152.208 139.531 152.522 139.19L152.204 139.552C152.221 139.552 152.27 139.528 152.322 139.486C152.252 139.545 152.195 139.618 152.156 139.7C152.418 139.462 152.087 140.08 152.466 139.624L152.121 140.073C152.173 140.19 152.373 139.787 152.515 139.728C152.446 139.773 152.391 139.897 152.328 139.925C152.246 140.059 152.287 140.121 152.353 140.121C152.611 140.121 152.615 140.411 153.043 140.145C153.01 140.188 152.985 140.236 152.967 140.287C153.146 140.401 153.574 139.966 153.657 140.218C153.474 140.511 153.75 140.28 153.657 140.508C154.188 140.094 154.071 140.677 154.26 140.697Z" fill="#FFCC66"/>
<path d="M154.029 139.287L154.177 139.056L153.988 139.149C153.888 139.352 154.019 139.211 154.029 139.287Z" fill="#FFCC66"/>
<path d="M153.519 139.956L153.64 139.88L153.557 139.849L153.519 139.956Z" fill="#FFCC66"/>
<path d="M152.76 138.879L152.746 138.921L153.036 138.838L152.76 138.879Z" fill="#FFCC66"/>
<path d="M152.37 137.23C152.47 137.123 152.464 137.192 152.536 137.123L152.384 137.189L152.37 137.23Z" fill="#FFCC66"/>
<path d="M170.51 137.413C170.459 137.292 170.375 137.187 170.269 137.109L170.448 137.475L170.51 137.413Z" fill="#FFCC66"/>
<path d="M170.285 137.413L170.427 137.82L170.375 137.61C170.516 137.739 170.606 137.913 170.63 138.103C170.668 137.937 170.396 137.641 170.285 137.413Z" fill="#FFCC66"/>
<path d="M170.303 137.803C170.237 137.803 170.396 138.031 170.461 138.093C170.403 137.993 170.372 137.862 170.303 137.803Z" fill="#FFCC66"/>
<path d="M166.49 138.989C166.542 139.019 166.587 139.058 166.625 139.104C166.597 139.031 166.559 138.976 166.49 138.989Z" fill="#FFCC66"/>
<path d="M166.632 139.104L166.652 139.148C166.652 139.148 166.652 139.148 166.652 139.124L166.632 139.104Z" fill="#FFCC66"/>
<path d="M169.595 141.018C169.526 140.818 169.63 140.901 169.627 140.794L169.854 141.049C169.854 140.921 169.709 140.8 169.644 140.631C169.816 140.769 169.802 140.538 169.834 140.535C169.901 140.616 169.953 140.708 169.989 140.807C169.989 140.669 169.792 140.411 169.865 140.352L169.92 140.424C169.83 139.9 170.141 139.841 170.185 139.448C170.161 139.448 170.123 139.379 170.082 139.327C170.241 139.072 170.492 138.889 170.254 138.096C170.172 138.248 169.664 137.94 169.861 138.527C169.682 138.358 169.799 138.696 169.592 138.423C169.326 138.423 169.592 138.972 169.423 139.113C169.332 139.022 169.252 138.92 169.185 138.81L169.23 138.582L169.071 138.527C169.023 138.379 169.175 138.406 169.016 138.147C169.095 138.53 168.74 138.434 168.878 138.858C168.971 138.886 168.981 138.772 169.054 138.751C169.156 138.815 169.245 138.899 169.316 138.996C169.42 139.5 169.15 139.403 169.071 139.645C169.05 139.707 168.978 139.724 168.878 139.6C168.878 139.534 168.774 139.441 168.75 139.362C168.771 139.517 169.095 139.838 168.964 139.848L168.647 139.389C168.961 139.893 168.478 139.389 168.623 139.707C168.467 139.541 168.429 139.407 168.471 139.362C168.357 139.324 168.547 139.59 168.498 139.614L168.257 139.2C168.481 139.6 168.122 139.2 168.002 139.086C168.071 139.179 168.309 139.455 168.236 139.476C168.174 139.445 168.115 139.338 168.071 139.289C168.136 139.386 168.243 139.572 168.215 139.61C168.138 139.499 168.067 139.384 168.002 139.265C167.977 139.293 167.974 139.334 167.874 139.245C167.902 139.389 168.015 139.427 168.088 139.59C167.943 139.555 167.743 139.151 167.515 138.9C167.477 138.745 167.448 138.588 167.429 138.43L167.391 138.624C167.284 138.468 167.118 138.427 167.07 138.234C166.849 138.185 166.836 138.458 166.818 138.661C166.885 138.699 166.942 138.751 166.987 138.813C166.987 138.944 166.86 138.755 166.766 138.658C166.873 138.864 166.994 139.063 167.129 139.251C166.877 139.103 166.967 139.251 166.649 138.993L166.856 139.245C166.642 139.079 166.939 139.469 166.766 139.365C166.719 139.303 166.682 139.233 166.66 139.158C166.66 139.279 166.442 138.982 166.473 139.117L166.287 138.806C166.256 138.848 166.266 138.979 166.094 138.724C166.259 139.069 166.049 139.048 166.094 139.279L165.921 139.058C166.094 139.358 165.752 139.176 165.976 139.521L165.897 139.438L166.056 139.783C165.997 139.783 165.738 139.458 165.811 139.548C165.773 139.676 165.725 139.748 165.576 139.686C165.807 139.983 165.787 140.131 165.749 140.228C165.266 140.338 165.148 140.918 165.159 141.508C165.124 141.559 165.352 141.918 165.424 142.101C165.556 142.101 165.424 141.963 165.493 141.901C165.706 142.027 165.908 142.17 166.097 142.329L165.859 142.118C165.749 141.87 166.018 142.198 165.859 141.915L166.204 142.291C166.045 142.084 166.235 142.201 166.342 142.291L166.121 142.015C166.3 142.111 166.463 142.235 166.604 142.381L166.38 142.146C166.532 142.284 166.511 141.977 166.835 142.429C166.798 142.363 166.694 142.232 166.746 142.236L166.967 142.47C166.946 142.377 166.946 142.294 167.077 142.419C167.137 142.525 167.207 142.624 167.287 142.715C167.477 142.622 166.597 141.901 166.735 141.753L166.873 141.911L166.76 141.715L166.973 141.88C166.553 141.297 167.215 141.756 167.053 141.394C167.053 141.321 167.37 141.604 167.398 141.515L167.187 141.273C167.453 141.477 167.777 141.473 168.302 142.011C168.191 141.78 168.253 141.963 168.091 141.766C167.974 141.421 168.302 141.815 168.471 141.922C168.426 141.749 168.35 141.863 168.226 141.649C168.471 141.766 168.05 141.28 168.295 141.356C168.419 141.49 168.347 141.477 168.409 141.58C168.281 141.263 168.554 141.301 168.633 141.156C168.921 141.176 169.208 141.213 169.492 141.266L169.426 141.17C169.671 141.363 169.575 141.083 169.733 141.135L169.595 141.018Z" fill="#FFCC66"/>
<path d="M168.847 137.81L168.678 137.593L168.702 137.803C168.857 137.965 168.767 137.793 168.847 137.81Z" fill="#FFCC66"/>
<path d="M169.299 138.518L169.268 138.383L169.213 138.445L169.299 138.518Z" fill="#FFCC66"/>
<path d="M168.033 138.879L168.068 138.907L168.081 138.603L168.033 138.879Z" fill="#FFCC66"/>
<path d="M166.328 138.768C166.256 138.641 166.328 138.668 166.276 138.575V138.741L166.328 138.768Z" fill="#FFCC66"/>
<path d="M164.928 138.469C165.221 138.872 164.869 138.51 165.197 138.814C165.186 138.728 165.021 138.607 164.928 138.469Z" fill="#FFCC66"/>
<path d="M165.235 139.159C165.269 139.159 165.235 139.079 165.2 139.014C165.024 138.872 165.19 139.066 165.235 139.159Z" fill="#FFCC66"/>
<path d="M154.329 150.457C154.416 150.552 154.524 150.626 154.643 150.674L154.353 150.392L154.329 150.457Z" fill="#FFCC66"/>
<path d="M154.512 150.416L154.24 150.088L154.36 150.261C154.204 150.177 154.074 150.052 153.984 149.899C153.998 150.043 154.34 150.25 154.512 150.416Z" fill="#FFCC66"/>
<path d="M154.357 150.091C154.412 150.074 154.195 149.905 154.115 149.867C154.19 149.948 154.271 150.023 154.357 150.091Z" fill="#FFCC66"/>
<path d="M157.242 148.584C157.187 148.562 157.137 148.532 157.093 148.494C157.145 148.556 157.193 148.601 157.242 148.584Z" fill="#FFCC66"/>
<path d="M157.093 148.494L157.065 148.456V148.477L157.093 148.494Z" fill="#FFCC66"/>
<path d="M153.929 147.09C154.05 147.266 153.929 147.204 153.967 147.301L153.688 147.104C153.736 147.218 153.892 147.308 153.998 147.449C153.802 147.349 153.885 147.559 153.857 147.566C153.773 147.505 153.7 147.43 153.64 147.346C153.681 147.47 153.933 147.673 153.881 147.739L153.812 147.68C154.054 148.139 153.795 148.246 153.888 148.608C153.912 148.608 153.961 148.657 154.019 148.698C153.964 148.95 153.805 149.164 154.299 149.819C154.299 149.671 154.854 149.854 154.481 149.371C154.695 149.491 154.481 149.212 154.747 149.419C154.978 149.378 154.564 148.929 154.668 148.791C154.777 148.86 154.88 148.938 154.975 149.026L155.009 149.236L155.168 149.26C155.258 149.385 155.12 149.381 155.344 149.585C155.144 149.26 155.485 149.298 155.223 148.939C155.134 148.939 155.165 149.033 155.106 149.06C154.995 149.017 154.891 148.956 154.799 148.881C154.544 148.446 154.799 148.494 154.799 148.267C154.799 148.208 154.854 148.184 154.982 148.267C155.006 148.325 155.12 148.394 155.165 148.463C155.099 148.325 154.726 148.08 154.82 148.056L155.24 148.425C154.813 148.018 155.389 148.425 155.165 148.139C155.351 148.27 155.423 148.384 155.403 148.432C155.513 148.453 155.268 148.239 155.303 148.212L155.648 148.557C155.33 148.229 155.768 148.557 155.903 148.632C155.817 148.553 155.523 148.336 155.582 148.312C155.654 148.352 155.721 148.401 155.782 148.456C155.696 148.381 155.544 148.225 155.558 148.187C155.66 148.276 155.756 148.371 155.848 148.47C155.848 148.443 155.848 148.401 155.965 148.47C155.896 148.343 155.789 148.322 155.675 148.187C155.813 148.187 156.103 148.532 156.365 148.736C156.503 148.929 156.507 149.033 156.583 149.14L156.558 148.967C156.696 149.095 156.852 149.119 156.952 149.281C157.155 149.305 157.086 149.067 157.041 148.888C156.971 148.859 156.907 148.818 156.852 148.767C156.803 148.653 156.976 148.808 157.086 148.888C156.933 148.714 156.771 148.55 156.6 148.394C156.862 148.505 156.745 148.394 157.09 148.588L156.841 148.381C157.072 148.512 156.707 148.187 156.886 148.27C156.944 148.321 156.995 148.379 157.038 148.443C156.99 148.336 157.276 148.584 157.21 148.467L157.459 148.729C157.476 148.691 157.428 148.577 157.649 148.791C157.411 148.501 157.597 148.505 157.49 148.305L157.7 148.491C157.469 148.239 157.814 148.381 157.528 148.087L157.621 148.156L157.39 147.849C157.438 147.849 157.752 148.122 157.666 148.046C157.666 147.932 157.69 147.867 157.835 147.918C157.559 147.663 157.542 147.532 157.552 147.446C157.952 147.335 157.921 146.825 157.8 146.3C157.699 146.115 157.583 145.937 157.455 145.769C157.338 145.769 157.476 145.893 157.428 145.948C157.21 145.837 157 145.712 156.8 145.572L157.055 145.759C157.204 145.979 156.893 145.69 157.1 145.941L156.714 145.596C156.9 145.783 156.714 145.683 156.589 145.596L156.845 145.838C156.662 145.755 156.49 145.648 156.334 145.521L156.583 145.728C156.417 145.61 156.496 145.886 156.11 145.486C156.158 145.545 156.275 145.662 156.231 145.662L155.982 145.455C156.017 145.541 156.034 145.617 155.889 145.51C155.814 145.415 155.729 145.327 155.637 145.248C155.479 145.345 156.417 145.959 156.327 146.1L156.168 145.962L156.313 146.135L156.082 145.997C156.593 146.504 155.889 146.124 156.117 146.442C156.137 146.507 155.772 146.273 155.772 146.355L156.02 146.562C155.734 146.393 155.437 146.424 154.833 145.979C154.989 146.183 154.889 146.021 155.082 146.186C155.271 146.483 154.878 146.162 154.699 146.079C154.778 146.235 154.823 146.121 154.985 146.307C154.737 146.224 155.237 146.625 154.985 146.58C154.837 146.473 154.909 146.473 154.826 146.386C155.02 146.666 154.764 146.659 154.73 146.8C154.461 146.763 154.25 146.873 153.916 146.8L154.005 146.88C153.729 146.738 153.891 146.98 153.736 146.956L153.929 147.09Z" fill="#FFCC66"/>
<path d="M155.592 149.851L155.809 150.02L155.719 149.837C155.53 149.716 155.664 149.854 155.592 149.851Z" fill="#FFCC66"/>
<path d="M154.964 149.295L155.036 149.408L155.063 149.346L154.964 149.295Z" fill="#FFCC66"/>
<path d="M155.94 148.812L155.902 148.791L155.985 149.06L155.94 148.812Z" fill="#FFCC66"/>
<path d="M157.451 148.77C157.552 148.878 157.489 148.857 157.552 148.933L157.493 148.791L157.451 148.77Z" fill="#FFCC66"/>
<path d="M158.746 148.977C158.383 148.632 158.784 148.939 158.418 148.674C158.452 148.76 158.625 148.86 158.746 148.977Z" fill="#FFCC66"/>
<path d="M158.294 148.387C158.27 148.387 158.315 148.457 158.363 148.512C158.557 148.633 158.36 148.453 158.294 148.387Z" fill="#FFCC66"/>
<path d="M172.549 155.539C172.653 155.491 172.701 155.336 172.742 155.194L172.449 155.474L172.549 155.539Z" fill="#FFCC66"/>
<path d="M172.424 155.287L172.055 155.525L172.259 155.429C172.228 155.514 172.178 155.592 172.113 155.655C172.048 155.718 171.969 155.766 171.883 155.794C172.079 155.825 172.252 155.453 172.424 155.287Z" fill="#FFCC66"/>
<path d="M172.01 155.374C171.966 155.298 171.807 155.522 171.779 155.612C171.866 155.526 171.99 155.463 172.01 155.374Z" fill="#FFCC66"/>
<path d="M168.968 151.041C168.952 151.099 168.924 151.154 168.885 151.2C168.957 151.159 169.006 151.114 168.968 151.041Z" fill="#FFCC66"/>
<path d="M168.884 151.213L168.84 151.233H168.864L168.884 151.213Z" fill="#FFCC66"/>
<path d="M167.892 154.79C168.099 154.701 168.054 154.835 168.178 154.828L167.992 155.115C168.14 155.097 168.213 154.932 168.385 154.849C168.309 155.066 168.582 155.046 168.602 155.087C168.523 155.222 168.433 155.222 168.357 155.284C168.52 155.284 168.73 155.028 168.837 155.122L168.778 155.191C169.355 155.056 169.596 155.435 170.079 155.453C170.079 155.422 170.124 155.373 170.162 155.315C170.541 155.484 170.904 155.767 171.659 155.356C171.442 155.287 171.511 154.645 170.969 154.959C171.066 154.725 170.741 154.908 170.942 154.614C170.804 154.3 170.31 154.673 170.079 154.483C170.079 154.407 170.214 154.297 170.31 154.169L170.593 154.204L170.572 154.007C170.717 153.935 170.762 154.118 170.973 153.897C170.579 154.038 170.521 153.607 170.103 153.811C170.103 153.924 170.255 153.924 170.31 154.011C170.293 154.137 170.241 154.256 170.162 154.356C169.634 154.525 169.606 154.19 169.286 154.104C169.206 154.083 169.148 153.997 169.248 153.869C169.32 153.869 169.382 153.735 169.461 153.704C169.292 153.738 169.065 154.131 168.996 153.983L169.386 153.579C168.944 153.98 169.317 153.379 169.003 153.562C169.127 153.369 169.265 153.321 169.348 153.365C169.348 153.231 169.12 153.466 169.068 153.41L169.441 153.103C169.079 153.39 169.396 152.941 169.465 152.796C169.382 152.879 169.168 153.179 169.12 153.089C169.12 153.017 169.227 152.941 169.265 152.886C169.182 152.969 169.01 153.103 168.954 153.069C169.051 152.941 169.148 152.92 169.261 152.803C169.217 152.776 169.165 152.772 169.227 152.651C169.075 152.689 169.079 152.824 168.92 152.917C168.899 152.741 169.286 152.5 169.475 152.227C169.703 152.127 169.848 152.161 169.972 152.103L169.741 152.072C169.875 151.941 169.862 151.744 170.058 151.678C170.034 151.423 169.713 151.42 169.486 151.406C169.469 151.482 169.431 151.551 169.375 151.606C169.23 151.623 169.396 151.458 169.475 151.347C169.279 151.475 169.095 151.62 168.927 151.782C169.003 151.485 168.875 151.592 169.051 151.22L168.837 151.461C168.951 151.209 168.609 151.561 168.668 151.354C168.726 151.301 168.794 151.259 168.868 151.23C168.734 151.251 168.996 150.978 168.851 151.016L169.144 150.795C169.089 150.761 168.944 150.778 169.179 150.574C168.834 150.768 168.799 150.523 168.551 150.574L168.747 150.378C168.461 150.574 168.564 150.181 168.237 150.433L168.309 150.34L167.943 150.512C167.919 150.443 168.226 150.167 168.14 150.233C167.985 150.188 167.888 150.126 167.919 149.957C167.643 150.212 167.464 150.174 167.343 150.126C167.084 149.55 166.388 149.36 165.694 149.274C165.625 149.229 165.249 149.439 165.045 149.495C165.07 149.65 165.215 149.526 165.301 149.612C165.301 149.75 165.049 150.047 164.935 150.274L165.132 150.019C165.401 149.929 165.073 150.202 165.37 150.047L165.008 150.392C165.218 150.229 165.128 150.443 165.063 150.564L165.335 150.336C165.271 150.535 165.166 150.717 165.025 150.871L165.249 150.633C165.125 150.802 165.491 150.826 165.039 151.151C165.104 151.116 165.239 151.013 165.249 151.075L165.028 151.309C165.139 151.309 165.242 151.309 165.128 151.461C165.017 151.514 164.916 151.585 164.828 151.672C165.014 151.93 165.615 150.964 165.832 151.133L165.684 151.282L165.887 151.171L165.756 151.413C166.325 150.968 165.991 151.727 166.374 151.571C166.46 151.571 166.229 151.941 166.353 151.992L166.567 151.751C166.415 152.058 166.539 152.468 166.098 153.076C166.339 152.958 166.136 153.017 166.312 152.834C166.677 152.717 166.339 153.093 166.281 153.3C166.474 153.262 166.301 153.152 166.512 153.017C166.47 153.314 166.888 152.824 166.898 153.127C166.791 153.272 166.77 153.179 166.674 153.252C167.019 153.117 167.078 153.455 167.288 153.562C167.322 153.907 167.543 154.228 167.574 154.649L167.657 154.566C167.547 154.873 167.84 154.756 167.857 154.956L167.892 154.79Z" fill="#FFCC66"/>
<path d="M171.248 153.684L171.411 153.463L171.186 153.515C171.083 153.718 171.228 153.594 171.248 153.684Z" fill="#FFCC66"/>
<path d="M170.676 154.297L170.814 154.245L170.714 154.187L170.676 154.297Z" fill="#FFCC66"/>
<path d="M169.675 152.835L169.661 152.88L170.01 152.876L169.675 152.835Z" fill="#FFCC66"/>
<path d="M169.164 150.84C169.285 150.754 169.274 150.84 169.364 150.778L169.181 150.799L169.164 150.84Z" fill="#FFCC66"/>
<path d="M169.103 149.243C168.726 149.572 169.041 149.177 168.757 149.544C168.881 149.534 168.971 149.35 169.103 149.243Z" fill="#FFCC66"/>
<path d="M168.408 149.581C168.425 149.622 168.494 149.581 168.56 149.546C168.677 149.35 168.498 149.532 168.408 149.581Z" fill="#FFCC66"/>
<path d="M176.351 148.574C176.53 148.809 176.72 149.05 176.63 149.081C176.556 148.987 176.49 148.887 176.434 148.781L176.406 148.754C176.313 148.657 176.316 148.729 176.337 148.809L176.13 148.56C176.089 148.56 176.185 148.685 176.22 148.75C175.913 148.291 175.947 148.567 175.809 148.422L176.013 148.671C175.886 148.514 175.738 148.375 175.575 148.257L175.785 148.547C175.685 148.453 175.516 148.315 175.668 148.547L175.347 148.146C175.506 148.429 175.254 148.084 175.368 148.326L175.582 148.56C175.412 148.384 175.231 148.219 175.04 148.067C174.988 148.108 175.102 148.257 174.992 148.229C174.89 148.043 174.804 147.849 174.733 147.65C174.688 147.129 174.733 146.639 175.119 146.615C175.143 146.542 175.147 146.411 174.919 146.107C175.05 146.19 175.081 146.135 175.099 146.028C175.143 146.083 175.295 146.27 175.33 146.273L175.154 145.928L175.233 146.014C175.002 145.669 175.309 145.887 175.126 145.597L175.299 145.818C175.226 145.604 175.399 145.652 175.216 145.324C175.34 145.497 175.364 145.493 175.371 145.466C175.547 145.99 175.716 146.521 175.878 147.049C175.978 147.363 176.071 147.677 176.168 147.988C176.168 148.005 176.168 148.046 176.213 148.133C176.241 148.182 176.272 148.229 176.306 148.274L176.241 148.215L176.109 148.095L176.22 148.288L176.089 148.122C176.047 148.177 176.192 148.371 176.351 148.574Z" fill="#FFCC66"/>
<path d="M174.232 144.92C174.526 145.324 174.191 144.948 174.502 145.265C174.477 145.189 174.329 145.058 174.232 144.92Z" fill="#FFCC66"/>
<path d="M174.574 145.576C174.602 145.576 174.574 145.511 174.529 145.445C174.367 145.29 174.526 145.49 174.574 145.576Z" fill="#FFCC66"/>
<path d="M154.76 156.325C154.46 157.015 154.042 157.678 153.38 157.823C153.311 157.911 153.273 158.02 153.273 158.132C153.273 158.244 153.311 158.352 153.38 158.44C153.218 158.371 153.121 158.461 153.035 158.609C152.997 158.551 152.869 158.344 152.811 158.351L152.869 158.754L152.8 158.668C152.894 158.903 152.8 158.923 152.718 158.982C152.667 158.985 152.616 158.985 152.566 158.982V158.954C152.568 158.962 152.568 158.971 152.566 158.979C151.029 158.896 149.574 158.259 148.471 157.185C148.533 157.122 148.591 157.067 148.747 157.185L148.688 157.081C149.126 157.15 149.53 157.002 149.889 157.043C150.068 156.857 150.437 156.864 150.399 156.495C150.448 156.608 150.344 156.608 150.458 156.75C150.772 156.805 150.403 156.277 150.696 156.384C150.624 156.143 150.454 156.291 150.479 156.087C150.668 156.194 150.951 156.619 150.944 156.225C150.813 156.005 150.81 156.225 150.765 155.953C151.248 156.532 151.707 156.495 151.972 156.715L151.797 156.443C151.89 156.332 152.193 156.643 152.221 156.557C152.179 156.136 152.856 156.636 152.566 155.97L152.769 156.153L152.721 155.925L152.828 156.105C153.073 155.922 152.262 155.114 152.583 154.983C152.644 155.09 152.686 155.207 152.707 155.328C152.825 155.473 152.869 155.37 152.894 155.259L153.07 155.532C153.139 155.532 153.07 155.377 153.07 155.304C153.27 155.825 153.415 155.463 153.539 155.622L153.363 155.349C153.481 155.522 153.638 155.665 153.822 155.767L153.666 155.446C153.773 155.539 153.97 155.673 153.863 155.446L154.125 155.887C154.053 155.542 154.236 155.939 154.225 155.646L154.022 155.397C154.222 155.56 154.456 155.87 154.594 155.898C154.712 155.829 154.626 155.66 154.795 155.667C154.726 155.846 154.833 156.267 154.76 156.325Z" fill="#FFCC66"/>
<path d="M149.161 148.753C149.225 148.641 149.265 148.516 149.278 148.387L149.092 148.732L149.161 148.753Z" fill="#FFCC66"/>
<path d="M149.069 148.588L148.834 148.933L148.965 148.767C148.931 148.942 148.85 149.104 148.73 149.237C148.862 149.188 148.958 148.798 149.069 148.588Z" fill="#FFCC66"/>
<path d="M148.799 148.832C148.768 148.784 148.674 149.043 148.657 149.129C148.714 149.035 148.762 148.936 148.799 148.832Z" fill="#FFCC66"/>
<path d="M147.602 148.581L147.515 148.798C147.554 148.687 147.576 148.571 147.581 148.453C147.536 148.409 147.446 148.471 147.426 148.381C147.674 148.015 147.771 148.35 147.998 148.057C147.881 148.333 147.836 148.198 147.75 148.326L147.781 148.484L147.602 148.581Z" fill="#FFCC66"/>
<path d="M148.551 148.967C148.078 149.637 147.836 149.561 147.585 149.592C147.563 149.641 147.549 149.694 147.543 149.747C147.274 149.93 147.102 149.792 146.836 150.023C146.919 149.678 147.005 149.333 147.095 148.988C147.198 149.012 147.288 149.057 147.509 148.795C147.486 148.842 147.472 148.892 147.467 148.943C147.629 148.992 147.919 148.46 148.03 148.664C147.919 148.988 148.116 148.688 148.071 148.93C148.426 148.429 148.419 149.002 148.551 148.967Z" fill="#FFCC66"/>
<path d="M148.174 147.729L148.26 147.47L148.115 147.615C148.067 147.832 148.15 147.66 148.174 147.729Z" fill="#FFCC66"/>
<path d="M147.854 148.504L147.939 148.401L147.867 148.394L147.854 148.504Z" fill="#FFCC66"/>
<path d="M248.667 236.259L234.694 255.586" stroke="white" stroke-width="2" stroke-linecap="round" stroke-linejoin="round"/>
<path d="M179.449 274.606L153.626 277.386" stroke="white" stroke-width="2" stroke-linecap="round" stroke-linejoin="round"/>
</svg>
