<svg width="60" height="60" viewBox="0 0 60 60" fill="none" xmlns="http://www.w3.org/2000/svg">
<g clip-path="url(#clip0_5292_1985)">
<path d="M60.3095 0H0V60H60.3095V0Z" fill="#603BE5"/>
<path opacity="0.4" d="M37.5408 59.9935C31.375 53.8595 17.667 39.9782 17.667 39.9782L17.6827 21.1904L27.213 21.405L30.4001 22.9268L31.871 23.9024C31.871 23.9024 33.3606 25.2829 37.0194 29.0244V21.405H40.6968C40.6968 21.405 54.372 36.866 60.4575 42.9206V48.2865C60.4155 49.4541 60.4575 52.4325 60.4575 52.4325V55.6035V59.9935H53.1025L48.4283 59.9835C48.4283 59.9835 42.9368 59.9995 41.0142 59.9995C38.8529 60.002 37.531 59.997 37.5408 59.9935Z" fill="#282828" fill-opacity="0.5"/>
<path d="M23.9771 21.1257C25.9188 21.1257 27.6222 21.5033 29.0873 22.2584C30.57 23.0135 31.7085 24.0935 32.5028 25.4984C33.3148 26.8857 33.7208 28.5013 33.7208 30.3452C33.7208 32.1891 33.3148 33.8048 32.5028 35.1921C31.7085 36.5618 30.57 37.6243 29.0873 38.3794C27.6222 39.1345 25.9188 39.5121 23.9771 39.5121H17.5166V21.1257H23.9771ZM23.8447 36.3774C25.7864 36.3774 27.2868 35.8506 28.3459 34.7969C29.405 33.7433 29.9345 32.2594 29.9345 30.3452C29.9345 28.4311 29.405 26.9384 28.3459 25.8672C27.2868 24.7784 25.7864 24.234 23.8447 24.234H21.2235V36.3774H23.8447ZM40.8114 27.9482V35.0077C40.8114 35.4994 40.9261 35.8594 41.1556 36.0877C41.4027 36.2984 41.8087 36.4038 42.3735 36.4038H44.0946V39.5121H41.7645C38.6402 39.5121 37.078 38.0018 37.078 34.9813V27.9482H35.3305V24.9189H37.078V21.3101H40.8114V24.9189H44.0946V27.9482H40.8114Z" fill="#F4F5FC"/>
</g>
<defs>
<clipPath id="clip0_5292_1985">
<rect width="60" height="60" fill="white"/>
</clipPath>
</defs>
</svg>
